M48
; DRILL file KiCad 10.0.4 date 2026-07-06T15:31:59
; FORMAT={-:-/ absolute / metric / decimal}
; #@! TF.CreationDate,2026-07-06T15:31:59-10:00
; #@! TF.GenerationSoftware,Kicad,Pcbnew,10.0.4
; #@! TF.FileFunction,Plated,1,4,PTH
FMAT,2
METRIC
; #@! TA.AperFunction,Plated,PTH,ComponentDrill
T1C0.250
; #@! TA.AperFunction,Plated,PTH,ViaDrill
T2C0.300
; #@! TA.AperFunction,Plated,PTH,ComponentDrill
T3C0.300
; #@! TA.AperFunction,Plated,PTH,ComponentDrill
T4C0.600
; #@! TA.AperFunction,Plated,PTH,ViaDrill
T5C0.800
; #@! TA.AperFunction,Plated,PTH,ComponentDrill
T6C0.800
; #@! TA.AperFunction,Plated,PTH,ComponentDrill
T7C0.890
; #@! TA.AperFunction,Plated,PTH,ComponentDrill
T8C1.000
; #@! TA.AperFunction,Plated,PTH,ComponentDrill
T9C1.016
; #@! TA.AperFunction,Plated,PTH,ComponentDrill
T10C1.300
; #@! TA.AperFunction,Plated,PTH,ComponentDrill
T11C1.400
; #@! TA.AperFunction,Plated,PTH,ComponentDrill
T12C1.570
; #@! TA.AperFunction,Plated,PTH,ComponentDrill
T13C1.800
; #@! TA.AperFunction,Plated,PTH,ComponentDrill
T14C3.600
; #@! TA.AperFunction,Plated,PTH,ComponentDrill
T15C8.400
%
G90
G05
T1
X183.063Y-60.454
X183.063Y-61.587
X183.063Y-62.72
X184.196Y-60.454
X184.196Y-61.587
X184.196Y-62.72
X185.329Y-60.454
X185.329Y-61.587
X185.329Y-62.72
X257.636Y-61.057
X257.636Y-62.191
X257.636Y-63.324
X258.769Y-61.057
X258.769Y-62.191
X258.769Y-63.324
X259.903Y-61.057
X259.903Y-62.191
X259.903Y-63.324
T2
X70.829Y-59.087
X70.929Y-138.587
X71.354Y-58.287
X71.589Y-138.617
X72.229Y-138.587
X76.029Y-115.087
X76.729Y-115.087
X77.429Y-115.087
X82.229Y-107.387
X82.229Y-107.987
X91.029Y-137.287
X91.329Y-47.287
X91.329Y-48.187
X91.429Y-131.687
X91.454Y-132.373
X94.229Y-118.387
X95.029Y-118.387
X95.282Y-48.632
X95.342Y-47.542
X95.829Y-118.387
X97.379Y-136.287
X97.529Y-112.587
X99.329Y-52.587
X99.329Y-53.587
X99.329Y-54.587
X99.329Y-55.587
X99.329Y-67.987
X99.329Y-68.987
X99.329Y-69.987
X99.329Y-70.987
X99.529Y-83.487
X99.529Y-84.487
X99.529Y-85.487
X99.529Y-86.487
X99.729Y-98.887
X99.729Y-99.887
X99.729Y-100.887
X99.729Y-101.887
X99.829Y-109.787
X100.329Y-52.587
X100.329Y-53.587
X100.329Y-54.587
X100.329Y-55.587
X100.329Y-67.987
X100.329Y-68.987
X100.329Y-69.987
X100.329Y-70.987
X100.529Y-83.487
X100.529Y-84.487
X100.529Y-85.487
X100.529Y-86.487
X100.729Y-98.887
X100.729Y-99.887
X100.729Y-100.887
X100.729Y-101.887
X101.329Y-52.587
X101.329Y-53.587
X101.329Y-54.587
X101.329Y-55.587
X101.329Y-67.987
X101.329Y-68.987
X101.329Y-69.987
X101.329Y-70.987
X101.529Y-83.487
X101.529Y-84.487
X101.529Y-85.487
X101.529Y-86.487
X101.729Y-98.887
X101.729Y-99.887
X101.729Y-100.887
X101.729Y-101.887
X102.529Y-110.887
X104.059Y-107.157
X104.242Y-79.522
X104.252Y-88.912
X104.272Y-78.462
X104.302Y-77.312
X104.362Y-73.392
X104.452Y-95.022
X104.482Y-93.962
X104.502Y-64.062
X104.512Y-92.812
X104.529Y-57.887
X104.532Y-63.002
X104.562Y-61.852
X104.649Y-99.817
X104.659Y-102.357
X104.669Y-104.417
X104.689Y-101.087
X104.729Y-53.287
X104.729Y-54.587
X104.729Y-55.787
X104.754Y-68.782
X104.754Y-70.082
X104.754Y-71.282
X104.784Y-84.282
X104.784Y-85.582
X104.784Y-86.782
X105.829Y-73.587
X106.629Y-71.587
X106.729Y-56.087
X106.729Y-87.187
X106.829Y-102.387
X107.429Y-129.787
X107.429Y-134.387
X109.229Y-71.787
X109.229Y-73.587
X109.229Y-87.287
X109.809Y-61.477
X111.599Y-62.257
X111.629Y-86.487
X112.729Y-71.087
X112.779Y-88.077
X112.829Y-68.487
X112.829Y-83.987
X112.839Y-72.897
X114.029Y-80.187
X114.429Y-64.187
X115.629Y-80.087
X115.729Y-85.187
X115.873Y-69.887
X116.929Y-54.787
X120.752Y-85.547
X120.929Y-56.387
X122.329Y-130.087
X122.329Y-134.387
X122.929Y-128.487
X124.729Y-119.587
X126.352Y-100.947
X129.829Y-132.487
X130.609Y-49.097
X131.759Y-72.867
X132.258Y-43.558
X132.933Y-44.083
X134.094Y-73.455
X134.229Y-117.687
X134.694Y-73.455
X135.829Y-119.187
X135.929Y-114.187
X135.929Y-114.987
X136.239Y-68.887
X136.429Y-51.087
X136.879Y-68.877
X137.0Y-80.4
X137.229Y-51.087
X137.229Y-119.187
X137.569Y-68.897
X137.979Y-51.087
X138.729Y-51.087
X139.379Y-114.187
X139.379Y-114.987
X139.479Y-51.087
X140.029Y-83.087
X140.229Y-51.087
X140.929Y-83.087
X141.729Y-70.887
X141.729Y-71.587
X141.729Y-72.287
X141.729Y-72.987
X141.729Y-73.687
X144.729Y-71.187
X144.729Y-71.787
X144.729Y-72.387
X144.729Y-72.987
X145.729Y-71.587
X145.729Y-72.187
X145.729Y-72.787
X154.429Y-73.387
X154.629Y-79.887
X154.729Y-81.587
X154.729Y-83.287
X154.729Y-84.987
X154.729Y-86.787
X166.574Y-82.057
X169.229Y-112.437
X169.329Y-113.687
X170.429Y-114.887
X171.329Y-59.487
X172.529Y-112.987
X173.429Y-63.587
X173.429Y-99.487
X173.504Y-81.977
X173.629Y-105.087
X173.829Y-51.211
X174.129Y-101.887
X175.099Y-63.317
X175.129Y-59.187
X175.929Y-62.987
X176.239Y-70.427
X176.429Y-114.387
X176.529Y-59.787
X176.869Y-71.097
X177.129Y-83.787
X177.139Y-58.097
X178.329Y-112.187
X178.629Y-73.387
X178.729Y-83.787
X180.029Y-60.987
X180.149Y-58.967
X180.319Y-69.497
X180.399Y-65.477
X181.439Y-69.327
X182.389Y-57.637
X182.429Y-53.687
X182.579Y-69.357
X183.063Y-53.286
X183.719Y-69.227
X183.999Y-65.657
X184.429Y-53.587
X184.929Y-113.137
X185.459Y-68.607
X185.929Y-113.137
X185.979Y-67.887
X186.399Y-57.677
X186.429Y-53.687
X187.229Y-62.887
X187.229Y-63.487
X187.329Y-73.387
X187.879Y-65.427
X188.119Y-59.387
X188.179Y-64.187
X188.249Y-62.417
X188.729Y-112.087
X189.229Y-68.367
X189.959Y-67.887
X189.999Y-57.667
X190.029Y-110.887
X190.059Y-65.687
X190.353Y-99.663
X190.619Y-58.182
X190.719Y-63.157
X190.799Y-65.677
X190.829Y-73.387
X191.229Y-60.687
X191.229Y-98.687
X191.309Y-63.157
X191.829Y-114.887
X192.06Y-55.087
X192.239Y-59.227
X192.729Y-55.687
X192.829Y-59.987
X193.229Y-111.487
X193.229Y-114.387
X194.249Y-66.757
X194.829Y-63.787
X195.829Y-63.087
X196.329Y-112.587
X198.329Y-46.587
X200.929Y-48.687
X201.399Y-61.847
X202.269Y-62.097
X202.829Y-46.287
X204.629Y-45.387
X207.2Y-65.6
X207.2Y-66.5
X208.4Y-59.1
X209.929Y-45.362
X213.404Y-48.687
X214.154Y-96.687
X214.629Y-101.787
X214.954Y-85.887
X214.954Y-86.887
X215.229Y-73.387
X218.529Y-71.097
X219.254Y-97.687
X219.429Y-70.427
X220.754Y-92.087
X221.436Y-56.824
X221.989Y-66.207
X222.029Y-60.987
X222.029Y-61.787
X223.829Y-68.987
X224.239Y-51.497
X224.729Y-68.987
X225.754Y-94.187
X225.754Y-97.987
X225.849Y-99.973
X226.169Y-125.807
X226.554Y-93.287
X227.604Y-98.617
X228.729Y-64.217
X229.329Y-64.818
X229.854Y-86.887
X230.029Y-57.987
X230.889Y-51.477
X230.889Y-121.507
X230.929Y-113.687
X231.854Y-93.462
X232.754Y-90.987
X234.289Y-121.717
X236.095Y-130.721
X236.129Y-132.387
X236.629Y-123.187
X237.359Y-119.847
X237.529Y-52.387
X238.719Y-73.407
X238.829Y-130.487
X239.809Y-58.493
X240.994Y-73.387
X241.059Y-58.788
X245.903Y-60.091
X246.012Y-93.342
X246.012Y-93.942
X246.499Y-105.017
X246.499Y-105.617
X248.003Y-64.191
X248.129Y-73.387
X249.029Y-110.487
X249.029Y-111.387
X249.579Y-58.788
X249.729Y-64.187
X250.329Y-58.787
X250.429Y-60.587
X250.829Y-63.387
X251.039Y-70.427
X251.129Y-60.377
X251.836Y-71.064
X251.877Y-60.433
X251.984Y-58.127
X252.019Y-55.549
X252.019Y-56.299
X252.522Y-59.95
X252.529Y-84.487
X252.529Y-85.237
X252.529Y-85.987
X252.529Y-86.737
X252.529Y-87.487
X254.079Y-70.127
X254.2Y-122.9
X254.259Y-55.197
X254.4Y-127.0
X254.589Y-63.991
X254.603Y-61.591
X254.729Y-59.587
X254.739Y-60.477
X254.973Y-66.081
X255.009Y-55.177
X255.384Y-92.72
X255.769Y-55.177
X255.984Y-92.72
X256.539Y-54.297
X256.973Y-58.291
X257.02Y-66.247
X257.239Y-56.1
X257.769Y-66.267
X257.939Y-70.537
X258.029Y-108.757
X258.049Y-106.217
X258.1Y-81.2
X258.1Y-125.2
X258.573Y-66.261
X258.63Y-80.67
X258.988Y-70.431
X259.003Y-54.191
X259.029Y-104.087
X259.529Y-111.587
X259.729Y-116.687
X260.059Y-69.524
X260.629Y-68.987
X260.939Y-72.707
X260.973Y-58.281
X261.009Y-54.317
X261.803Y-64.091
X261.811Y-64.79
X262.429Y-66.087
X262.629Y-112.387
X262.693Y-59.991
X262.729Y-110.687
X262.729Y-115.787
X262.753Y-64.791
X262.823Y-63.021
X262.826Y-60.747
X262.826Y-58.401
X262.829Y-80.687
X262.879Y-59.197
X263.1Y-125.3
X263.829Y-114.287
X263.829Y-117.687
X263.829Y-120.987
X263.829Y-124.687
X264.009Y-78.207
X264.78Y-66.327
X264.909Y-60.697
X265.069Y-70.166
X265.099Y-69.417
X265.369Y-63.797
X265.389Y-66.327
X265.939Y-63.797
X265.989Y-68.637
X266.703Y-59.791
X267.248Y-68.387
X268.629Y-61.587
X268.629Y-62.487
X269.429Y-73.387
X271.329Y-122.687
X271.429Y-119.187
X271.429Y-120.487
X271.529Y-58.387
X271.929Y-109.187
X272.129Y-50.687
X272.329Y-78.087
X273.129Y-78.087
X273.629Y-80.387
X273.729Y-82.887
X274.029Y-108.812
X276.429Y-102.187
X276.629Y-125.087
X277.429Y-108.812
X278.029Y-119.287
X279.129Y-126.487
X279.829Y-124.187
X282.429Y-71.987
X282.5Y-67.9
X283.329Y-92.687
X284.329Y-98.987
X284.329Y-101.587
X284.329Y-104.068
X284.329Y-106.588
X284.329Y-109.148
X284.329Y-111.69
X284.329Y-114.318
X284.329Y-116.868
X287.629Y-98.978
X287.629Y-101.568
X287.629Y-104.068
X287.629Y-106.568
X287.629Y-109.168
X287.629Y-111.668
X287.629Y-114.318
X287.629Y-116.787
X289.729Y-119.187
X290.029Y-112.987
X296.829Y-67.887
X296.909Y-64.897
X297.059Y-49.797
X297.089Y-53.017
X298.429Y-102.906
X298.729Y-104.938
X299.029Y-106.087
X317.929Y-144.987
X318.729Y-143.787
X319.629Y-132.687
X322.329Y-129.787
X322.429Y-150.587
X322.729Y-135.587
X323.229Y-134.822
X323.429Y-139.987
X324.829Y-135.287
X336.229Y-124.687
X340.929Y-132.287
X341.429Y-144.187
T3
X121.011Y-102.466
X121.011Y-103.566
X121.011Y-104.866
X121.011Y-106.066
X122.211Y-102.466
X122.211Y-103.566
X122.211Y-104.866
X122.211Y-106.066
T5
X72.029Y-111.887
X73.129Y-111.887
X74.229Y-111.887
X81.029Y-56.187
X87.339Y-88.907
X199.429Y-50.487
X199.429Y-58.387
X199.429Y-76.337
X242.829Y-76.351
X259.829Y-76.887
X265.329Y-76.387
X274.629Y-73.987
X274.729Y-72.387
T6
X313.029Y-50.942
X314.875Y-46.487
X314.875Y-55.397
X319.329Y-44.642
X319.329Y-57.242
X323.784Y-46.487
X323.784Y-55.397
X325.629Y-50.942
X340.029Y-50.942
X341.875Y-46.487
X341.875Y-55.397
X346.329Y-44.642
X346.329Y-57.242
X350.784Y-46.487
X350.784Y-55.397
X352.629Y-50.942
T7
X102.889Y-143.562
X105.179Y-143.562
X106.197Y-148.382
X107.213Y-150.162
X108.229Y-148.382
X109.245Y-150.162
X110.261Y-148.382
X111.277Y-150.162
X112.293Y-148.382
X113.309Y-150.162
X114.319Y-143.562
X116.609Y-143.562
X118.639Y-143.562
X120.929Y-143.562
X121.947Y-148.382
X122.963Y-150.162
X123.979Y-148.382
X124.995Y-150.162
X126.011Y-148.382
X127.027Y-150.162
X128.043Y-148.382
X129.059Y-150.162
X130.069Y-143.562
X132.359Y-143.562
X295.704Y-95.057
X295.704Y-97.347
X295.704Y-106.487
X295.704Y-108.777
X295.704Y-110.807
X295.704Y-113.097
X295.704Y-122.237
X295.704Y-124.527
X300.524Y-99.373
X300.524Y-101.405
X300.524Y-103.437
X300.524Y-105.469
X300.524Y-115.123
X300.524Y-117.155
X300.524Y-119.187
X300.524Y-121.219
X302.304Y-98.357
X302.304Y-100.389
X302.304Y-102.421
X302.304Y-104.453
X302.304Y-114.107
X302.304Y-116.139
X302.304Y-118.171
X302.304Y-120.203
T8
X88.429Y-111.487
X93.429Y-111.487
X108.759Y-111.247
X113.759Y-111.247
X118.229Y-130.887
X118.229Y-133.427
X121.129Y-117.837
X121.129Y-120.377
X122.219Y-92.347
X123.929Y-83.087
X126.429Y-70.087
X126.429Y-72.627
X126.469Y-83.087
X127.219Y-92.347
X148.929Y-56.187
X151.469Y-56.187
X152.629Y-119.687
X161.929Y-83.887
X163.529Y-119.887
X163.629Y-68.897
X163.629Y-71.437
X166.129Y-68.897
X166.129Y-71.437
X168.729Y-83.887
X169.399Y-65.547
X171.939Y-65.547
X172.769Y-45.487
X172.769Y-48.027
X174.129Y-119.787
X174.479Y-65.547
X175.309Y-45.487
X175.309Y-48.027
X177.849Y-45.487
X177.849Y-48.027
X179.857Y-102.525
X179.857Y-105.065
X179.857Y-107.605
X180.389Y-45.487
X180.389Y-48.027
X182.929Y-45.487
X182.929Y-48.027
X185.469Y-45.487
X185.469Y-48.027
X188.009Y-45.487
X188.009Y-48.027
X188.229Y-119.887
X189.579Y-105.987
X190.549Y-45.487
X190.549Y-48.027
X192.119Y-105.987
X193.089Y-45.487
X193.089Y-48.027
X195.629Y-45.487
X195.629Y-48.027
X199.029Y-119.712
X209.729Y-119.812
X210.994Y-65.187
X210.994Y-67.727
X216.379Y-108.612
X217.164Y-90.25
X217.529Y-48.987
X218.919Y-108.612
X219.704Y-90.25
X225.964Y-85.487
X226.329Y-112.887
X226.329Y-120.287
X226.529Y-127.887
X228.504Y-85.487
X231.919Y-108.867
X232.404Y-98.217
X232.404Y-100.757
X234.429Y-47.287
X234.459Y-108.867
X244.619Y-66.167
X244.749Y-109.667
X244.749Y-112.207
X244.749Y-119.827
X244.749Y-124.907
X247.159Y-66.167
X247.489Y-45.947
X247.489Y-48.487
X249.089Y-80.057
X249.089Y-82.597
X249.699Y-66.167
X250.029Y-45.947
X250.029Y-48.487
X251.389Y-80.057
X251.389Y-82.597
X252.569Y-45.947
X252.569Y-48.487
X253.129Y-106.207
X253.129Y-108.747
X255.109Y-45.947
X255.109Y-48.487
X257.649Y-45.947
X257.649Y-48.487
X260.189Y-45.947
X260.189Y-48.487
X261.029Y-93.795
X262.729Y-45.947
X262.729Y-48.487
X263.569Y-93.795
X265.269Y-45.947
X265.269Y-48.487
X267.809Y-45.947
X267.809Y-48.487
X268.729Y-86.787
X270.349Y-45.947
X270.349Y-48.487
X271.029Y-63.687
X271.029Y-66.227
X271.029Y-68.767
X271.029Y-71.307
X271.189Y-93.795
X274.329Y-114.987
X276.269Y-93.795
X276.869Y-114.987
X278.429Y-77.847
X278.429Y-80.387
X278.429Y-82.927
X278.429Y-85.467
X279.929Y-91.587
X282.229Y-91.587
X293.529Y-47.367
X293.529Y-49.907
X293.529Y-52.447
X293.529Y-54.987
X293.529Y-62.467
X293.529Y-65.007
X293.529Y-67.547
X293.529Y-70.087
X315.339Y-119.057
X315.339Y-121.597
X315.339Y-124.137
X315.339Y-126.677
X315.339Y-129.217
X315.339Y-131.757
X315.339Y-134.297
X315.339Y-136.837
X315.339Y-139.377
X315.339Y-141.917
X315.339Y-144.457
X315.339Y-146.997
X315.339Y-149.537
X315.339Y-152.077
X315.339Y-154.617
X315.339Y-157.157
X315.339Y-159.697
X315.339Y-162.237
X315.339Y-164.777
X315.339Y-167.317
X316.729Y-92.792
X316.729Y-102.292
X316.829Y-111.892
X321.729Y-92.792
X321.729Y-102.292
X321.829Y-111.892
X333.119Y-119.057
X333.119Y-121.597
X333.119Y-124.137
X333.119Y-126.677
X333.119Y-129.217
X333.119Y-131.757
X333.119Y-134.297
X333.119Y-136.837
X333.119Y-139.377
X333.119Y-141.917
X333.119Y-144.457
X333.119Y-146.997
X333.119Y-149.537
X333.119Y-152.077
X333.119Y-154.617
X333.119Y-157.157
X333.119Y-159.697
X333.119Y-162.237
X333.119Y-164.777
X333.119Y-167.317
X336.929Y-139.437
X336.929Y-141.977
X336.929Y-144.537
X336.929Y-147.077
X337.329Y-126.237
X337.329Y-128.777
X337.679Y-154.087
X340.219Y-154.087
X344.029Y-92.892
X344.029Y-102.392
X344.029Y-111.892
X349.029Y-92.892
X349.029Y-102.392
X349.029Y-111.892
T9
X152.53Y-140.387
X159.529Y-144.987
X174.029Y-140.387
X188.328Y-140.387
X200.827Y-144.987
X209.827Y-140.387
T10
X66.629Y-65.987
X66.629Y-68.527
X66.629Y-71.067
X66.629Y-73.607
X66.629Y-76.147
X66.629Y-78.687
X66.629Y-81.227
X66.629Y-83.767
X66.629Y-86.307
X66.629Y-88.847
X66.629Y-91.387
X66.629Y-93.927
X66.629Y-96.467
X66.629Y-99.007
X69.629Y-65.987
X69.629Y-68.527
X69.629Y-71.067
X69.629Y-73.607
X69.629Y-76.147
X69.629Y-78.687
X69.629Y-81.227
X69.629Y-83.767
X69.629Y-86.307
X69.629Y-88.847
X69.629Y-91.387
X69.629Y-93.927
X69.629Y-96.467
X69.629Y-99.007
X73.629Y-68.527
X73.629Y-71.997
X73.629Y-75.497
X73.629Y-78.997
X73.629Y-82.497
X73.629Y-85.997
X73.629Y-89.497
X73.629Y-92.997
X73.629Y-96.467
X77.629Y-70.247
X77.629Y-75.497
X77.629Y-78.997
X77.629Y-82.497
X77.629Y-85.997
X77.629Y-89.497
X77.629Y-94.747
T11
X52.129Y-69.367
X52.129Y-73.177
X52.129Y-76.987
X52.129Y-80.797
X52.129Y-84.607
X52.129Y-88.417
X52.129Y-92.227
X52.129Y-96.037
X67.099Y-46.587
X70.909Y-46.587
X74.719Y-46.587
X78.529Y-46.587
X83.199Y-151.187
X87.009Y-151.187
X90.819Y-151.187
X94.629Y-151.187
X144.559Y-46.587
X148.369Y-46.587
X152.179Y-46.587
X155.989Y-46.587
X160.229Y-151.287
X167.849Y-151.287
X175.469Y-151.287
X183.089Y-151.287
X190.709Y-151.287
X198.329Y-151.287
X232.169Y-151.187
X235.979Y-151.187
X239.789Y-151.187
X243.599Y-151.187
X270.429Y-151.187
X274.239Y-151.187
X351.797Y-126.227
X351.797Y-130.037
T12
X101.629Y-149.272
X133.629Y-149.272
X301.414Y-93.787
X301.414Y-125.787
T13
X70.429Y-147.787
X70.429Y-152.787
X77.329Y-147.787
X77.329Y-152.787
T14
X55.129Y-55.827
X55.129Y-109.167
T15
X319.329Y-50.942
X346.329Y-50.942
T4
G00X302.594Y-47.247
M15
G01X303.694Y-47.247
M16
G05
G00X302.594Y-55.887
M15
G01X303.694Y-55.887
M16
G05
G00X302.599Y-62.347
M15
G01X303.699Y-62.347
M16
G05
G00X302.599Y-70.987
M15
G01X303.699Y-70.987
M16
G05
G00X302.699Y-77.467
M15
G01X303.799Y-77.467
M16
G05
G00X302.699Y-86.107
M15
G01X303.799Y-86.107
M16
G05
G00X307.024Y-47.247
M15
G01X307.624Y-47.247
M16
G05
G00X307.024Y-55.887
M15
G01X307.624Y-55.887
M16
G05
G00X307.029Y-62.347
M15
G01X307.629Y-62.347
M16
G05
G00X307.029Y-70.987
M15
G01X307.629Y-70.987
M16
G05
G00X307.129Y-77.467
M15
G01X307.729Y-77.467
M16
G05
G00X307.129Y-86.107
M15
G01X307.729Y-86.107
M16
G05
M30
