G04 #@! TF.GenerationSoftware,KiCad,Pcbnew,10.0.4*
G04 #@! TF.CreationDate,2026-07-06T15:31:59-10:00*
G04 #@! TF.ProjectId,CellKeeper,43656c6c-4b65-4657-9065-722e6b696361,1.0*
G04 #@! TF.SameCoordinates,Original*
G04 #@! TF.FileFunction,Paste,Top*
G04 #@! TF.FilePolarity,Positive*
%FSLAX46Y46*%
G04 Gerber Fmt 4.6, Leading zero omitted, Abs format (unit mm)*
G04 Created by KiCad (PCBNEW 10.0.4) date 2026-07-06 15:31:59*
%MOMM*%
%LPD*%
G01*
G04 APERTURE LIST*
G04 Aperture macros list*
%AMRoundRect*
0 Rectangle with rounded corners*
0 $1 Rounding radius*
0 $2 $3 $4 $5 $6 $7 $8 $9 X,Y pos of 4 corners*
0 Add a 4 corners polygon primitive as box body*
4,1,4,$2,$3,$4,$5,$6,$7,$8,$9,$2,$3,0*
0 Add four circle primitives for the rounded corners*
1,1,$1+$1,$2,$3*
1,1,$1+$1,$4,$5*
1,1,$1+$1,$6,$7*
1,1,$1+$1,$8,$9*
0 Add four rect primitives between the rounded corners*
20,1,$1+$1,$2,$3,$4,$5,0*
20,1,$1+$1,$4,$5,$6,$7,0*
20,1,$1+$1,$6,$7,$8,$9,0*
20,1,$1+$1,$8,$9,$2,$3,0*%
G04 Aperture macros list end*
%ADD10C,0.300000*%
%ADD11RoundRect,0.250000X1.000000X0.900000X-1.000000X0.900000X-1.000000X-0.900000X1.000000X-0.900000X0*%
%ADD12RoundRect,0.225000X0.250000X-0.225000X0.250000X0.225000X-0.250000X0.225000X-0.250000X-0.225000X0*%
%ADD13RoundRect,0.200000X-0.200000X-0.275000X0.200000X-0.275000X0.200000X0.275000X-0.200000X0.275000X0*%
%ADD14RoundRect,0.200000X-0.275000X0.200000X-0.275000X-0.200000X0.275000X-0.200000X0.275000X0.200000X0*%
%ADD15RoundRect,0.225000X-0.250000X0.225000X-0.250000X-0.225000X0.250000X-0.225000X0.250000X0.225000X0*%
%ADD16RoundRect,0.075000X-0.650000X-0.075000X0.650000X-0.075000X0.650000X0.075000X-0.650000X0.075000X0*%
%ADD17RoundRect,0.225000X0.225000X0.250000X-0.225000X0.250000X-0.225000X-0.250000X0.225000X-0.250000X0*%
%ADD18RoundRect,0.243750X0.243750X0.456250X-0.243750X0.456250X-0.243750X-0.456250X0.243750X-0.456250X0*%
%ADD19R,1.090000X1.830000*%
%ADD20RoundRect,0.054500X-0.490500X0.860500X-0.490500X-0.860500X0.490500X-0.860500X0.490500X0.860500X0*%
%ADD21RoundRect,0.250000X-0.625000X0.312500X-0.625000X-0.312500X0.625000X-0.312500X0.625000X0.312500X0*%
%ADD22RoundRect,0.250000X0.250000X0.475000X-0.250000X0.475000X-0.250000X-0.475000X0.250000X-0.475000X0*%
%ADD23RoundRect,0.200000X0.200000X0.275000X-0.200000X0.275000X-0.200000X-0.275000X0.200000X-0.275000X0*%
%ADD24RoundRect,0.225000X-0.225000X-0.250000X0.225000X-0.250000X0.225000X0.250000X-0.225000X0.250000X0*%
%ADD25RoundRect,0.237500X-0.300000X-0.237500X0.300000X-0.237500X0.300000X0.237500X-0.300000X0.237500X0*%
%ADD26RoundRect,0.250000X0.312500X0.625000X-0.312500X0.625000X-0.312500X-0.625000X0.312500X-0.625000X0*%
%ADD27RoundRect,0.135000X0.135000X0.185000X-0.135000X0.185000X-0.135000X-0.185000X0.135000X-0.185000X0*%
%ADD28RoundRect,0.250000X0.900000X-1.000000X0.900000X1.000000X-0.900000X1.000000X-0.900000X-1.000000X0*%
%ADD29RoundRect,0.250000X-0.250000X-0.475000X0.250000X-0.475000X0.250000X0.475000X-0.250000X0.475000X0*%
%ADD30RoundRect,0.150000X-0.675000X-0.150000X0.675000X-0.150000X0.675000X0.150000X-0.675000X0.150000X0*%
%ADD31RoundRect,0.140000X-0.170000X0.140000X-0.170000X-0.140000X0.170000X-0.140000X0.170000X0.140000X0*%
%ADD32RoundRect,0.250000X-0.475000X0.250000X-0.475000X-0.250000X0.475000X-0.250000X0.475000X0.250000X0*%
%ADD33RoundRect,0.250000X-1.000000X-0.900000X1.000000X-0.900000X1.000000X0.900000X-1.000000X0.900000X0*%
%ADD34RoundRect,0.150000X0.575000X-0.150000X0.575000X0.150000X-0.575000X0.150000X-0.575000X-0.150000X0*%
%ADD35RoundRect,0.075000X0.650000X-0.075000X0.650000X0.075000X-0.650000X0.075000X-0.650000X-0.075000X0*%
%ADD36RoundRect,0.135000X0.185000X-0.135000X0.185000X0.135000X-0.185000X0.135000X-0.185000X-0.135000X0*%
%ADD37RoundRect,0.162500X-1.012500X-0.162500X1.012500X-0.162500X1.012500X0.162500X-1.012500X0.162500X0*%
%ADD38RoundRect,0.250000X-0.900000X1.000000X-0.900000X-1.000000X0.900000X-1.000000X0.900000X1.000000X0*%
%ADD39R,0.900000X0.800000*%
%ADD40RoundRect,0.250000X1.000000X0.650000X-1.000000X0.650000X-1.000000X-0.650000X1.000000X-0.650000X0*%
%ADD41RoundRect,0.237500X0.300000X0.237500X-0.300000X0.237500X-0.300000X-0.237500X0.300000X-0.237500X0*%
%ADD42RoundRect,0.140000X0.140000X0.170000X-0.140000X0.170000X-0.140000X-0.170000X0.140000X-0.170000X0*%
%ADD43RoundRect,0.243750X-0.456250X0.243750X-0.456250X-0.243750X0.456250X-0.243750X0.456250X0.243750X0*%
%ADD44RoundRect,0.140000X0.170000X-0.140000X0.170000X0.140000X-0.170000X0.140000X-0.170000X-0.140000X0*%
%ADD45RoundRect,0.237500X-0.237500X0.250000X-0.237500X-0.250000X0.237500X-0.250000X0.237500X0.250000X0*%
%ADD46RoundRect,0.150000X0.825000X0.150000X-0.825000X0.150000X-0.825000X-0.150000X0.825000X-0.150000X0*%
%ADD47RoundRect,0.200000X0.275000X-0.200000X0.275000X0.200000X-0.275000X0.200000X-0.275000X-0.200000X0*%
%ADD48RoundRect,0.250000X-0.650000X1.000000X-0.650000X-1.000000X0.650000X-1.000000X0.650000X1.000000X0*%
%ADD49R,1.550000X0.600000*%
%ADD50R,2.600000X3.100000*%
%ADD51RoundRect,0.243750X0.456250X-0.243750X0.456250X0.243750X-0.456250X0.243750X-0.456250X-0.243750X0*%
%ADD52RoundRect,0.250002X-1.799998X1.799998X-1.799998X-1.799998X1.799998X-1.799998X1.799998X1.799998X0*%
%ADD53RoundRect,0.140000X-0.140000X-0.170000X0.140000X-0.170000X0.140000X0.170000X-0.140000X0.170000X0*%
%ADD54R,0.780000X0.900000*%
%ADD55R,0.850000X0.500000*%
%ADD56R,0.800000X0.600000*%
%ADD57RoundRect,0.150000X-0.150000X0.825000X-0.150000X-0.825000X0.150000X-0.825000X0.150000X0.825000X0*%
%ADD58R,0.750000X1.000000*%
%ADD59RoundRect,0.237500X0.287500X0.237500X-0.287500X0.237500X-0.287500X-0.237500X0.287500X-0.237500X0*%
%ADD60R,1.700000X0.700000*%
%ADD61RoundRect,0.375000X-0.625000X-0.375000X0.625000X-0.375000X0.625000X0.375000X-0.625000X0.375000X0*%
%ADD62RoundRect,0.500000X-0.500000X-1.400000X0.500000X-1.400000X0.500000X1.400000X-0.500000X1.400000X0*%
%ADD63RoundRect,0.250000X0.650000X-1.000000X0.650000X1.000000X-0.650000X1.000000X-0.650000X-1.000000X0*%
%ADD64RoundRect,0.250000X-0.337500X-0.475000X0.337500X-0.475000X0.337500X0.475000X-0.337500X0.475000X0*%
%ADD65R,0.530000X0.470000*%
%ADD66RoundRect,0.237500X0.237500X-0.250000X0.237500X0.250000X-0.237500X0.250000X-0.237500X-0.250000X0*%
%ADD67RoundRect,0.250000X0.650000X-0.325000X0.650000X0.325000X-0.650000X0.325000X-0.650000X-0.325000X0*%
%ADD68RoundRect,0.135000X-0.185000X0.135000X-0.185000X-0.135000X0.185000X-0.135000X0.185000X0.135000X0*%
%ADD69RoundRect,0.243750X-0.243750X-0.456250X0.243750X-0.456250X0.243750X0.456250X-0.243750X0.456250X0*%
%ADD70RoundRect,0.150000X-0.825000X-0.150000X0.825000X-0.150000X0.825000X0.150000X-0.825000X0.150000X0*%
%ADD71RoundRect,0.162500X-0.162500X1.012500X-0.162500X-1.012500X0.162500X-1.012500X0.162500X1.012500X0*%
%ADD72R,0.711200X2.743200*%
%ADD73R,3.327400X8.001000*%
%ADD74RoundRect,0.237500X-0.237500X0.287500X-0.237500X-0.287500X0.237500X-0.287500X0.237500X0.287500X0*%
%ADD75RoundRect,0.250000X0.450000X0.350000X-0.450000X0.350000X-0.450000X-0.350000X0.450000X-0.350000X0*%
%ADD76RoundRect,0.250000X-1.000000X-0.650000X1.000000X-0.650000X1.000000X0.650000X-1.000000X0.650000X0*%
%ADD77RoundRect,0.250000X-0.350000X0.350000X-0.350000X-0.350000X0.350000X-0.350000X0.350000X0.350000X0*%
%ADD78RoundRect,0.055000X-0.055000X-0.335000X0.055000X-0.335000X0.055000X0.335000X-0.055000X0.335000X0*%
%ADD79RoundRect,0.055000X-0.335000X0.055000X-0.335000X-0.055000X0.335000X-0.055000X0.335000X0.055000X0*%
%ADD80R,0.133333X0.133333*%
%ADD81R,0.800000X0.900000*%
%ADD82RoundRect,0.135000X-0.135000X-0.185000X0.135000X-0.185000X0.135000X0.185000X-0.135000X0.185000X0*%
%ADD83RoundRect,0.150000X0.675000X0.150000X-0.675000X0.150000X-0.675000X-0.150000X0.675000X-0.150000X0*%
%ADD84RoundRect,0.250000X-1.000000X1.400000X-1.000000X-1.400000X1.000000X-1.400000X1.000000X1.400000X0*%
%ADD85RoundRect,0.250000X-0.312500X-0.625000X0.312500X-0.625000X0.312500X0.625000X-0.312500X0.625000X0*%
%ADD86RoundRect,0.250000X1.500000X-0.925000X1.500000X0.925000X-1.500000X0.925000X-1.500000X-0.925000X0*%
%ADD87RoundRect,0.237500X-0.250000X-0.237500X0.250000X-0.237500X0.250000X0.237500X-0.250000X0.237500X0*%
%ADD88R,0.609600X3.098800*%
%ADD89R,3.200400X8.102600*%
%ADD90RoundRect,0.237500X0.237500X-0.287500X0.237500X0.287500X-0.237500X0.287500X-0.237500X-0.287500X0*%
%ADD91RoundRect,0.250000X-1.400000X-1.000000X1.400000X-1.000000X1.400000X1.000000X-1.400000X1.000000X0*%
%ADD92R,2.743200X0.711200*%
%ADD93R,8.001000X3.327400*%
%ADD94RoundRect,0.075000X-0.075000X0.650000X-0.075000X-0.650000X0.075000X-0.650000X0.075000X0.650000X0*%
G04 APERTURE END LIST*
G04 #@! TO.C,JP10*
D10*
X285039276Y-108865646D02*
X285499276Y-108865646D01*
X285499276Y-109515646D01*
X285039276Y-109515646D01*
X285039276Y-108865646D01*
G36*
X285039276Y-108865646D02*
G01*
X285499276Y-108865646D01*
X285499276Y-109515646D01*
X285039276Y-109515646D01*
X285039276Y-108865646D01*
G37*
X286489276Y-108860646D02*
X286949276Y-108860646D01*
X286949276Y-109510646D01*
X286489276Y-109510646D01*
X286489276Y-108860646D01*
G36*
X286489276Y-108860646D02*
G01*
X286949276Y-108860646D01*
X286949276Y-109510646D01*
X286489276Y-109510646D01*
X286489276Y-108860646D01*
G37*
G04 #@! TO.C,JP34*
X152179276Y-86447018D02*
X152639276Y-86447018D01*
X152639276Y-87097018D01*
X152179276Y-87097018D01*
X152179276Y-86447018D01*
G36*
X152179276Y-86447018D02*
G01*
X152639276Y-86447018D01*
X152639276Y-87097018D01*
X152179276Y-87097018D01*
X152179276Y-86447018D01*
G37*
X153629276Y-86442018D02*
X154089276Y-86442018D01*
X154089276Y-87092018D01*
X153629276Y-87092018D01*
X153629276Y-86442018D01*
G36*
X153629276Y-86442018D02*
G01*
X154089276Y-86442018D01*
X154089276Y-87092018D01*
X153629276Y-87092018D01*
X153629276Y-86442018D01*
G37*
G04 #@! TO.C,JP28*
X284969276Y-101263146D02*
X285429276Y-101263146D01*
X285429276Y-101913146D01*
X284969276Y-101913146D01*
X284969276Y-101263146D01*
G36*
X284969276Y-101263146D02*
G01*
X285429276Y-101263146D01*
X285429276Y-101913146D01*
X284969276Y-101913146D01*
X284969276Y-101263146D01*
G37*
X286419276Y-101258146D02*
X286879276Y-101258146D01*
X286879276Y-101908146D01*
X286419276Y-101908146D01*
X286419276Y-101258146D01*
G36*
X286419276Y-101258146D02*
G01*
X286879276Y-101258146D01*
X286879276Y-101908146D01*
X286419276Y-101908146D01*
X286419276Y-101258146D01*
G37*
G04 #@! TO.C,JP1*
X82779276Y-71365890D02*
X83239276Y-71365890D01*
X83239276Y-72015890D01*
X82779276Y-72015890D01*
X82779276Y-71365890D01*
G36*
X82779276Y-71365890D02*
G01*
X83239276Y-71365890D01*
X83239276Y-72015890D01*
X82779276Y-72015890D01*
X82779276Y-71365890D01*
G37*
X84229276Y-71360890D02*
X84689276Y-71360890D01*
X84689276Y-72010890D01*
X84229276Y-72010890D01*
X84229276Y-71360890D01*
G36*
X84229276Y-71360890D02*
G01*
X84689276Y-71360890D01*
X84689276Y-72010890D01*
X84229276Y-72010890D01*
X84229276Y-71360890D01*
G37*
G04 #@! TO.C,JP7*
X281739276Y-111365646D02*
X282199276Y-111365646D01*
X282199276Y-112015646D01*
X281739276Y-112015646D01*
X281739276Y-111365646D01*
G36*
X281739276Y-111365646D02*
G01*
X282199276Y-111365646D01*
X282199276Y-112015646D01*
X281739276Y-112015646D01*
X281739276Y-111365646D01*
G37*
X283189276Y-111360646D02*
X283649276Y-111360646D01*
X283649276Y-112010646D01*
X283189276Y-112010646D01*
X283189276Y-111360646D01*
G36*
X283189276Y-111360646D02*
G01*
X283649276Y-111360646D01*
X283649276Y-112010646D01*
X283189276Y-112010646D01*
X283189276Y-111360646D01*
G37*
G04 #@! TO.C,JP31*
X152179276Y-84665890D02*
X152639276Y-84665890D01*
X152639276Y-85315890D01*
X152179276Y-85315890D01*
X152179276Y-84665890D01*
G36*
X152179276Y-84665890D02*
G01*
X152639276Y-84665890D01*
X152639276Y-85315890D01*
X152179276Y-85315890D01*
X152179276Y-84665890D01*
G37*
X153629276Y-84660890D02*
X154089276Y-84660890D01*
X154089276Y-85310890D01*
X153629276Y-85310890D01*
X153629276Y-84660890D01*
G36*
X153629276Y-84660890D02*
G01*
X154089276Y-84660890D01*
X154089276Y-85310890D01*
X153629276Y-85310890D01*
X153629276Y-84660890D01*
G37*
G04 #@! TO.C,JP13*
X281739276Y-113965646D02*
X282199276Y-113965646D01*
X282199276Y-114615646D01*
X281739276Y-114615646D01*
X281739276Y-113965646D01*
G36*
X281739276Y-113965646D02*
G01*
X282199276Y-113965646D01*
X282199276Y-114615646D01*
X281739276Y-114615646D01*
X281739276Y-113965646D01*
G37*
X283189276Y-113960646D02*
X283649276Y-113960646D01*
X283649276Y-114610646D01*
X283189276Y-114610646D01*
X283189276Y-113960646D01*
G36*
X283189276Y-113960646D02*
G01*
X283649276Y-113960646D01*
X283649276Y-114610646D01*
X283189276Y-114610646D01*
X283189276Y-113960646D01*
G37*
G04 #@! TO.C,JP11*
X288369276Y-111363146D02*
X288829276Y-111363146D01*
X288829276Y-112013146D01*
X288369276Y-112013146D01*
X288369276Y-111363146D01*
G36*
X288369276Y-111363146D02*
G01*
X288829276Y-111363146D01*
X288829276Y-112013146D01*
X288369276Y-112013146D01*
X288369276Y-111363146D01*
G37*
X289819276Y-111358146D02*
X290279276Y-111358146D01*
X290279276Y-112008146D01*
X289819276Y-112008146D01*
X289819276Y-111358146D01*
G36*
X289819276Y-111358146D02*
G01*
X290279276Y-111358146D01*
X290279276Y-112008146D01*
X289819276Y-112008146D01*
X289819276Y-111358146D01*
G37*
G04 #@! TO.C,JP6*
X288369276Y-103744274D02*
X288829276Y-103744274D01*
X288829276Y-104394274D01*
X288369276Y-104394274D01*
X288369276Y-103744274D01*
G36*
X288369276Y-103744274D02*
G01*
X288829276Y-103744274D01*
X288829276Y-104394274D01*
X288369276Y-104394274D01*
X288369276Y-103744274D01*
G37*
X289819276Y-103739274D02*
X290279276Y-103739274D01*
X290279276Y-104389274D01*
X289819276Y-104389274D01*
X289819276Y-103739274D01*
G36*
X289819276Y-103739274D02*
G01*
X290279276Y-103739274D01*
X290279276Y-104389274D01*
X289819276Y-104389274D01*
X289819276Y-103739274D01*
G37*
G04 #@! TO.C,JP4*
X285039276Y-103765646D02*
X285499276Y-103765646D01*
X285499276Y-104415646D01*
X285039276Y-104415646D01*
X285039276Y-103765646D01*
G36*
X285039276Y-103765646D02*
G01*
X285499276Y-103765646D01*
X285499276Y-104415646D01*
X285039276Y-104415646D01*
X285039276Y-103765646D01*
G37*
X286489276Y-103760646D02*
X286949276Y-103760646D01*
X286949276Y-104410646D01*
X286489276Y-104410646D01*
X286489276Y-103760646D01*
G36*
X286489276Y-103760646D02*
G01*
X286949276Y-103760646D01*
X286949276Y-104410646D01*
X286489276Y-104410646D01*
X286489276Y-103760646D01*
G37*
G04 #@! TO.C,JP19*
X281739276Y-116546774D02*
X282199276Y-116546774D01*
X282199276Y-117196774D01*
X281739276Y-117196774D01*
X281739276Y-116546774D01*
G36*
X281739276Y-116546774D02*
G01*
X282199276Y-116546774D01*
X282199276Y-117196774D01*
X281739276Y-117196774D01*
X281739276Y-116546774D01*
G37*
X283189276Y-116541774D02*
X283649276Y-116541774D01*
X283649276Y-117191774D01*
X283189276Y-117191774D01*
X283189276Y-116541774D01*
G36*
X283189276Y-116541774D02*
G01*
X283649276Y-116541774D01*
X283649276Y-117191774D01*
X283189276Y-117191774D01*
X283189276Y-116541774D01*
G37*
G04 #@! TO.C,JP15*
X281739276Y-106265646D02*
X282199276Y-106265646D01*
X282199276Y-106915646D01*
X281739276Y-106915646D01*
X281739276Y-106265646D01*
G36*
X281739276Y-106265646D02*
G01*
X282199276Y-106265646D01*
X282199276Y-106915646D01*
X281739276Y-106915646D01*
X281739276Y-106265646D01*
G37*
X283189276Y-106260646D02*
X283649276Y-106260646D01*
X283649276Y-106910646D01*
X283189276Y-106910646D01*
X283189276Y-106260646D01*
G36*
X283189276Y-106260646D02*
G01*
X283649276Y-106260646D01*
X283649276Y-106910646D01*
X283189276Y-106910646D01*
X283189276Y-106260646D01*
G37*
G04 #@! TO.C,JP12*
X288369276Y-108844274D02*
X288829276Y-108844274D01*
X288829276Y-109494274D01*
X288369276Y-109494274D01*
X288369276Y-108844274D01*
G36*
X288369276Y-108844274D02*
G01*
X288829276Y-108844274D01*
X288829276Y-109494274D01*
X288369276Y-109494274D01*
X288369276Y-108844274D01*
G37*
X289819276Y-108839274D02*
X290279276Y-108839274D01*
X290279276Y-109489274D01*
X289819276Y-109489274D01*
X289819276Y-108839274D01*
G36*
X289819276Y-108839274D02*
G01*
X290279276Y-108839274D01*
X290279276Y-109489274D01*
X289819276Y-109489274D01*
X289819276Y-108839274D01*
G37*
G04 #@! TO.C,JP23*
X288369276Y-116563146D02*
X288829276Y-116563146D01*
X288829276Y-117213146D01*
X288369276Y-117213146D01*
X288369276Y-116563146D01*
G36*
X288369276Y-116563146D02*
G01*
X288829276Y-116563146D01*
X288829276Y-117213146D01*
X288369276Y-117213146D01*
X288369276Y-116563146D01*
G37*
X289819276Y-116558146D02*
X290279276Y-116558146D01*
X290279276Y-117208146D01*
X289819276Y-117208146D01*
X289819276Y-116558146D01*
G36*
X289819276Y-116558146D02*
G01*
X290279276Y-116558146D01*
X290279276Y-117208146D01*
X289819276Y-117208146D01*
X289819276Y-116558146D01*
G37*
G04 #@! TO.C,JP8*
X285039276Y-111365646D02*
X285499276Y-111365646D01*
X285499276Y-112015646D01*
X285039276Y-112015646D01*
X285039276Y-111365646D01*
G36*
X285039276Y-111365646D02*
G01*
X285499276Y-111365646D01*
X285499276Y-112015646D01*
X285039276Y-112015646D01*
X285039276Y-111365646D01*
G37*
X286489276Y-111360646D02*
X286949276Y-111360646D01*
X286949276Y-112010646D01*
X286489276Y-112010646D01*
X286489276Y-111360646D01*
G36*
X286489276Y-111360646D02*
G01*
X286949276Y-111360646D01*
X286949276Y-112010646D01*
X286489276Y-112010646D01*
X286489276Y-111360646D01*
G37*
G04 #@! TO.C,JP17*
X288369276Y-113963146D02*
X288829276Y-113963146D01*
X288829276Y-114613146D01*
X288369276Y-114613146D01*
X288369276Y-113963146D01*
G36*
X288369276Y-113963146D02*
G01*
X288829276Y-113963146D01*
X288829276Y-114613146D01*
X288369276Y-114613146D01*
X288369276Y-113963146D01*
G37*
X289819276Y-113958146D02*
X290279276Y-113958146D01*
X290279276Y-114608146D01*
X289819276Y-114608146D01*
X289819276Y-113958146D01*
G36*
X289819276Y-113958146D02*
G01*
X290279276Y-113958146D01*
X290279276Y-114608146D01*
X289819276Y-114608146D01*
X289819276Y-113958146D01*
G37*
G04 #@! TO.C,JP21*
X281769276Y-98663146D02*
X282229276Y-98663146D01*
X282229276Y-99313146D01*
X281769276Y-99313146D01*
X281769276Y-98663146D01*
G36*
X281769276Y-98663146D02*
G01*
X282229276Y-98663146D01*
X282229276Y-99313146D01*
X281769276Y-99313146D01*
X281769276Y-98663146D01*
G37*
X283219276Y-98658146D02*
X283679276Y-98658146D01*
X283679276Y-99308146D01*
X283219276Y-99308146D01*
X283219276Y-98658146D01*
G36*
X283219276Y-98658146D02*
G01*
X283679276Y-98658146D01*
X283679276Y-99308146D01*
X283219276Y-99308146D01*
X283219276Y-98658146D01*
G37*
G04 #@! TO.C,JP33*
X152179276Y-81247018D02*
X152639276Y-81247018D01*
X152639276Y-81897018D01*
X152179276Y-81897018D01*
X152179276Y-81247018D01*
G36*
X152179276Y-81247018D02*
G01*
X152639276Y-81247018D01*
X152639276Y-81897018D01*
X152179276Y-81897018D01*
X152179276Y-81247018D01*
G37*
X153629276Y-81242018D02*
X154089276Y-81242018D01*
X154089276Y-81892018D01*
X153629276Y-81892018D01*
X153629276Y-81242018D01*
G36*
X153629276Y-81242018D02*
G01*
X154089276Y-81242018D01*
X154089276Y-81892018D01*
X153629276Y-81892018D01*
X153629276Y-81242018D01*
G37*
G04 #@! TO.C,JP18*
X288369276Y-106263146D02*
X288829276Y-106263146D01*
X288829276Y-106913146D01*
X288369276Y-106913146D01*
X288369276Y-106263146D01*
G36*
X288369276Y-106263146D02*
G01*
X288829276Y-106263146D01*
X288829276Y-106913146D01*
X288369276Y-106913146D01*
X288369276Y-106263146D01*
G37*
X289819276Y-106258146D02*
X290279276Y-106258146D01*
X290279276Y-106908146D01*
X289819276Y-106908146D01*
X289819276Y-106258146D01*
G36*
X289819276Y-106258146D02*
G01*
X290279276Y-106258146D01*
X290279276Y-106908146D01*
X289819276Y-106908146D01*
X289819276Y-106258146D01*
G37*
G04 #@! TO.C,JP32*
X152179276Y-82947018D02*
X152639276Y-82947018D01*
X152639276Y-83597018D01*
X152179276Y-83597018D01*
X152179276Y-82947018D01*
G36*
X152179276Y-82947018D02*
G01*
X152639276Y-82947018D01*
X152639276Y-83597018D01*
X152179276Y-83597018D01*
X152179276Y-82947018D01*
G37*
X153629276Y-82942018D02*
X154089276Y-82942018D01*
X154089276Y-83592018D01*
X153629276Y-83592018D01*
X153629276Y-82942018D01*
G36*
X153629276Y-82942018D02*
G01*
X154089276Y-82942018D01*
X154089276Y-83592018D01*
X153629276Y-83592018D01*
X153629276Y-82942018D01*
G37*
G04 #@! TO.C,JP2*
X82779276Y-69847018D02*
X83239276Y-69847018D01*
X83239276Y-70497018D01*
X82779276Y-70497018D01*
X82779276Y-69847018D01*
G36*
X82779276Y-69847018D02*
G01*
X83239276Y-69847018D01*
X83239276Y-70497018D01*
X82779276Y-70497018D01*
X82779276Y-69847018D01*
G37*
X84229276Y-69842018D02*
X84689276Y-69842018D01*
X84689276Y-70492018D01*
X84229276Y-70492018D01*
X84229276Y-69842018D01*
G36*
X84229276Y-69842018D02*
G01*
X84689276Y-69842018D01*
X84689276Y-70492018D01*
X84229276Y-70492018D01*
X84229276Y-69842018D01*
G37*
G04 #@! TO.C,JP35*
X152169276Y-88182018D02*
X152629276Y-88182018D01*
X152629276Y-88832018D01*
X152169276Y-88832018D01*
X152169276Y-88182018D01*
G36*
X152169276Y-88182018D02*
G01*
X152629276Y-88182018D01*
X152629276Y-88832018D01*
X152169276Y-88832018D01*
X152169276Y-88182018D01*
G37*
X153619276Y-88177018D02*
X154079276Y-88177018D01*
X154079276Y-88827018D01*
X153619276Y-88827018D01*
X153619276Y-88177018D01*
G36*
X153619276Y-88177018D02*
G01*
X154079276Y-88177018D01*
X154079276Y-88827018D01*
X153619276Y-88827018D01*
X153619276Y-88177018D01*
G37*
G04 #@! TO.C,JP16*
X285039276Y-106265646D02*
X285499276Y-106265646D01*
X285499276Y-106915646D01*
X285039276Y-106915646D01*
X285039276Y-106265646D01*
G36*
X285039276Y-106265646D02*
G01*
X285499276Y-106265646D01*
X285499276Y-106915646D01*
X285039276Y-106915646D01*
X285039276Y-106265646D01*
G37*
X286489276Y-106260646D02*
X286949276Y-106260646D01*
X286949276Y-106910646D01*
X286489276Y-106910646D01*
X286489276Y-106260646D01*
G36*
X286489276Y-106260646D02*
G01*
X286949276Y-106260646D01*
X286949276Y-106910646D01*
X286489276Y-106910646D01*
X286489276Y-106260646D01*
G37*
G04 #@! TO.C,JP27*
X281769276Y-101263146D02*
X282229276Y-101263146D01*
X282229276Y-101913146D01*
X281769276Y-101913146D01*
X281769276Y-101263146D01*
G36*
X281769276Y-101263146D02*
G01*
X282229276Y-101263146D01*
X282229276Y-101913146D01*
X281769276Y-101913146D01*
X281769276Y-101263146D01*
G37*
X283219276Y-101258146D02*
X283679276Y-101258146D01*
X283679276Y-101908146D01*
X283219276Y-101908146D01*
X283219276Y-101258146D01*
G36*
X283219276Y-101258146D02*
G01*
X283679276Y-101258146D01*
X283679276Y-101908146D01*
X283219276Y-101908146D01*
X283219276Y-101258146D01*
G37*
G04 #@! TO.C,JP14*
X285039276Y-113965646D02*
X285499276Y-113965646D01*
X285499276Y-114615646D01*
X285039276Y-114615646D01*
X285039276Y-113965646D01*
G36*
X285039276Y-113965646D02*
G01*
X285499276Y-113965646D01*
X285499276Y-114615646D01*
X285039276Y-114615646D01*
X285039276Y-113965646D01*
G37*
X286489276Y-113960646D02*
X286949276Y-113960646D01*
X286949276Y-114610646D01*
X286489276Y-114610646D01*
X286489276Y-113960646D01*
G36*
X286489276Y-113960646D02*
G01*
X286949276Y-113960646D01*
X286949276Y-114610646D01*
X286489276Y-114610646D01*
X286489276Y-113960646D01*
G37*
G04 #@! TO.C,JP22*
X284969276Y-98663146D02*
X285429276Y-98663146D01*
X285429276Y-99313146D01*
X284969276Y-99313146D01*
X284969276Y-98663146D01*
G36*
X284969276Y-98663146D02*
G01*
X285429276Y-98663146D01*
X285429276Y-99313146D01*
X284969276Y-99313146D01*
X284969276Y-98663146D01*
G37*
X286419276Y-98658146D02*
X286879276Y-98658146D01*
X286879276Y-99308146D01*
X286419276Y-99308146D01*
X286419276Y-98658146D01*
G36*
X286419276Y-98658146D02*
G01*
X286879276Y-98658146D01*
X286879276Y-99308146D01*
X286419276Y-99308146D01*
X286419276Y-98658146D01*
G37*
G04 #@! TO.C,JP9*
X281739276Y-108865646D02*
X282199276Y-108865646D01*
X282199276Y-109515646D01*
X281739276Y-109515646D01*
X281739276Y-108865646D01*
G36*
X281739276Y-108865646D02*
G01*
X282199276Y-108865646D01*
X282199276Y-109515646D01*
X281739276Y-109515646D01*
X281739276Y-108865646D01*
G37*
X283189276Y-108860646D02*
X283649276Y-108860646D01*
X283649276Y-109510646D01*
X283189276Y-109510646D01*
X283189276Y-108860646D01*
G36*
X283189276Y-108860646D02*
G01*
X283649276Y-108860646D01*
X283649276Y-109510646D01*
X283189276Y-109510646D01*
X283189276Y-108860646D01*
G37*
G04 #@! TO.C,JP29*
X288369276Y-101244274D02*
X288829276Y-101244274D01*
X288829276Y-101894274D01*
X288369276Y-101894274D01*
X288369276Y-101244274D01*
G36*
X288369276Y-101244274D02*
G01*
X288829276Y-101244274D01*
X288829276Y-101894274D01*
X288369276Y-101894274D01*
X288369276Y-101244274D01*
G37*
X289819276Y-101239274D02*
X290279276Y-101239274D01*
X290279276Y-101889274D01*
X289819276Y-101889274D01*
X289819276Y-101239274D01*
G36*
X289819276Y-101239274D02*
G01*
X290279276Y-101239274D01*
X290279276Y-101889274D01*
X289819276Y-101889274D01*
X289819276Y-101239274D01*
G37*
G04 #@! TO.C,JP20*
X285039276Y-116565646D02*
X285499276Y-116565646D01*
X285499276Y-117215646D01*
X285039276Y-117215646D01*
X285039276Y-116565646D01*
G36*
X285039276Y-116565646D02*
G01*
X285499276Y-116565646D01*
X285499276Y-117215646D01*
X285039276Y-117215646D01*
X285039276Y-116565646D01*
G37*
X286489276Y-116560646D02*
X286949276Y-116560646D01*
X286949276Y-117210646D01*
X286489276Y-117210646D01*
X286489276Y-116560646D01*
G36*
X286489276Y-116560646D02*
G01*
X286949276Y-116560646D01*
X286949276Y-117210646D01*
X286489276Y-117210646D01*
X286489276Y-116560646D01*
G37*
G04 #@! TO.C,JP3*
X281739276Y-103765646D02*
X282199276Y-103765646D01*
X282199276Y-104415646D01*
X281739276Y-104415646D01*
X281739276Y-103765646D01*
G36*
X281739276Y-103765646D02*
G01*
X282199276Y-103765646D01*
X282199276Y-104415646D01*
X281739276Y-104415646D01*
X281739276Y-103765646D01*
G37*
X283189276Y-103760646D02*
X283649276Y-103760646D01*
X283649276Y-104410646D01*
X283189276Y-104410646D01*
X283189276Y-103760646D01*
G36*
X283189276Y-103760646D02*
G01*
X283649276Y-103760646D01*
X283649276Y-104410646D01*
X283189276Y-104410646D01*
X283189276Y-103760646D01*
G37*
G04 #@! TO.C,JP36*
X276784276Y-111427018D02*
X277434276Y-111427018D01*
X277434276Y-111887018D01*
X276784276Y-111887018D01*
X276784276Y-111427018D01*
G36*
X276784276Y-111427018D02*
G01*
X277434276Y-111427018D01*
X277434276Y-111887018D01*
X276784276Y-111887018D01*
X276784276Y-111427018D01*
G37*
X276789276Y-112877018D02*
X277439276Y-112877018D01*
X277439276Y-113337018D01*
X276789276Y-113337018D01*
X276789276Y-112877018D01*
G36*
X276789276Y-112877018D02*
G01*
X277439276Y-112877018D01*
X277439276Y-113337018D01*
X276789276Y-113337018D01*
X276789276Y-112877018D01*
G37*
G04 #@! TO.C,JP30*
X152179276Y-79565890D02*
X152639276Y-79565890D01*
X152639276Y-80215890D01*
X152179276Y-80215890D01*
X152179276Y-79565890D01*
G36*
X152179276Y-79565890D02*
G01*
X152639276Y-79565890D01*
X152639276Y-80215890D01*
X152179276Y-80215890D01*
X152179276Y-79565890D01*
G37*
X153629276Y-79560890D02*
X154089276Y-79560890D01*
X154089276Y-80210890D01*
X153629276Y-80210890D01*
X153629276Y-79560890D01*
G36*
X153629276Y-79560890D02*
G01*
X154089276Y-79560890D01*
X154089276Y-80210890D01*
X153629276Y-80210890D01*
X153629276Y-79560890D01*
G37*
G04 #@! TO.C,JP5*
X128379276Y-134647018D02*
X128839276Y-134647018D01*
X128839276Y-135297018D01*
X128379276Y-135297018D01*
X128379276Y-134647018D01*
G36*
X128379276Y-134647018D02*
G01*
X128839276Y-134647018D01*
X128839276Y-135297018D01*
X128379276Y-135297018D01*
X128379276Y-134647018D01*
G37*
X129829276Y-134642018D02*
X130289276Y-134642018D01*
X130289276Y-135292018D01*
X129829276Y-135292018D01*
X129829276Y-134642018D01*
G36*
X129829276Y-134642018D02*
G01*
X130289276Y-134642018D01*
X130289276Y-135292018D01*
X129829276Y-135292018D01*
X129829276Y-134642018D01*
G37*
G04 #@! TO.C,JP24*
X288369276Y-98663146D02*
X288829276Y-98663146D01*
X288829276Y-99313146D01*
X288369276Y-99313146D01*
X288369276Y-98663146D01*
G36*
X288369276Y-98663146D02*
G01*
X288829276Y-98663146D01*
X288829276Y-99313146D01*
X288369276Y-99313146D01*
X288369276Y-98663146D01*
G37*
X289819276Y-98658146D02*
X290279276Y-98658146D01*
X290279276Y-99308146D01*
X289819276Y-99308146D01*
X289819276Y-98658146D01*
G36*
X289819276Y-98658146D02*
G01*
X290279276Y-98658146D01*
X290279276Y-99308146D01*
X289819276Y-99308146D01*
X289819276Y-98658146D01*
G37*
G04 #@! TD*
D11*
G04 #@! TO.C,D31*
X113479276Y-129787018D03*
X109179276Y-129787018D03*
G04 #@! TD*
D12*
G04 #@! TO.C,C11*
X133229276Y-119187018D03*
X133229276Y-117637018D03*
G04 #@! TD*
D13*
G04 #@! TO.C,R46*
X115324276Y-46837018D03*
X116974276Y-46837018D03*
G04 #@! TD*
G04 #@! TO.C,R141*
X110634276Y-59777018D03*
X112284276Y-59777018D03*
G04 #@! TD*
D14*
G04 #@! TO.C,R88*
X177999276Y-105897018D03*
X177999276Y-107547018D03*
G04 #@! TD*
D15*
G04 #@! TO.C,C76*
X153439276Y-116387018D03*
X153439276Y-117937018D03*
G04 #@! TD*
D16*
G04 #@! TO.C,U19*
X170579276Y-112187018D03*
X170579276Y-112687018D03*
X170579276Y-113187018D03*
X170579276Y-113687018D03*
X170579276Y-114187018D03*
X174879276Y-114187018D03*
X174879276Y-113687018D03*
X174879276Y-113187018D03*
X174879276Y-112687018D03*
X174879276Y-112187018D03*
G04 #@! TD*
D12*
G04 #@! TO.C,C23*
X98332199Y-112556166D03*
X98332199Y-111006166D03*
G04 #@! TD*
D17*
G04 #@! TO.C,C112*
X328729276Y-141052018D03*
X327179276Y-141052018D03*
G04 #@! TD*
D15*
G04 #@! TO.C,C24*
X276629276Y-108612018D03*
X276629276Y-110162018D03*
G04 #@! TD*
G04 #@! TO.C,C54*
X236449276Y-119852018D03*
X236449276Y-121402018D03*
G04 #@! TD*
D18*
G04 #@! TO.C,D46*
X236466776Y-53187018D03*
X234591776Y-53187018D03*
G04 #@! TD*
D14*
G04 #@! TO.C,R87*
X178029276Y-102787018D03*
X178029276Y-104437018D03*
G04 #@! TD*
D19*
G04 #@! TO.C,TR2*
X345879276Y-119637018D03*
D20*
X343339276Y-119637018D03*
X340799276Y-119637018D03*
X340799276Y-133877018D03*
X343339276Y-133877018D03*
X345879276Y-133877018D03*
G04 #@! TD*
D21*
G04 #@! TO.C,R108*
X152629276Y-126224518D03*
X152629276Y-129149518D03*
G04 #@! TD*
D22*
G04 #@! TO.C,C48*
X244969276Y-93527018D03*
X243069276Y-93527018D03*
G04 #@! TD*
D17*
G04 #@! TO.C,C15*
X103604276Y-104387018D03*
X102054276Y-104387018D03*
G04 #@! TD*
D23*
G04 #@! TO.C,R12*
X106854276Y-98487018D03*
X105204276Y-98487018D03*
G04 #@! TD*
D24*
G04 #@! TO.C,C67*
X174881776Y-101864518D03*
X176431776Y-101864518D03*
G04 #@! TD*
D12*
G04 #@! TO.C,C79*
X189029276Y-118162018D03*
X189029276Y-116612018D03*
G04 #@! TD*
D25*
G04 #@! TO.C,C64*
X231291776Y-132487018D03*
X233016776Y-132487018D03*
G04 #@! TD*
D26*
G04 #@! TO.C,R32*
X126891776Y-135087018D03*
X123966776Y-135087018D03*
G04 #@! TD*
D27*
G04 #@! TO.C,R132*
X209369276Y-65700000D03*
X208349276Y-65700000D03*
G04 #@! TD*
D28*
G04 #@! TO.C,D25*
X71500000Y-129150000D03*
X71500000Y-124850000D03*
G04 #@! TD*
D27*
G04 #@! TO.C,R135*
X191389276Y-56577018D03*
X190369276Y-56577018D03*
G04 #@! TD*
D14*
G04 #@! TO.C,R42*
X264009276Y-74792018D03*
X264009276Y-76442018D03*
G04 #@! TD*
D18*
G04 #@! TO.C,D13*
X96491776Y-136287018D03*
X94616776Y-136287018D03*
G04 #@! TD*
D23*
G04 #@! TO.C,R137*
X231179276Y-95387018D03*
X229529276Y-95387018D03*
G04 #@! TD*
D13*
G04 #@! TO.C,R4*
X113804276Y-120387018D03*
X115454276Y-120387018D03*
G04 #@! TD*
D29*
G04 #@! TO.C,C17*
X83179276Y-107487018D03*
X85079276Y-107487018D03*
G04 #@! TD*
D30*
G04 #@! TO.C,U8*
X263904276Y-119219518D03*
X263904276Y-120489518D03*
X270154276Y-120489518D03*
X270154276Y-119219518D03*
G04 #@! TD*
D14*
G04 #@! TO.C,R20*
X260239276Y-71942018D03*
X260239276Y-73592018D03*
G04 #@! TD*
D15*
G04 #@! TO.C,C78*
X174939276Y-116537018D03*
X174939276Y-118087018D03*
G04 #@! TD*
D14*
G04 #@! TO.C,R30*
X277929276Y-101762018D03*
X277929276Y-103412018D03*
G04 #@! TD*
D31*
G04 #@! TO.C,C45*
X265229276Y-67607018D03*
X265229276Y-68567018D03*
G04 #@! TD*
D32*
G04 #@! TO.C,C4*
X116466922Y-103172018D03*
X116466922Y-105072018D03*
G04 #@! TD*
D14*
G04 #@! TO.C,R75*
X272629276Y-55062018D03*
X272629276Y-56712018D03*
G04 #@! TD*
D24*
G04 #@! TO.C,C20*
X280881776Y-126077018D03*
X282431776Y-126077018D03*
G04 #@! TD*
D23*
G04 #@! TO.C,R38*
X106754276Y-51987018D03*
X105104276Y-51987018D03*
G04 #@! TD*
D13*
G04 #@! TO.C,R16*
X90004276Y-104387018D03*
X91654276Y-104387018D03*
G04 #@! TD*
D21*
G04 #@! TO.C,R104*
X174029276Y-121624518D03*
X174029276Y-124549518D03*
G04 #@! TD*
G04 #@! TO.C,R113*
X163529276Y-126424518D03*
X163529276Y-129349518D03*
G04 #@! TD*
D33*
G04 #@! TO.C,D29*
X285429276Y-120787018D03*
X289729276Y-120787018D03*
G04 #@! TD*
D13*
G04 #@! TO.C,R2*
X113804276Y-117587018D03*
X115454276Y-117587018D03*
G04 #@! TD*
D23*
G04 #@! TO.C,R49*
X276279276Y-80387018D03*
X274629276Y-80387018D03*
G04 #@! TD*
D31*
G04 #@! TO.C,C65*
X254069276Y-68237018D03*
X254069276Y-69197018D03*
G04 #@! TD*
D21*
G04 #@! TO.C,R103*
X209729276Y-121749518D03*
X209729276Y-124674518D03*
G04 #@! TD*
D34*
G04 #@! TO.C,J11*
X302234276Y-69917018D03*
X302234276Y-69117018D03*
D35*
X302234276Y-67917018D03*
X302234276Y-66917018D03*
X302234276Y-66417018D03*
X302234276Y-65417018D03*
D34*
X302234276Y-64217018D03*
X302234276Y-63417018D03*
X302234276Y-63417018D03*
X302234276Y-64217018D03*
D35*
X302234276Y-64917018D03*
X302234276Y-65917018D03*
X302234276Y-67417018D03*
X302234276Y-68417018D03*
D34*
X302234276Y-69117018D03*
X302234276Y-69917018D03*
G04 #@! TD*
D13*
G04 #@! TO.C,R39*
X91634276Y-89967018D03*
X93284276Y-89967018D03*
G04 #@! TD*
D31*
G04 #@! TO.C,C85*
X180309276Y-67757018D03*
X180309276Y-68717018D03*
G04 #@! TD*
D13*
G04 #@! TO.C,R133*
X199629276Y-45287018D03*
X201279276Y-45287018D03*
G04 #@! TD*
D27*
G04 #@! TO.C,R94*
X176139276Y-83787018D03*
X175119276Y-83787018D03*
G04 #@! TD*
D36*
G04 #@! TO.C,R129*
X181439276Y-68777018D03*
X181439276Y-67757018D03*
G04 #@! TD*
D14*
G04 #@! TO.C,R25*
X101529276Y-107337018D03*
X101529276Y-108987018D03*
G04 #@! TD*
D18*
G04 #@! TO.C,D10*
X118966776Y-120487018D03*
X117091776Y-120487018D03*
G04 #@! TD*
D37*
G04 #@! TO.C,U5*
X262719276Y-102274518D03*
X262719276Y-104814518D03*
X262719276Y-107354518D03*
X262719276Y-109894518D03*
X271769276Y-109894518D03*
X271769276Y-107354518D03*
X271769276Y-104814518D03*
X271769276Y-102274518D03*
G04 #@! TD*
D12*
G04 #@! TO.C,C16*
X125451599Y-109422018D03*
X125451599Y-107872018D03*
G04 #@! TD*
D38*
G04 #@! TO.C,D2*
X76829276Y-124837018D03*
X76829276Y-129137018D03*
G04 #@! TD*
D39*
G04 #@! TO.C,FL2*
X126959276Y-132737018D03*
X123899276Y-132737018D03*
X123899276Y-131037018D03*
X126959276Y-131037018D03*
G04 #@! TD*
D13*
G04 #@! TO.C,R143*
X209675000Y-57000000D03*
X211325000Y-57000000D03*
G04 #@! TD*
G04 #@! TO.C,R69*
X229054276Y-124317018D03*
X230704276Y-124317018D03*
G04 #@! TD*
D40*
G04 #@! TO.C,D42*
X288029276Y-73887018D03*
X284029276Y-73887018D03*
G04 #@! TD*
D17*
G04 #@! TO.C,C26*
X122329276Y-133387018D03*
X120779276Y-133387018D03*
G04 #@! TD*
D18*
G04 #@! TO.C,D48*
X119966776Y-56387018D03*
X118091776Y-56387018D03*
G04 #@! TD*
D14*
G04 #@! TO.C,R40*
X87329276Y-48887018D03*
X87329276Y-50537018D03*
G04 #@! TD*
D41*
G04 #@! TO.C,C74*
X178391776Y-112887018D03*
X176666776Y-112887018D03*
G04 #@! TD*
D32*
G04 #@! TO.C,C5*
X134389276Y-74287018D03*
X134389276Y-76187018D03*
G04 #@! TD*
D42*
G04 #@! TO.C,C59*
X252082609Y-61190518D03*
X251122609Y-61190518D03*
G04 #@! TD*
D43*
G04 #@! TO.C,D35*
X92829276Y-86449518D03*
X92829276Y-88324518D03*
G04 #@! TD*
D13*
G04 #@! TO.C,R50*
X274604276Y-85587018D03*
X276254276Y-85587018D03*
G04 #@! TD*
D44*
G04 #@! TO.C,C56*
X261009276Y-56007018D03*
X261009276Y-55047018D03*
G04 #@! TD*
D17*
G04 #@! TO.C,C97*
X224729276Y-101787018D03*
X223179276Y-101787018D03*
G04 #@! TD*
D44*
G04 #@! TO.C,C88*
X182429276Y-55467018D03*
X182429276Y-54507018D03*
G04 #@! TD*
D45*
G04 #@! TO.C,R52*
X130609276Y-49924518D03*
X130609276Y-51749518D03*
G04 #@! TD*
D23*
G04 #@! TO.C,R83*
X115554276Y-65687018D03*
X113904276Y-65687018D03*
G04 #@! TD*
D29*
G04 #@! TO.C,C33*
X123901599Y-99247018D03*
X125801599Y-99247018D03*
G04 #@! TD*
D34*
G04 #@! TO.C,J19*
X302229276Y-54817018D03*
X302229276Y-54017018D03*
D35*
X302229276Y-52817018D03*
X302229276Y-51817018D03*
X302229276Y-51317018D03*
X302229276Y-50317018D03*
D34*
X302229276Y-49117018D03*
X302229276Y-48317018D03*
X302229276Y-48317018D03*
X302229276Y-49117018D03*
D35*
X302229276Y-49817018D03*
X302229276Y-50817018D03*
X302229276Y-52317018D03*
X302229276Y-53317018D03*
D34*
X302229276Y-54017018D03*
X302229276Y-54817018D03*
G04 #@! TD*
D24*
G04 #@! TO.C,C89*
X223179276Y-97987018D03*
X224729276Y-97987018D03*
G04 #@! TD*
D17*
G04 #@! TO.C,C96*
X224729276Y-100287018D03*
X223179276Y-100287018D03*
G04 #@! TD*
D46*
G04 #@! TO.C,U24*
X324929276Y-148897018D03*
X324929276Y-147627018D03*
X324929276Y-146357018D03*
X324929276Y-145087018D03*
X324929276Y-143817018D03*
X324929276Y-142547018D03*
X324929276Y-141277018D03*
X324929276Y-140007018D03*
X319979276Y-140007018D03*
X319979276Y-141277018D03*
X319979276Y-142547018D03*
X319979276Y-143817018D03*
X319979276Y-145087018D03*
X319979276Y-146357018D03*
X319979276Y-147627018D03*
X319979276Y-148897018D03*
G04 #@! TD*
D24*
G04 #@! TO.C,C18*
X129854276Y-131387018D03*
X131404276Y-131387018D03*
G04 #@! TD*
D18*
G04 #@! TO.C,D8*
X118929276Y-117587018D03*
X117054276Y-117587018D03*
G04 #@! TD*
D13*
G04 #@! TO.C,R80*
X297804276Y-64887018D03*
X299454276Y-64887018D03*
G04 #@! TD*
D47*
G04 #@! TO.C,R5*
X106629276Y-70787018D03*
X106629276Y-69137018D03*
G04 #@! TD*
D14*
G04 #@! TO.C,R97*
X208929276Y-116487018D03*
X208929276Y-118137018D03*
G04 #@! TD*
D48*
G04 #@! TO.C,D15*
X104529276Y-115787018D03*
X104529276Y-119787018D03*
G04 #@! TD*
D23*
G04 #@! TO.C,R84*
X233054276Y-133987018D03*
X231404276Y-133987018D03*
G04 #@! TD*
D13*
G04 #@! TO.C,R72*
X229044276Y-122677018D03*
X230694276Y-122677018D03*
G04 #@! TD*
D33*
G04 #@! TO.C,D6*
X95079276Y-120587018D03*
X99379276Y-120587018D03*
G04 #@! TD*
D49*
G04 #@! TO.C,U3*
X124310922Y-106171018D03*
X124310922Y-104901018D03*
X124310922Y-103631018D03*
X124310922Y-102361018D03*
X118910922Y-102361018D03*
X118910922Y-103631018D03*
X118910922Y-104901018D03*
X118910922Y-106171018D03*
D50*
X121610922Y-104266018D03*
G04 #@! TD*
D47*
G04 #@! TO.C,R99*
X187429276Y-118212018D03*
X187429276Y-116562018D03*
G04 #@! TD*
D21*
G04 #@! TO.C,R124*
X199029276Y-135749518D03*
X199029276Y-138674518D03*
G04 #@! TD*
D17*
G04 #@! TO.C,C34*
X103104276Y-88887018D03*
X101554276Y-88887018D03*
G04 #@! TD*
D21*
G04 #@! TO.C,R102*
X152629276Y-121524518D03*
X152629276Y-124449518D03*
G04 #@! TD*
D13*
G04 #@! TO.C,R22*
X281561776Y-124187018D03*
X283211776Y-124187018D03*
G04 #@! TD*
D21*
G04 #@! TO.C,R125*
X163529276Y-135824518D03*
X163529276Y-138749518D03*
G04 #@! TD*
D15*
G04 #@! TO.C,C91*
X232754276Y-92012018D03*
X232754276Y-93562018D03*
G04 #@! TD*
D38*
G04 #@! TO.C,D3*
X76829276Y-117187018D03*
X76829276Y-121487018D03*
G04 #@! TD*
D51*
G04 #@! TO.C,D36*
X87329276Y-54049518D03*
X87329276Y-52174518D03*
G04 #@! TD*
D43*
G04 #@! TO.C,D19*
X91329276Y-100449518D03*
X91329276Y-102324518D03*
G04 #@! TD*
D47*
G04 #@! TO.C,R76*
X272584276Y-60007018D03*
X272584276Y-58357018D03*
G04 #@! TD*
D52*
G04 #@! TO.C,L3*
X132302922Y-101016018D03*
X132302922Y-110516018D03*
G04 #@! TD*
D27*
G04 #@! TO.C,R128*
X193399276Y-62667018D03*
X192379276Y-62667018D03*
G04 #@! TD*
D42*
G04 #@! TO.C,C46*
X252339276Y-63267018D03*
X251379276Y-63267018D03*
G04 #@! TD*
D34*
G04 #@! TO.C,J9*
X302334276Y-85037018D03*
X302334276Y-84237018D03*
D35*
X302334276Y-83037018D03*
X302334276Y-82037018D03*
X302334276Y-81537018D03*
X302334276Y-80537018D03*
D34*
X302334276Y-79337018D03*
X302334276Y-78537018D03*
X302334276Y-78537018D03*
X302334276Y-79337018D03*
D35*
X302334276Y-80037018D03*
X302334276Y-81037018D03*
X302334276Y-82537018D03*
X302334276Y-83537018D03*
D34*
X302334276Y-84237018D03*
X302334276Y-85037018D03*
G04 #@! TD*
D33*
G04 #@! TO.C,D30*
X109179276Y-134387018D03*
X113479276Y-134387018D03*
G04 #@! TD*
D12*
G04 #@! TO.C,C77*
X210529276Y-118087018D03*
X210529276Y-116537018D03*
G04 #@! TD*
D22*
G04 #@! TO.C,C49*
X245469276Y-105317018D03*
X243569276Y-105317018D03*
G04 #@! TD*
D27*
G04 #@! TO.C,R74*
X266049276Y-58667018D03*
X265029276Y-58667018D03*
G04 #@! TD*
D17*
G04 #@! TO.C,C22*
X260194276Y-75127018D03*
X258644276Y-75127018D03*
G04 #@! TD*
D27*
G04 #@! TO.C,R27*
X123851599Y-100947018D03*
X122831599Y-100947018D03*
G04 #@! TD*
D53*
G04 #@! TO.C,C93*
X190649276Y-59227018D03*
X191609276Y-59227018D03*
G04 #@! TD*
D28*
G04 #@! TO.C,D24*
X71529276Y-121450000D03*
X71529276Y-117150000D03*
G04 #@! TD*
D13*
G04 #@! TO.C,R47*
X115209276Y-48897018D03*
X116859276Y-48897018D03*
G04 #@! TD*
D47*
G04 #@! TO.C,R73*
X236629276Y-125512018D03*
X236629276Y-123862018D03*
G04 #@! TD*
D12*
G04 #@! TO.C,C25*
X274729276Y-110162018D03*
X274729276Y-108612018D03*
G04 #@! TD*
D47*
G04 #@! TO.C,R21*
X258639276Y-73587018D03*
X258639276Y-71937018D03*
G04 #@! TD*
D14*
G04 #@! TO.C,R134*
X193029276Y-52062018D03*
X193029276Y-53712018D03*
G04 #@! TD*
D23*
G04 #@! TO.C,R48*
X276279276Y-82887018D03*
X274629276Y-82887018D03*
G04 #@! TD*
D44*
G04 #@! TO.C,C100*
X186429276Y-55447018D03*
X186429276Y-54487018D03*
G04 #@! TD*
D47*
G04 #@! TO.C,R41*
X265539276Y-74892018D03*
X265539276Y-73242018D03*
G04 #@! TD*
D21*
G04 #@! TO.C,R107*
X163529276Y-121724518D03*
X163529276Y-124649518D03*
G04 #@! TD*
D54*
G04 #@! TO.C,Q4*
X101329276Y-54487018D03*
X101329276Y-53387018D03*
X101329276Y-52287018D03*
X101319276Y-55587018D03*
X100389276Y-55587018D03*
X100389276Y-54487018D03*
X100389276Y-53387018D03*
X100389276Y-52287018D03*
X99409276Y-55587018D03*
X99409276Y-54487018D03*
X99409276Y-53387018D03*
X99409276Y-52287018D03*
X98429276Y-55587018D03*
X98429276Y-54487018D03*
X98429276Y-53387018D03*
X98429276Y-52287018D03*
D55*
X103409276Y-55842018D03*
X103409276Y-54572018D03*
X103409276Y-53302018D03*
X103409276Y-52032018D03*
D56*
X97569276Y-55842018D03*
X97569276Y-54572018D03*
X97569276Y-53302018D03*
X97569276Y-52032018D03*
G04 #@! TD*
D31*
G04 #@! TO.C,C83*
X184729276Y-67657018D03*
X184729276Y-68617018D03*
G04 #@! TD*
D46*
G04 #@! TO.C,U11*
X114204276Y-71092018D03*
X114204276Y-69822018D03*
X114204276Y-68552018D03*
X114204276Y-67282018D03*
X109254276Y-67282018D03*
X109254276Y-68552018D03*
X109254276Y-69822018D03*
X109254276Y-71092018D03*
G04 #@! TD*
D57*
G04 #@! TO.C,U21*
X231059276Y-88312018D03*
X229789276Y-88312018D03*
X228519276Y-88312018D03*
X227249276Y-88312018D03*
X227249276Y-93262018D03*
X228519276Y-93262018D03*
X229789276Y-93262018D03*
X231059276Y-93262018D03*
G04 #@! TD*
D31*
G04 #@! TO.C,C71*
X175119276Y-61737018D03*
X175119276Y-62697018D03*
G04 #@! TD*
D58*
G04 #@! TO.C,SW4*
X165739276Y-76027018D03*
X165739276Y-82027018D03*
X161989276Y-76027018D03*
X161989276Y-82027018D03*
G04 #@! TD*
D12*
G04 #@! TO.C,C41*
X119879276Y-47712018D03*
X119879276Y-46162018D03*
G04 #@! TD*
D27*
G04 #@! TO.C,R26*
X125761599Y-100947018D03*
X124741599Y-100947018D03*
G04 #@! TD*
D17*
G04 #@! TO.C,C2*
X112404276Y-65687018D03*
X110854276Y-65687018D03*
G04 #@! TD*
D27*
G04 #@! TO.C,R53*
X252139276Y-62287018D03*
X251119276Y-62287018D03*
G04 #@! TD*
D43*
G04 #@! TO.C,D32*
X148969276Y-58449518D03*
X148969276Y-60324518D03*
G04 #@! TD*
D13*
G04 #@! TO.C,R8*
X260304276Y-119187018D03*
X261954276Y-119187018D03*
G04 #@! TD*
D21*
G04 #@! TO.C,R119*
X163529276Y-131124518D03*
X163529276Y-134049518D03*
G04 #@! TD*
D24*
G04 #@! TO.C,C106*
X323354276Y-129787018D03*
X324904276Y-129787018D03*
G04 #@! TD*
D14*
G04 #@! TO.C,R18*
X101532199Y-110956166D03*
X101532199Y-112606166D03*
G04 #@! TD*
D53*
G04 #@! TO.C,C53*
X265052609Y-59800518D03*
X266012609Y-59800518D03*
G04 #@! TD*
D15*
G04 #@! TO.C,C80*
X199829276Y-116437018D03*
X199829276Y-117987018D03*
G04 #@! TD*
D57*
G04 #@! TO.C,U16*
X234694776Y-115085018D03*
X233424776Y-115085018D03*
X232154776Y-115085018D03*
X230884776Y-115085018D03*
X230884776Y-120035018D03*
X232154776Y-120035018D03*
X233424776Y-120035018D03*
X234694776Y-120035018D03*
G04 #@! TD*
D21*
G04 #@! TO.C,R109*
X209729276Y-126549518D03*
X209729276Y-129474518D03*
G04 #@! TD*
D14*
G04 #@! TO.C,R140*
X114729276Y-55162018D03*
X114729276Y-56812018D03*
G04 #@! TD*
D31*
G04 #@! TO.C,C52*
X263229276Y-68217018D03*
X263229276Y-69177018D03*
G04 #@! TD*
D23*
G04 #@! TO.C,R77*
X115454276Y-88087018D03*
X113804276Y-88087018D03*
G04 #@! TD*
D47*
G04 #@! TO.C,R29*
X149099276Y-63682018D03*
X149099276Y-62032018D03*
G04 #@! TD*
D24*
G04 #@! TO.C,C104*
X254225000Y-124000000D03*
X255775000Y-124000000D03*
G04 #@! TD*
D21*
G04 #@! TO.C,R115*
X209729276Y-131249518D03*
X209729276Y-134174518D03*
G04 #@! TD*
D42*
G04 #@! TO.C,C84*
X177449276Y-62757018D03*
X176489276Y-62757018D03*
G04 #@! TD*
D33*
G04 #@! TO.C,D28*
X278079276Y-120787018D03*
X282379276Y-120787018D03*
G04 #@! TD*
D21*
G04 #@! TO.C,R122*
X174029276Y-135699518D03*
X174029276Y-138624518D03*
G04 #@! TD*
D38*
G04 #@! TO.C,D1*
X76829276Y-132537018D03*
X76829276Y-136837018D03*
G04 #@! TD*
D54*
G04 #@! TO.C,Q3*
X101529276Y-85487018D03*
X101529276Y-84387018D03*
X101529276Y-83287018D03*
X101519276Y-86587018D03*
X100589276Y-86587018D03*
X100589276Y-85487018D03*
X100589276Y-84387018D03*
X100589276Y-83287018D03*
X99609276Y-86587018D03*
X99609276Y-85487018D03*
X99609276Y-84387018D03*
X99609276Y-83287018D03*
X98629276Y-86587018D03*
X98629276Y-85487018D03*
X98629276Y-84387018D03*
X98629276Y-83287018D03*
D55*
X103609276Y-86842018D03*
X103609276Y-85572018D03*
X103609276Y-84302018D03*
X103609276Y-83032018D03*
D56*
X97769276Y-86842018D03*
X97769276Y-85572018D03*
X97769276Y-84302018D03*
X97769276Y-83032018D03*
G04 #@! TD*
D59*
G04 #@! TO.C,FB3*
X241904276Y-128287018D03*
X240154276Y-128287018D03*
G04 #@! TD*
D60*
G04 #@! TO.C,L6*
X192421066Y-63887018D03*
X192421066Y-65287018D03*
G04 #@! TD*
D28*
G04 #@! TO.C,D26*
X71500000Y-136887018D03*
X71500000Y-132587018D03*
G04 #@! TD*
D23*
G04 #@! TO.C,R66*
X235354276Y-112587018D03*
X233704276Y-112587018D03*
G04 #@! TD*
D22*
G04 #@! TO.C,C7*
X261779276Y-80387018D03*
X259879276Y-80387018D03*
G04 #@! TD*
D61*
G04 #@! TO.C,U2*
X136949276Y-69987018D03*
X136949276Y-72287018D03*
D62*
X143249276Y-72287018D03*
D61*
X136949276Y-74587018D03*
G04 #@! TD*
D63*
G04 #@! TO.C,D16*
X88229276Y-74287018D03*
X88229276Y-70287018D03*
G04 #@! TD*
D31*
G04 #@! TO.C,C44*
X258959276Y-68887018D03*
X258959276Y-69847018D03*
G04 #@! TD*
D42*
G04 #@! TO.C,C102*
X178109276Y-58747018D03*
X177149276Y-58747018D03*
G04 #@! TD*
D27*
G04 #@! TO.C,R92*
X177839276Y-61787018D03*
X176819276Y-61787018D03*
G04 #@! TD*
D53*
G04 #@! TO.C,C86*
X190249276Y-61487018D03*
X191209276Y-61487018D03*
G04 #@! TD*
D23*
G04 #@! TO.C,R81*
X115354276Y-72887018D03*
X113704276Y-72887018D03*
G04 #@! TD*
D64*
G04 #@! TO.C,C66*
X174219276Y-99464518D03*
X176294276Y-99464518D03*
G04 #@! TD*
D21*
G04 #@! TO.C,R114*
X152629276Y-130924518D03*
X152629276Y-133849518D03*
G04 #@! TD*
D36*
G04 #@! TO.C,R130*
X182579276Y-68777018D03*
X182579276Y-67757018D03*
G04 #@! TD*
D65*
G04 #@! TO.C,C43*
X265529276Y-64672018D03*
X265529276Y-65702018D03*
G04 #@! TD*
D23*
G04 #@! TO.C,R33*
X289554276Y-92087018D03*
X287904276Y-92087018D03*
G04 #@! TD*
D32*
G04 #@! TO.C,C21*
X279829276Y-93637018D03*
X279829276Y-95537018D03*
G04 #@! TD*
D13*
G04 #@! TO.C,R139*
X297854276Y-49797018D03*
X299504276Y-49797018D03*
G04 #@! TD*
D66*
G04 #@! TO.C,R51*
X130619276Y-48249518D03*
X130619276Y-46424518D03*
G04 #@! TD*
D67*
G04 #@! TO.C,C95*
X215929276Y-106487018D03*
X215929276Y-103537018D03*
G04 #@! TD*
D42*
G04 #@! TO.C,C61*
X252009276Y-58887018D03*
X251049276Y-58887018D03*
G04 #@! TD*
D44*
G04 #@! TO.C,C39*
X249729276Y-61567018D03*
X249729276Y-60607018D03*
G04 #@! TD*
D29*
G04 #@! TO.C,C12*
X255679276Y-91687018D03*
X257579276Y-91687018D03*
G04 #@! TD*
D63*
G04 #@! TO.C,D37*
X88929276Y-88887018D03*
X88929276Y-84887018D03*
G04 #@! TD*
D29*
G04 #@! TO.C,C69*
X174406776Y-105164518D03*
X176306776Y-105164518D03*
G04 #@! TD*
D67*
G04 #@! TO.C,C94*
X219429276Y-106587018D03*
X219429276Y-103637018D03*
G04 #@! TD*
D15*
G04 #@! TO.C,C10*
X260029276Y-102512018D03*
X260029276Y-104062018D03*
G04 #@! TD*
D16*
G04 #@! TO.C,U18*
X187479276Y-112087018D03*
X187479276Y-112587018D03*
X187479276Y-113087018D03*
X187479276Y-113587018D03*
X187479276Y-114087018D03*
X191779276Y-114087018D03*
X191779276Y-113587018D03*
X191779276Y-113087018D03*
X191779276Y-112587018D03*
X191779276Y-112087018D03*
G04 #@! TD*
D58*
G04 #@! TO.C,SW1*
X229997609Y-45450518D03*
X229997609Y-51450518D03*
X226247609Y-45450518D03*
X226247609Y-51450518D03*
G04 #@! TD*
D68*
G04 #@! TO.C,R95*
X161429276Y-69577018D03*
X161429276Y-70597018D03*
G04 #@! TD*
D21*
G04 #@! TO.C,R105*
X188329276Y-121824518D03*
X188329276Y-124749518D03*
G04 #@! TD*
D14*
G04 #@! TO.C,R150*
X330454276Y-141102018D03*
X330454276Y-142752018D03*
G04 #@! TD*
D44*
G04 #@! TO.C,C75*
X184429276Y-55367018D03*
X184429276Y-54407018D03*
G04 #@! TD*
D31*
G04 #@! TO.C,C92*
X183699276Y-67657018D03*
X183699276Y-68617018D03*
G04 #@! TD*
D43*
G04 #@! TO.C,D27*
X151469276Y-58449518D03*
X151469276Y-60324518D03*
G04 #@! TD*
D46*
G04 #@! TO.C,U22*
X220779276Y-101797018D03*
X220779276Y-100527018D03*
X220779276Y-99257018D03*
X220779276Y-97987018D03*
X220779276Y-96717018D03*
X220779276Y-95447018D03*
X220779276Y-94177018D03*
X220779276Y-92907018D03*
X215829276Y-92907018D03*
X215829276Y-94177018D03*
X215829276Y-95447018D03*
X215829276Y-96717018D03*
X215829276Y-97987018D03*
X215829276Y-99257018D03*
X215829276Y-100527018D03*
X215829276Y-101797018D03*
G04 #@! TD*
D30*
G04 #@! TO.C,U12*
X121804276Y-46332018D03*
X121804276Y-47602018D03*
X128054276Y-47602018D03*
X128054276Y-46332018D03*
G04 #@! TD*
D23*
G04 #@! TO.C,R6*
X96279276Y-134387018D03*
X94629276Y-134387018D03*
G04 #@! TD*
D63*
G04 #@! TO.C,D20*
X86829276Y-104387018D03*
X86829276Y-100387018D03*
G04 #@! TD*
D69*
G04 #@! TO.C,D34*
X121714099Y-85547018D03*
X123589099Y-85547018D03*
G04 #@! TD*
D46*
G04 #@! TO.C,U1*
X114204276Y-86492018D03*
X114204276Y-85222018D03*
X114204276Y-83952018D03*
X114204276Y-82682018D03*
X109254276Y-82682018D03*
X109254276Y-83952018D03*
X109254276Y-85222018D03*
X109254276Y-86492018D03*
G04 #@! TD*
D31*
G04 #@! TO.C,C51*
X257929276Y-69027018D03*
X257929276Y-69987018D03*
G04 #@! TD*
D70*
G04 #@! TO.C,U23*
X321254276Y-131482018D03*
X321254276Y-132752018D03*
X321254276Y-134022018D03*
X321254276Y-135292018D03*
X326204276Y-135292018D03*
X326204276Y-134022018D03*
X326204276Y-132752018D03*
X326204276Y-131482018D03*
G04 #@! TD*
D71*
G04 #@! TO.C,U10*
X131439276Y-119462018D03*
X128899276Y-119462018D03*
X126359276Y-119462018D03*
X123819276Y-119462018D03*
X123819276Y-128512018D03*
X126359276Y-128512018D03*
X128899276Y-128512018D03*
X131439276Y-128512018D03*
G04 #@! TD*
D51*
G04 #@! TO.C,D45*
X226159276Y-124704518D03*
X226159276Y-122829518D03*
G04 #@! TD*
D17*
G04 #@! TO.C,C57*
X232104276Y-130987018D03*
X230554276Y-130987018D03*
G04 #@! TD*
D22*
G04 #@! TO.C,C37*
X281579276Y-71987018D03*
X279679276Y-71987018D03*
G04 #@! TD*
D23*
G04 #@! TO.C,R136*
X227979276Y-95387018D03*
X226329276Y-95387018D03*
G04 #@! TD*
D72*
G04 #@! TO.C,J20*
X271829274Y-144204317D03*
X273829276Y-144204317D03*
D73*
X265729147Y-150924317D03*
X278929151Y-150924317D03*
G04 #@! TD*
D17*
G04 #@! TO.C,C29*
X112504276Y-81087018D03*
X110954276Y-81087018D03*
G04 #@! TD*
D21*
G04 #@! TO.C,R120*
X152629276Y-135724518D03*
X152629276Y-138649518D03*
G04 #@! TD*
D43*
G04 #@! TO.C,D14*
X91329276Y-71212018D03*
X91329276Y-73087018D03*
G04 #@! TD*
D33*
G04 #@! TO.C,D4*
X95079276Y-129987018D03*
X99379276Y-129987018D03*
G04 #@! TD*
D74*
G04 #@! TO.C,FB5*
X178056776Y-99389518D03*
X178056776Y-101139518D03*
G04 #@! TD*
D32*
G04 #@! TO.C,C6*
X114101599Y-103207018D03*
X114101599Y-105107018D03*
G04 #@! TD*
D44*
G04 #@! TO.C,C70*
X175129276Y-60767018D03*
X175129276Y-59807018D03*
G04 #@! TD*
D47*
G04 #@! TO.C,R34*
X106729276Y-86312018D03*
X106729276Y-84662018D03*
G04 #@! TD*
D31*
G04 #@! TO.C,C50*
X264229276Y-68207018D03*
X264229276Y-69167018D03*
G04 #@! TD*
D69*
G04 #@! TO.C,D33*
X284291776Y-92087018D03*
X286166776Y-92087018D03*
G04 #@! TD*
G04 #@! TO.C,D9*
X255211776Y-108757018D03*
X257086776Y-108757018D03*
G04 #@! TD*
D13*
G04 #@! TO.C,R138*
X297944276Y-53047018D03*
X299594276Y-53047018D03*
G04 #@! TD*
D24*
G04 #@! TO.C,C105*
X319754276Y-150552018D03*
X321304276Y-150552018D03*
G04 #@! TD*
D13*
G04 #@! TO.C,R9*
X260204276Y-122587018D03*
X261854276Y-122587018D03*
G04 #@! TD*
D75*
G04 #@! TO.C,Y2*
X173429276Y-60537018D03*
X171229276Y-60537018D03*
X171229276Y-62237018D03*
X173429276Y-62237018D03*
G04 #@! TD*
D31*
G04 #@! TO.C,C82*
X190529276Y-66927018D03*
X190529276Y-67887018D03*
G04 #@! TD*
D23*
G04 #@! TO.C,R57*
X234154276Y-111087018D03*
X232504276Y-111087018D03*
G04 #@! TD*
D17*
G04 #@! TO.C,C13*
X103104276Y-73387018D03*
X101554276Y-73387018D03*
G04 #@! TD*
D15*
G04 #@! TO.C,C9*
X134699276Y-70312018D03*
X134699276Y-71862018D03*
G04 #@! TD*
D76*
G04 #@! TO.C,D44*
X282600000Y-66000000D03*
X286600000Y-66000000D03*
G04 #@! TD*
D69*
G04 #@! TO.C,D49*
X209600000Y-59100000D03*
X211475000Y-59100000D03*
G04 #@! TD*
D21*
G04 #@! TO.C,R117*
X188329276Y-131124518D03*
X188329276Y-134049518D03*
G04 #@! TD*
D77*
G04 #@! TO.C,U20*
X184895943Y-60887018D03*
X183495943Y-60887018D03*
X184895943Y-62287018D03*
X183495943Y-62287018D03*
D78*
X187995943Y-56690518D03*
X187595943Y-56690518D03*
X187195943Y-56690518D03*
X186795943Y-56690518D03*
X186395943Y-56690518D03*
X185995943Y-56690518D03*
X185595943Y-56690518D03*
X185195943Y-56690518D03*
X184795943Y-56690518D03*
X184395943Y-56690518D03*
X183995943Y-56690518D03*
X183595943Y-56690518D03*
X183195943Y-56690518D03*
X182795943Y-56690518D03*
X182395943Y-56690518D03*
X181995943Y-56690518D03*
X181595943Y-56690518D03*
X181195943Y-56690518D03*
X180795943Y-56690518D03*
X180395943Y-56690518D03*
D79*
X179299443Y-57787018D03*
X179299443Y-58187018D03*
X179299443Y-58587018D03*
X179299443Y-58987018D03*
X179299443Y-59387018D03*
X179299443Y-59787018D03*
X179299443Y-60187018D03*
X179299443Y-60587018D03*
X179299443Y-60987018D03*
X179299443Y-61387018D03*
X179299443Y-61787018D03*
X179299443Y-62187018D03*
X179299443Y-62587018D03*
X179299443Y-62987018D03*
X179299443Y-63387018D03*
X179299443Y-63787018D03*
X179299443Y-64187018D03*
X179299443Y-64587018D03*
X179299443Y-64987018D03*
X179299443Y-65387018D03*
D78*
X180395943Y-66483518D03*
X180795943Y-66483518D03*
X181195943Y-66483518D03*
X181595943Y-66483518D03*
X181995943Y-66483518D03*
X182395943Y-66483518D03*
X182795943Y-66483518D03*
X183195943Y-66483518D03*
X183595943Y-66483518D03*
X183995943Y-66483518D03*
X184395943Y-66483518D03*
X184795943Y-66483518D03*
X185195943Y-66483518D03*
X185595943Y-66483518D03*
X185995943Y-66483518D03*
X186395943Y-66483518D03*
X186795943Y-66483518D03*
X187195943Y-66483518D03*
X187595943Y-66483518D03*
X187995943Y-66483518D03*
D79*
X189092443Y-65387018D03*
X189092443Y-64987018D03*
X189092443Y-64587018D03*
X189092443Y-64187018D03*
X189092443Y-63787018D03*
X189092443Y-63387018D03*
X189092443Y-62987018D03*
X189092443Y-62587018D03*
X189092443Y-62187018D03*
X189092443Y-61787018D03*
X189092443Y-61387018D03*
X189092443Y-60987018D03*
X189092443Y-60587018D03*
X189092443Y-60187018D03*
X189092443Y-59787018D03*
X189092443Y-59387018D03*
X189092443Y-58987018D03*
X189092443Y-58587018D03*
X189092443Y-58187018D03*
X189092443Y-57787018D03*
D80*
X185329276Y-60453685D03*
X184195943Y-60453685D03*
X183062610Y-60453685D03*
X185329276Y-61587018D03*
X184195943Y-61587018D03*
X183062610Y-61587018D03*
X185329276Y-62720351D03*
X184195943Y-62720351D03*
X183062610Y-62720351D03*
G04 #@! TD*
D81*
G04 #@! TO.C,FL1*
X276479276Y-104057018D03*
X276479276Y-107117018D03*
X274779276Y-107117018D03*
X274779276Y-104057018D03*
G04 #@! TD*
D17*
G04 #@! TO.C,C98*
X224729276Y-95587018D03*
X223179276Y-95587018D03*
G04 #@! TD*
D24*
G04 #@! TO.C,C113*
X336629276Y-123687018D03*
X338179276Y-123687018D03*
G04 #@! TD*
D12*
G04 #@! TO.C,C42*
X119929276Y-51872018D03*
X119929276Y-50322018D03*
G04 #@! TD*
D65*
G04 #@! TO.C,C72*
X190929276Y-64072018D03*
X190929276Y-65102018D03*
G04 #@! TD*
D48*
G04 #@! TO.C,D50*
X134200000Y-80100000D03*
X134200000Y-84100000D03*
G04 #@! TD*
D23*
G04 #@! TO.C,R1*
X254854276Y-103987018D03*
X253204276Y-103987018D03*
G04 #@! TD*
D76*
G04 #@! TO.C,D23*
X118851599Y-109047018D03*
X122851599Y-109047018D03*
G04 #@! TD*
D42*
G04 #@! TO.C,C87*
X187609276Y-67887018D03*
X186649276Y-67887018D03*
G04 #@! TD*
D24*
G04 #@! TO.C,C19*
X276629276Y-126087018D03*
X278179276Y-126087018D03*
G04 #@! TD*
D31*
G04 #@! TO.C,C40*
X249729276Y-62507018D03*
X249729276Y-63467018D03*
G04 #@! TD*
D41*
G04 #@! TO.C,C73*
X195391776Y-112887018D03*
X193666776Y-112887018D03*
G04 #@! TD*
D82*
G04 #@! TO.C,R54*
X266199276Y-67667018D03*
X267219276Y-67667018D03*
G04 #@! TD*
D14*
G04 #@! TO.C,R142*
X228504276Y-98617017D03*
X228504276Y-100267017D03*
G04 #@! TD*
D21*
G04 #@! TO.C,R118*
X199029276Y-131049518D03*
X199029276Y-133974518D03*
G04 #@! TD*
D30*
G04 #@! TO.C,U13*
X121804276Y-50497018D03*
X121804276Y-51767018D03*
X128054276Y-51767018D03*
X128054276Y-50497018D03*
G04 #@! TD*
D54*
G04 #@! TO.C,Q1*
X101449276Y-69987018D03*
X101449276Y-68887018D03*
X101449276Y-67787018D03*
X101439276Y-71087018D03*
X100509276Y-71087018D03*
X100509276Y-69987018D03*
X100509276Y-68887018D03*
X100509276Y-67787018D03*
X99529276Y-71087018D03*
X99529276Y-69987018D03*
X99529276Y-68887018D03*
X99529276Y-67787018D03*
X98549276Y-71087018D03*
X98549276Y-69987018D03*
X98549276Y-68887018D03*
X98549276Y-67787018D03*
D55*
X103529276Y-71342018D03*
X103529276Y-70072018D03*
X103529276Y-68802018D03*
X103529276Y-67532018D03*
D56*
X97689276Y-71342018D03*
X97689276Y-70072018D03*
X97689276Y-68802018D03*
X97689276Y-67532018D03*
G04 #@! TD*
D83*
G04 #@! TO.C,U6*
X270179276Y-117057018D03*
X270179276Y-115787018D03*
X263929276Y-115787018D03*
X263929276Y-117057018D03*
G04 #@! TD*
D68*
G04 #@! TO.C,R93*
X191569276Y-66917018D03*
X191569276Y-67937018D03*
G04 #@! TD*
D52*
G04 #@! TO.C,L2*
X86329276Y-119037018D03*
X86329276Y-128537018D03*
G04 #@! TD*
D23*
G04 #@! TO.C,R3*
X254754276Y-110937018D03*
X253104276Y-110937018D03*
G04 #@! TD*
D13*
G04 #@! TO.C,R149*
X328479276Y-132722018D03*
X330129276Y-132722018D03*
G04 #@! TD*
D84*
G04 #@! TO.C,D21*
X102529276Y-93887018D03*
X95729276Y-93887018D03*
G04 #@! TD*
D22*
G04 #@! TO.C,C32*
X112619276Y-63887018D03*
X110719276Y-63887018D03*
G04 #@! TD*
D21*
G04 #@! TO.C,R112*
X199029276Y-126349518D03*
X199029276Y-129274518D03*
G04 #@! TD*
D31*
G04 #@! TO.C,C90*
X188629276Y-67807018D03*
X188629276Y-68767018D03*
G04 #@! TD*
D12*
G04 #@! TO.C,C103*
X230134276Y-100207017D03*
X230134276Y-98657017D03*
G04 #@! TD*
D85*
G04 #@! TO.C,R31*
X272566776Y-112387018D03*
X275491776Y-112387018D03*
G04 #@! TD*
D13*
G04 #@! TO.C,R11*
X91104276Y-74987018D03*
X92754276Y-74987018D03*
G04 #@! TD*
D18*
G04 #@! TO.C,D17*
X130596776Y-72417018D03*
X128721776Y-72417018D03*
G04 #@! TD*
D15*
G04 #@! TO.C,C109*
X328829276Y-144512018D03*
X328829276Y-146062018D03*
G04 #@! TD*
D21*
G04 #@! TO.C,R121*
X209729276Y-135849518D03*
X209729276Y-138774518D03*
G04 #@! TD*
D17*
G04 #@! TO.C,C28*
X275579276Y-102187018D03*
X274029276Y-102187018D03*
G04 #@! TD*
D48*
G04 #@! TO.C,D11*
X86129276Y-132587018D03*
X86129276Y-136587018D03*
G04 #@! TD*
D42*
G04 #@! TO.C,C101*
X177509276Y-60517018D03*
X176549276Y-60517018D03*
G04 #@! TD*
D36*
G04 #@! TO.C,R56*
X219529276Y-53797018D03*
X219529276Y-52777018D03*
G04 #@! TD*
D65*
G04 #@! TO.C,C68*
X190099276Y-64072018D03*
X190099276Y-65102018D03*
G04 #@! TD*
D48*
G04 #@! TO.C,D38*
X84229276Y-51487018D03*
X84229276Y-55487018D03*
G04 #@! TD*
D22*
G04 #@! TO.C,C3*
X112649276Y-79127018D03*
X110749276Y-79127018D03*
G04 #@! TD*
D13*
G04 #@! TO.C,R23*
X284136776Y-126097018D03*
X285786776Y-126097018D03*
G04 #@! TD*
D25*
G04 #@! TO.C,C62*
X233966776Y-129387018D03*
X235691776Y-129387018D03*
G04 #@! TD*
D21*
G04 #@! TO.C,R106*
X199029276Y-121649518D03*
X199029276Y-124574518D03*
G04 #@! TD*
D17*
G04 #@! TO.C,C35*
X103504276Y-57887018D03*
X101954276Y-57887018D03*
G04 #@! TD*
D58*
G04 #@! TO.C,SW3*
X172529276Y-75987018D03*
X172529276Y-81987018D03*
X168779276Y-75987018D03*
X168779276Y-81987018D03*
G04 #@! TD*
D47*
G04 #@! TO.C,R101*
X162729276Y-118212018D03*
X162729276Y-116562018D03*
G04 #@! TD*
D17*
G04 #@! TO.C,C111*
X328729276Y-142752018D03*
X327179276Y-142752018D03*
G04 #@! TD*
D86*
G04 #@! TO.C,L1*
X260929276Y-89112018D03*
X260929276Y-83062018D03*
G04 #@! TD*
D13*
G04 #@! TO.C,R89*
X187904276Y-99687018D03*
X189554276Y-99687018D03*
G04 #@! TD*
D87*
G04 #@! TO.C,R13*
X259716776Y-115687018D03*
X261541776Y-115687018D03*
G04 #@! TD*
D83*
G04 #@! TO.C,U7*
X270179276Y-113622018D03*
X270179276Y-112352018D03*
X263929276Y-112352018D03*
X263929276Y-113622018D03*
G04 #@! TD*
D84*
G04 #@! TO.C,D39*
X102329276Y-78287018D03*
X95529276Y-78287018D03*
G04 #@! TD*
D21*
G04 #@! TO.C,R110*
X174029276Y-126262018D03*
X174029276Y-129187018D03*
G04 #@! TD*
D44*
G04 #@! TO.C,C58*
X256509276Y-55737018D03*
X256509276Y-54777018D03*
G04 #@! TD*
D21*
G04 #@! TO.C,R116*
X174029276Y-130962018D03*
X174029276Y-133887018D03*
G04 #@! TD*
D17*
G04 #@! TO.C,C99*
X224729276Y-94087018D03*
X223179276Y-94087018D03*
G04 #@! TD*
D65*
G04 #@! TO.C,C38*
X264689276Y-64672018D03*
X264689276Y-65702018D03*
G04 #@! TD*
D23*
G04 #@! TO.C,R144*
X112254276Y-61447018D03*
X110604276Y-61447018D03*
G04 #@! TD*
D58*
G04 #@! TO.C,SW2*
X223207609Y-45490518D03*
X223207609Y-51490518D03*
X219457609Y-45490518D03*
X219457609Y-51490518D03*
G04 #@! TD*
D12*
G04 #@! TO.C,C30*
X99879276Y-108927018D03*
X99879276Y-107377018D03*
G04 #@! TD*
D47*
G04 #@! TO.C,R98*
X173379276Y-118137018D03*
X173379276Y-116487018D03*
G04 #@! TD*
D13*
G04 #@! TO.C,R148*
X328479276Y-134322018D03*
X330129276Y-134322018D03*
G04 #@! TD*
D82*
G04 #@! TO.C,R126*
X186609276Y-68967018D03*
X187629276Y-68967018D03*
G04 #@! TD*
D17*
G04 #@! TO.C,FB2*
X281504276Y-73887018D03*
X279954276Y-73887018D03*
G04 #@! TD*
D13*
G04 #@! TO.C,R79*
X297804276Y-67887018D03*
X299454276Y-67887018D03*
G04 #@! TD*
D27*
G04 #@! TO.C,R70*
X268029276Y-61587018D03*
X267009276Y-61587018D03*
G04 #@! TD*
D15*
G04 #@! TO.C,C110*
X330529276Y-144537018D03*
X330529276Y-146087018D03*
G04 #@! TD*
D21*
G04 #@! TO.C,R146*
X254400000Y-129237500D03*
X254400000Y-132162500D03*
G04 #@! TD*
D67*
G04 #@! TO.C,C108*
X337429276Y-151962018D03*
X337429276Y-149012018D03*
G04 #@! TD*
D82*
G04 #@! TO.C,R68*
X263209276Y-70107018D03*
X264229276Y-70107018D03*
G04 #@! TD*
D19*
G04 #@! TO.C,TR1*
X263140000Y-126580000D03*
D20*
X260600000Y-126580000D03*
X258060000Y-126580000D03*
X258060000Y-140820000D03*
X260600000Y-140820000D03*
X263140000Y-140820000D03*
G04 #@! TD*
D13*
G04 #@! TO.C,R90*
X187904276Y-98087018D03*
X189554276Y-98087018D03*
G04 #@! TD*
D69*
G04 #@! TO.C,D7*
X255231776Y-106217018D03*
X257106776Y-106217018D03*
G04 #@! TD*
D17*
G04 #@! TO.C,C60*
X232104276Y-129487018D03*
X230554276Y-129487018D03*
G04 #@! TD*
D12*
G04 #@! TO.C,C81*
X164329276Y-118162018D03*
X164329276Y-116612018D03*
G04 #@! TD*
D23*
G04 #@! TO.C,R7*
X106854276Y-67587018D03*
X105204276Y-67587018D03*
G04 #@! TD*
D27*
G04 #@! TO.C,R71*
X268039276Y-62587018D03*
X267019276Y-62587018D03*
G04 #@! TD*
D54*
G04 #@! TO.C,Q2*
X101549276Y-100987018D03*
X101549276Y-99887018D03*
X101549276Y-98787018D03*
X101539276Y-102087018D03*
X100609276Y-102087018D03*
X100609276Y-100987018D03*
X100609276Y-99887018D03*
X100609276Y-98787018D03*
X99629276Y-102087018D03*
X99629276Y-100987018D03*
X99629276Y-99887018D03*
X99629276Y-98787018D03*
X98649276Y-102087018D03*
X98649276Y-100987018D03*
X98649276Y-99887018D03*
X98649276Y-98787018D03*
D55*
X103629276Y-102342018D03*
X103629276Y-101072018D03*
X103629276Y-99802018D03*
X103629276Y-98532018D03*
D56*
X97789276Y-102342018D03*
X97789276Y-101072018D03*
X97789276Y-99802018D03*
X97789276Y-98532018D03*
G04 #@! TD*
D88*
G04 #@! TO.C,J14*
X241829276Y-143589319D03*
X233829276Y-143589319D03*
X242829275Y-143589319D03*
X240829275Y-143589319D03*
X238829277Y-143589319D03*
X236829275Y-143589319D03*
X234829277Y-143589319D03*
X232829276Y-143589319D03*
D89*
X228929276Y-150739320D03*
X246729276Y-150739320D03*
G04 #@! TD*
D13*
G04 #@! TO.C,R45*
X274604276Y-77287018D03*
X276254276Y-77287018D03*
G04 #@! TD*
D21*
G04 #@! TO.C,R123*
X188329276Y-135762018D03*
X188329276Y-138687018D03*
G04 #@! TD*
D67*
G04 #@! TO.C,C107*
X340129276Y-151962018D03*
X340129276Y-149012018D03*
G04 #@! TD*
D48*
G04 #@! TO.C,D12*
X81929276Y-132587018D03*
X81929276Y-136587018D03*
G04 #@! TD*
D27*
G04 #@! TO.C,R127*
X193409276Y-61687018D03*
X192389276Y-61687018D03*
G04 #@! TD*
D87*
G04 #@! TO.C,R14*
X259516776Y-112387018D03*
X261341776Y-112387018D03*
G04 #@! TD*
D12*
G04 #@! TO.C,C36*
X262389276Y-76482018D03*
X262389276Y-74932018D03*
G04 #@! TD*
D14*
G04 #@! TO.C,R19*
X99929276Y-110962018D03*
X99929276Y-112612018D03*
G04 #@! TD*
D44*
G04 #@! TO.C,C63*
X264919276Y-62237018D03*
X264919276Y-61277018D03*
G04 #@! TD*
D60*
G04 #@! TO.C,L4*
X267029276Y-64507018D03*
X267029276Y-65907018D03*
G04 #@! TD*
D90*
G04 #@! TO.C,FB1*
X281629276Y-94962018D03*
X281629276Y-93212018D03*
G04 #@! TD*
D18*
G04 #@! TO.C,D43*
X272466776Y-82787018D03*
X270591776Y-82787018D03*
G04 #@! TD*
D47*
G04 #@! TO.C,R28*
X151599276Y-63682018D03*
X151599276Y-62032018D03*
G04 #@! TD*
D23*
G04 #@! TO.C,R78*
X229554276Y-121087018D03*
X227904276Y-121087018D03*
G04 #@! TD*
D47*
G04 #@! TO.C,R36*
X106729276Y-55212018D03*
X106729276Y-53562018D03*
G04 #@! TD*
D23*
G04 #@! TO.C,R44*
X288801776Y-126087018D03*
X287151776Y-126087018D03*
G04 #@! TD*
D47*
G04 #@! TO.C,R100*
X198229276Y-118037018D03*
X198229276Y-116387018D03*
G04 #@! TD*
D18*
G04 #@! TO.C,D22*
X91029276Y-136187018D03*
X89154276Y-136187018D03*
G04 #@! TD*
D44*
G04 #@! TO.C,C47*
X259029276Y-56057018D03*
X259029276Y-55097018D03*
G04 #@! TD*
D91*
G04 #@! TO.C,D40*
X93329276Y-47887018D03*
X93329276Y-54687018D03*
G04 #@! TD*
D23*
G04 #@! TO.C,R35*
X126829276Y-85487018D03*
X125179276Y-85487018D03*
G04 #@! TD*
D84*
G04 #@! TO.C,D18*
X102729276Y-62887018D03*
X95929276Y-62887018D03*
G04 #@! TD*
D21*
G04 #@! TO.C,R145*
X266400000Y-135237500D03*
X266400000Y-138162500D03*
G04 #@! TD*
G04 #@! TO.C,R111*
X188329276Y-126462018D03*
X188329276Y-129387018D03*
G04 #@! TD*
D13*
G04 #@! TO.C,R15*
X128704276Y-70427018D03*
X130354276Y-70427018D03*
G04 #@! TD*
D47*
G04 #@! TO.C,R96*
X151829276Y-117987018D03*
X151829276Y-116337018D03*
G04 #@! TD*
D14*
G04 #@! TO.C,R24*
X98209276Y-107312018D03*
X98209276Y-108962018D03*
G04 #@! TD*
D12*
G04 #@! TO.C,C114*
X337729276Y-120762018D03*
X337729276Y-119212018D03*
G04 #@! TD*
D24*
G04 #@! TO.C,C27*
X120754276Y-131087018D03*
X122304276Y-131087018D03*
G04 #@! TD*
D47*
G04 #@! TO.C,R10*
X106829276Y-101612018D03*
X106829276Y-99962018D03*
G04 #@! TD*
D22*
G04 #@! TO.C,C8*
X90779276Y-132187018D03*
X88879276Y-132187018D03*
G04 #@! TD*
D30*
G04 #@! TO.C,U9*
X263904276Y-122649518D03*
X263904276Y-123919518D03*
X270154276Y-123919518D03*
X270154276Y-122649518D03*
G04 #@! TD*
D86*
G04 #@! TO.C,L5*
X245029276Y-102512018D03*
X245029276Y-96462018D03*
G04 #@! TD*
D92*
G04 #@! TO.C,J23*
X343609276Y-144386895D03*
X343609276Y-142386893D03*
D93*
X350329276Y-150487022D03*
X350329276Y-137287018D03*
G04 #@! TD*
D27*
G04 #@! TO.C,R131*
X209354276Y-66700000D03*
X208334276Y-66700000D03*
G04 #@! TD*
D94*
G04 #@! TO.C,U17*
X234549276Y-123247018D03*
X234049276Y-123247018D03*
X233549276Y-123247018D03*
X233049276Y-123247018D03*
X232549276Y-123247018D03*
X232549276Y-127547018D03*
X233049276Y-127547018D03*
X233549276Y-127547018D03*
X234049276Y-127547018D03*
X234549276Y-127547018D03*
G04 #@! TD*
D77*
G04 #@! TO.C,U14*
X259469276Y-61490518D03*
X258069276Y-61490518D03*
X259469276Y-62890518D03*
X258069276Y-62890518D03*
D78*
X262569276Y-57294018D03*
X262169276Y-57294018D03*
X261769276Y-57294018D03*
X261369276Y-57294018D03*
X260969276Y-57294018D03*
X260569276Y-57294018D03*
X260169276Y-57294018D03*
X259769276Y-57294018D03*
X259369276Y-57294018D03*
X258969276Y-57294018D03*
X258569276Y-57294018D03*
X258169276Y-57294018D03*
X257769276Y-57294018D03*
X257369276Y-57294018D03*
X256969276Y-57294018D03*
X256569276Y-57294018D03*
X256169276Y-57294018D03*
X255769276Y-57294018D03*
X255369276Y-57294018D03*
X254969276Y-57294018D03*
D79*
X253872776Y-58390518D03*
X253872776Y-58790518D03*
X253872776Y-59190518D03*
X253872776Y-59590518D03*
X253872776Y-59990518D03*
X253872776Y-60390518D03*
X253872776Y-60790518D03*
X253872776Y-61190518D03*
X253872776Y-61590518D03*
X253872776Y-61990518D03*
X253872776Y-62390518D03*
X253872776Y-62790518D03*
X253872776Y-63190518D03*
X253872776Y-63590518D03*
X253872776Y-63990518D03*
X253872776Y-64390518D03*
X253872776Y-64790518D03*
X253872776Y-65190518D03*
X253872776Y-65590518D03*
X253872776Y-65990518D03*
D78*
X254969276Y-67087018D03*
X255369276Y-67087018D03*
X255769276Y-67087018D03*
X256169276Y-67087018D03*
X256569276Y-67087018D03*
X256969276Y-67087018D03*
X257369276Y-67087018D03*
X257769276Y-67087018D03*
X258169276Y-67087018D03*
X258569276Y-67087018D03*
X258969276Y-67087018D03*
X259369276Y-67087018D03*
X259769276Y-67087018D03*
X260169276Y-67087018D03*
X260569276Y-67087018D03*
X260969276Y-67087018D03*
X261369276Y-67087018D03*
X261769276Y-67087018D03*
X262169276Y-67087018D03*
X262569276Y-67087018D03*
D79*
X263665776Y-65990518D03*
X263665776Y-65590518D03*
X263665776Y-65190518D03*
X263665776Y-64790518D03*
X263665776Y-64390518D03*
X263665776Y-63990518D03*
X263665776Y-63590518D03*
X263665776Y-63190518D03*
X263665776Y-62790518D03*
X263665776Y-62390518D03*
X263665776Y-61990518D03*
X263665776Y-61590518D03*
X263665776Y-61190518D03*
X263665776Y-60790518D03*
X263665776Y-60390518D03*
X263665776Y-59990518D03*
X263665776Y-59590518D03*
X263665776Y-59190518D03*
X263665776Y-58790518D03*
X263665776Y-58390518D03*
D80*
X259902609Y-61057185D03*
X258769276Y-61057185D03*
X257635943Y-61057185D03*
X259902609Y-62190518D03*
X258769276Y-62190518D03*
X257635943Y-62190518D03*
X259902609Y-63323851D03*
X258769276Y-63323851D03*
X257635943Y-63323851D03*
G04 #@! TD*
D23*
G04 #@! TO.C,R82*
X115654276Y-81087018D03*
X114004276Y-81087018D03*
G04 #@! TD*
D11*
G04 #@! TO.C,D5*
X99379276Y-125287018D03*
X95079276Y-125287018D03*
G04 #@! TD*
D23*
G04 #@! TO.C,R17*
X90854276Y-134287018D03*
X89204276Y-134287018D03*
G04 #@! TD*
D76*
G04 #@! TO.C,D47*
X286300000Y-58100000D03*
X290300000Y-58100000D03*
G04 #@! TD*
D18*
G04 #@! TO.C,D41*
X272466776Y-80287018D03*
X270591776Y-80287018D03*
G04 #@! TD*
D23*
G04 #@! TO.C,R43*
X286551776Y-124187018D03*
X284901776Y-124187018D03*
G04 #@! TD*
D29*
G04 #@! TO.C,C55*
X239679276Y-130487018D03*
X241579276Y-130487018D03*
G04 #@! TD*
D13*
G04 #@! TO.C,R85*
X234979276Y-49487018D03*
X236629276Y-49487018D03*
G04 #@! TD*
D36*
G04 #@! TO.C,R55*
X221429276Y-53797018D03*
X221429276Y-52777018D03*
G04 #@! TD*
D75*
G04 #@! TO.C,Y1*
X248002609Y-61140518D03*
X245802609Y-61140518D03*
X245802609Y-62840518D03*
X248002609Y-62840518D03*
G04 #@! TD*
D23*
G04 #@! TO.C,R37*
X106754276Y-83087018D03*
X105104276Y-83087018D03*
G04 #@! TD*
M02*
