G04 #@! TF.GenerationSoftware,KiCad,Pcbnew,10.0.4*
G04 #@! TF.CreationDate,2026-07-06T15:31:58-10:00*
G04 #@! TF.ProjectId,CellKeeper,43656c6c-4b65-4657-9065-722e6b696361,1.0*
G04 #@! TF.SameCoordinates,Original*
G04 #@! TF.FileFunction,Copper,L4,Bot*
G04 #@! TF.FilePolarity,Positive*
%FSLAX46Y46*%
G04 Gerber Fmt 4.6, Leading zero omitted, Abs format (unit mm)*
G04 Created by KiCad (PCBNEW 10.0.4) date 2026-07-06 15:31:58*
%MOMM*%
%LPD*%
G01*
G04 APERTURE LIST*
G04 Aperture macros list*
%AMRoundRect*
0 Rectangle with rounded corners*
0 $1 Rounding radius*
0 $2 $3 $4 $5 $6 $7 $8 $9 X,Y pos of 4 corners*
0 Add a 4 corners polygon primitive as box body*
4,1,4,$2,$3,$4,$5,$6,$7,$8,$9,$2,$3,0*
0 Add four circle primitives for the rounded corners*
1,1,$1+$1,$2,$3*
1,1,$1+$1,$4,$5*
1,1,$1+$1,$6,$7*
1,1,$1+$1,$8,$9*
0 Add four rect primitives between the rounded corners*
20,1,$1+$1,$2,$3,$4,$5,0*
20,1,$1+$1,$4,$5,$6,$7,0*
20,1,$1+$1,$6,$7,$8,$9,0*
20,1,$1+$1,$8,$9,$2,$3,0*%
%AMFreePoly0*
4,1,37,0.800000,0.796148,0.878414,0.796148,1.032228,0.765552,1.177117,0.705537,1.307515,0.618408,1.418408,0.507515,1.505537,0.377117,1.565552,0.232228,1.596148,0.078414,1.596148,-0.078414,1.565552,-0.232228,1.505537,-0.377117,1.418408,-0.507515,1.307515,-0.618408,1.177117,-0.705537,1.032228,-0.765552,0.878414,-0.796148,0.800000,-0.796148,0.800000,-0.800000,-1.400000,-0.800000,
-1.403843,-0.796157,-1.439018,-0.796157,-1.511114,-0.766294,-1.566294,-0.711114,-1.596157,-0.639018,-1.596157,-0.603843,-1.600000,-0.600000,-1.600000,0.600000,-1.596157,0.603843,-1.596157,0.639018,-1.566294,0.711114,-1.511114,0.766294,-1.439018,0.796157,-1.403843,0.796157,-1.400000,0.800000,0.800000,0.800000,0.800000,0.796148,0.800000,0.796148,$1*%
%AMFreePoly1*
4,1,37,1.403843,0.796157,1.439018,0.796157,1.511114,0.766294,1.566294,0.711114,1.596157,0.639018,1.596157,0.603843,1.600000,0.600000,1.600000,-0.600000,1.596157,-0.603843,1.596157,-0.639018,1.566294,-0.711114,1.511114,-0.766294,1.439018,-0.796157,1.403843,-0.796157,1.400000,-0.800000,-0.800000,-0.800000,-0.800000,-0.796148,-0.878414,-0.796148,-1.032228,-0.765552,-1.177117,-0.705537,
-1.307515,-0.618408,-1.418408,-0.507515,-1.505537,-0.377117,-1.565552,-0.232228,-1.596148,-0.078414,-1.596148,0.078414,-1.565552,0.232228,-1.505537,0.377117,-1.418408,0.507515,-1.307515,0.618408,-1.177117,0.705537,-1.032228,0.765552,-0.878414,0.796148,-0.800000,0.796148,-0.800000,0.800000,1.400000,0.800000,1.403843,0.796157,1.403843,0.796157,$1*%
%AMFreePoly2*
4,1,37,0.603843,0.796157,0.639018,0.796157,0.711114,0.766294,0.766294,0.711114,0.796157,0.639018,0.796157,0.603843,0.800000,0.600000,0.800000,-0.600000,0.796157,-0.603843,0.796157,-0.639018,0.766294,-0.711114,0.711114,-0.766294,0.639018,-0.796157,0.603843,-0.796157,0.600000,-0.800000,0.000000,-0.800000,0.000000,-0.796148,-0.078414,-0.796148,-0.232228,-0.765552,-0.377117,-0.705537,
-0.507515,-0.618408,-0.618408,-0.507515,-0.705537,-0.377117,-0.765552,-0.232228,-0.796148,-0.078414,-0.796148,0.078414,-0.765552,0.232228,-0.705537,0.377117,-0.618408,0.507515,-0.507515,0.618408,-0.377117,0.705537,-0.232228,0.765552,-0.078414,0.796148,0.000000,0.796148,0.000000,0.800000,0.600000,0.800000,0.603843,0.796157,0.603843,0.796157,$1*%
%AMFreePoly3*
4,1,37,0.000000,0.796148,0.078414,0.796148,0.232228,0.765552,0.377117,0.705537,0.507515,0.618408,0.618408,0.507515,0.705537,0.377117,0.765552,0.232228,0.796148,0.078414,0.796148,-0.078414,0.765552,-0.232228,0.705537,-0.377117,0.618408,-0.507515,0.507515,-0.618408,0.377117,-0.705537,0.232228,-0.765552,0.078414,-0.796148,0.000000,-0.796148,0.000000,-0.800000,-0.600000,-0.800000,
-0.603843,-0.796157,-0.639018,-0.796157,-0.711114,-0.766294,-0.766294,-0.711114,-0.796157,-0.639018,-0.796157,-0.603843,-0.800000,-0.600000,-0.800000,0.600000,-0.796157,0.603843,-0.796157,0.639018,-0.766294,0.711114,-0.711114,0.766294,-0.639018,0.796157,-0.603843,0.796157,-0.600000,0.800000,0.000000,0.800000,0.000000,0.796148,0.000000,0.796148,$1*%
G04 Aperture macros list end*
G04 #@! TA.AperFunction,ComponentPad*
%ADD10C,2.400000*%
G04 #@! TD*
G04 #@! TA.AperFunction,ComponentPad*
%ADD11C,1.500000*%
G04 #@! TD*
G04 #@! TA.AperFunction,ComponentPad*
%ADD12R,1.700000X1.700000*%
G04 #@! TD*
G04 #@! TA.AperFunction,ComponentPad*
%ADD13C,1.700000*%
G04 #@! TD*
G04 #@! TA.AperFunction,ComponentPad*
%ADD14C,1.950000*%
G04 #@! TD*
G04 #@! TA.AperFunction,ComponentPad*
%ADD15C,5.400000*%
G04 #@! TD*
G04 #@! TA.AperFunction,ComponentPad*
%ADD16O,2.100000X1.000000*%
G04 #@! TD*
G04 #@! TA.AperFunction,ComponentPad*
%ADD17O,1.600000X1.000000*%
G04 #@! TD*
G04 #@! TA.AperFunction,ComponentPad*
%ADD18R,1.500000X1.500000*%
G04 #@! TD*
G04 #@! TA.AperFunction,ComponentPad*
%ADD19C,2.300000*%
G04 #@! TD*
G04 #@! TA.AperFunction,ComponentPad*
%ADD20C,0.600000*%
G04 #@! TD*
G04 #@! TA.AperFunction,SMDPad,CuDef*
%ADD21R,2.950000X4.500000*%
G04 #@! TD*
G04 #@! TA.AperFunction,ComponentPad*
%ADD22RoundRect,0.277778X0.722222X1.522222X-0.722222X1.522222X-0.722222X-1.522222X0.722222X-1.522222X0*%
G04 #@! TD*
G04 #@! TA.AperFunction,ComponentPad*
%ADD23O,2.000000X3.600000*%
G04 #@! TD*
G04 #@! TA.AperFunction,ComponentPad*
%ADD24RoundRect,0.277778X1.522222X-0.722222X1.522222X0.722222X-1.522222X0.722222X-1.522222X-0.722222X0*%
G04 #@! TD*
G04 #@! TA.AperFunction,ComponentPad*
%ADD25O,3.600000X2.000000*%
G04 #@! TD*
G04 #@! TA.AperFunction,ComponentPad*
%ADD26RoundRect,0.277778X-0.722222X-1.522222X0.722222X-1.522222X0.722222X1.522222X-0.722222X1.522222X0*%
G04 #@! TD*
G04 #@! TA.AperFunction,ComponentPad*
%ADD27RoundRect,0.250001X-0.799999X-1.549999X0.799999X-1.549999X0.799999X1.549999X-0.799999X1.549999X0*%
G04 #@! TD*
G04 #@! TA.AperFunction,ComponentPad*
%ADD28O,2.100000X3.600000*%
G04 #@! TD*
G04 #@! TA.AperFunction,ComponentPad*
%ADD29RoundRect,0.250000X-0.750000X-0.750000X0.750000X-0.750000X0.750000X0.750000X-0.750000X0.750000X0*%
G04 #@! TD*
G04 #@! TA.AperFunction,ComponentPad*
%ADD30C,2.000000*%
G04 #@! TD*
G04 #@! TA.AperFunction,ComponentPad*
%ADD31C,1.100000*%
G04 #@! TD*
G04 #@! TA.AperFunction,ComponentPad*
%ADD32C,16.800000*%
G04 #@! TD*
G04 #@! TA.AperFunction,ComponentPad*
%ADD33RoundRect,0.250001X-0.499999X-0.499999X0.499999X-0.499999X0.499999X0.499999X-0.499999X0.499999X0*%
G04 #@! TD*
G04 #@! TA.AperFunction,ComponentPad*
%ADD34RoundRect,0.250000X0.750000X0.750000X-0.750000X0.750000X-0.750000X-0.750000X0.750000X-0.750000X0*%
G04 #@! TD*
G04 #@! TA.AperFunction,ComponentPad*
%ADD35RoundRect,0.250001X0.499999X-0.499999X0.499999X0.499999X-0.499999X0.499999X-0.499999X-0.499999X0*%
G04 #@! TD*
G04 #@! TA.AperFunction,ComponentPad*
%ADD36C,1.524000*%
G04 #@! TD*
G04 #@! TA.AperFunction,ComponentPad*
%ADD37C,3.000000*%
G04 #@! TD*
G04 #@! TA.AperFunction,ComponentPad*
%ADD38RoundRect,0.277778X-1.522222X0.722222X-1.522222X-0.722222X1.522222X-0.722222X1.522222X0.722222X0*%
G04 #@! TD*
G04 #@! TA.AperFunction,SMDPad,CuDef*
%ADD39FreePoly0,180.000000*%
G04 #@! TD*
G04 #@! TA.AperFunction,ComponentPad*
%ADD40RoundRect,0.200000X0.600000X0.600000X-0.600000X0.600000X-0.600000X-0.600000X0.600000X-0.600000X0*%
G04 #@! TD*
G04 #@! TA.AperFunction,SMDPad,CuDef*
%ADD41RoundRect,0.800000X0.800000X0.000010X-0.800000X0.000010X-0.800000X-0.000010X0.800000X-0.000010X0*%
G04 #@! TD*
G04 #@! TA.AperFunction,ComponentPad*
%ADD42C,1.600000*%
G04 #@! TD*
G04 #@! TA.AperFunction,SMDPad,CuDef*
%ADD43FreePoly1,180.000000*%
G04 #@! TD*
G04 #@! TA.AperFunction,ComponentPad*
%ADD44FreePoly2,180.000000*%
G04 #@! TD*
G04 #@! TA.AperFunction,ComponentPad*
%ADD45FreePoly3,180.000000*%
G04 #@! TD*
G04 #@! TA.AperFunction,ViaPad*
%ADD46C,0.600000*%
G04 #@! TD*
G04 #@! TA.AperFunction,ViaPad*
%ADD47C,1.200000*%
G04 #@! TD*
G04 #@! TA.AperFunction,Conductor*
%ADD48C,0.400000*%
G04 #@! TD*
G04 #@! TA.AperFunction,Conductor*
%ADD49C,0.150000*%
G04 #@! TD*
G04 #@! TA.AperFunction,Conductor*
%ADD50C,0.600000*%
G04 #@! TD*
G04 #@! TA.AperFunction,Conductor*
%ADD51C,2.000000*%
G04 #@! TD*
G04 #@! TA.AperFunction,Conductor*
%ADD52C,0.220000*%
G04 #@! TD*
G04 #@! TA.AperFunction,Conductor*
%ADD53C,0.200000*%
G04 #@! TD*
G04 #@! TA.AperFunction,Conductor*
%ADD54C,0.223000*%
G04 #@! TD*
G04 #@! TA.AperFunction,Conductor*
%ADD55C,2.400000*%
G04 #@! TD*
G04 #@! TA.AperFunction,Conductor*
%ADD56C,3.000000*%
G04 #@! TD*
G04 #@! TA.AperFunction,Conductor*
%ADD57C,0.300000*%
G04 #@! TD*
G04 APERTURE END LIST*
D10*
G04 #@! TO.P,TH4,1*
G04 #@! TO.N,Net-(TH1-Pad2)*
X321729276Y-92791791D03*
G04 #@! TO.P,TH4,2*
G04 #@! TO.N,/FC Neg*
X316729276Y-92791791D03*
G04 #@! TD*
D11*
G04 #@! TO.P,TP30,1,1_1*
G04 #@! TO.N,Net-(R95-Pad2)*
X161929276Y-83887018D03*
G04 #@! TD*
G04 #@! TO.P,TP41,1,1_1*
G04 #@! TO.N,Net-(D47-A)*
X293529276Y-54987018D03*
G04 #@! TD*
G04 #@! TO.P,RevisionS1,1,1_1*
G04 #@! TO.N,/GPIO47_ADC7*
X271029276Y-63687018D03*
G04 #@! TD*
G04 #@! TO.P,TP9,1,1_1*
G04 #@! TO.N,GND*
X123929276Y-83087018D03*
G04 #@! TO.P,TP9,2,2_2*
G04 #@! TO.N,+5V*
X126469276Y-83087018D03*
G04 #@! TD*
G04 #@! TO.P,TP11,1,1_1*
G04 #@! TO.N,GND*
X278429276Y-77847018D03*
G04 #@! TD*
D12*
G04 #@! TO.P,J16,1,Pin_1_1*
G04 #@! TO.N,/SWCLK_2*
X169399276Y-65547018D03*
D13*
G04 #@! TO.P,J16,2,Pin_2_2*
G04 #@! TO.N,GND*
X171939276Y-65547018D03*
G04 #@! TO.P,J16,3,Pin_3_3*
G04 #@! TO.N,/SWD_2*
X174479276Y-65547018D03*
G04 #@! TD*
D11*
G04 #@! TO.P,TP23,1,1_1*
G04 #@! TO.N,GND*
X251389276Y-82597018D03*
G04 #@! TO.P,TP23,2,2_2*
G04 #@! TO.N,Snooper Debug*
X251389276Y-80057018D03*
G04 #@! TD*
D14*
G04 #@! TO.P,J6,1,Pin_1_1*
G04 #@! TO.N,Net-(J6-Pin_1)*
X66629276Y-99007018D03*
G04 #@! TO.P,J6,2,Pin_2_2*
G04 #@! TO.N,Net-(J6-Pin_2)*
X66629276Y-96467018D03*
G04 #@! TO.P,J6,3,Pin_3_3*
G04 #@! TO.N,GND*
X66629276Y-93927018D03*
G04 #@! TO.P,J6,4,Pin_4_4*
X66629276Y-91387018D03*
G04 #@! TO.P,J6,5,Pin_5_5*
G04 #@! TO.N,Net-(J6-Pin_5)*
X66629276Y-88847018D03*
G04 #@! TO.P,J6,6,Pin_6_6*
G04 #@! TO.N,Net-(J6-Pin_6)*
X66629276Y-86307018D03*
G04 #@! TO.P,J6,7,Pin_7_7*
G04 #@! TO.N,unconnected-(J6-Pin_7-Pad7)*
X66629276Y-83767018D03*
G04 #@! TO.P,J6,8,Pin_8_8*
G04 #@! TO.N,unconnected-(J6-Pin_8-Pad8)*
X66629276Y-81227018D03*
G04 #@! TO.P,J6,9,Pin_9_9*
G04 #@! TO.N,unconnected-(J6-Pin_9-Pad9)*
X66629276Y-78687018D03*
G04 #@! TO.P,J6,10,Pin_10_10*
G04 #@! TO.N,unconnected-(J6-Pin_10-Pad10)*
X66629276Y-76147018D03*
G04 #@! TO.P,J6,11,Pin_11_11*
G04 #@! TO.N,unconnected-(J6-Pin_11-Pad11)*
X66629276Y-73607018D03*
G04 #@! TO.P,J6,12,Pin_12_12*
G04 #@! TO.N,unconnected-(J6-Pin_12-Pad12)*
X66629276Y-71067018D03*
G04 #@! TO.P,J6,13,Pin_13_13*
G04 #@! TO.N,unconnected-(J6-Pin_13-Pad13)*
X66629276Y-68527018D03*
G04 #@! TO.P,J6,14,Pin_14_14*
G04 #@! TO.N,unconnected-(J6-Pin_14-Pad14)*
X66629276Y-65987018D03*
G04 #@! TO.P,J6,15,Pin_15_15*
G04 #@! TO.N,Net-(J6-Pin_15)*
X69629276Y-99007018D03*
G04 #@! TO.P,J6,16,Pin_16_16*
G04 #@! TO.N,unconnected-(J6-Pin_16-Pad16)*
X69629276Y-96467018D03*
G04 #@! TO.P,J6,17,Pin_17_17*
G04 #@! TO.N,/FC-CTR-NEG-AUX-D*
X69629276Y-93927018D03*
G04 #@! TO.P,J6,18,Pin_18_18*
G04 #@! TO.N,/FC-CTR-POS-AUX-D*
X69629276Y-91387018D03*
G04 #@! TO.P,J6,19,Pin_19_19*
G04 #@! TO.N,unconnected-(J6-Pin_19-Pad19)*
X69629276Y-88847018D03*
G04 #@! TO.P,J6,20,Pin_20_20*
G04 #@! TO.N,unconnected-(J6-Pin_20-Pad20)*
X69629276Y-86307018D03*
G04 #@! TO.P,J6,21,Pin_21_21*
G04 #@! TO.N,unconnected-(J6-Pin_21-Pad21)*
X69629276Y-83767018D03*
G04 #@! TO.P,J6,22,Pin_22_22*
G04 #@! TO.N,unconnected-(J6-Pin_22-Pad22)*
X69629276Y-81227018D03*
G04 #@! TO.P,J6,23,Pin_23_23*
G04 #@! TO.N,unconnected-(J6-Pin_23-Pad23)*
X69629276Y-78687018D03*
G04 #@! TO.P,J6,24,Pin_24_24*
G04 #@! TO.N,unconnected-(J6-Pin_24-Pad24)*
X69629276Y-76147018D03*
G04 #@! TO.P,J6,25,Pin_25_25*
G04 #@! TO.N,unconnected-(J6-Pin_25-Pad25)*
X69629276Y-73607018D03*
G04 #@! TO.P,J6,26,Pin_26_26*
G04 #@! TO.N,unconnected-(J6-Pin_26-Pad26)*
X69629276Y-71067018D03*
G04 #@! TO.P,J6,27,Pin_27_27*
G04 #@! TO.N,unconnected-(J6-Pin_27-Pad27)*
X69629276Y-68527018D03*
G04 #@! TO.P,J6,28,Pin_28_28*
G04 #@! TO.N,unconnected-(J6-Pin_28-Pad28)*
X69629276Y-65987018D03*
G04 #@! TO.P,J6,29,Pin_29_29*
G04 #@! TO.N,Net-(J6-Pin_29)*
X73629276Y-96467018D03*
G04 #@! TO.P,J6,30,Pin_30_30*
G04 #@! TO.N,GND*
X73629276Y-92997018D03*
G04 #@! TO.P,J6,31,Pin_31_31*
G04 #@! TO.N,unconnected-(J6-Pin_31-Pad31)*
X73629276Y-89497018D03*
G04 #@! TO.P,J6,32,Pin_32_32*
G04 #@! TO.N,unconnected-(J6-Pin_32-Pad32)*
X73629276Y-85997018D03*
G04 #@! TO.P,J6,33,Pin_33_33*
G04 #@! TO.N,V_{Contactor}*
X73629276Y-82497018D03*
G04 #@! TO.P,J6,34,Pin_34_34*
X73629276Y-78997018D03*
G04 #@! TO.P,J6,35,Pin_35_35*
X73629276Y-75497018D03*
G04 #@! TO.P,J6,36,Pin_36_36*
G04 #@! TO.N,C FC-Pos (GND)*
X73629276Y-71997018D03*
G04 #@! TO.P,J6,37,Pin_37_37*
G04 #@! TO.N,C FC-Neg (GND)*
X73629276Y-68527018D03*
G04 #@! TO.P,J6,38,Pin_38_38*
G04 #@! TO.N,unconnected-(J6-Pin_38-Pad38)*
X77629276Y-94747018D03*
G04 #@! TO.P,J6,39,Pin_39_39*
G04 #@! TO.N,unconnected-(J6-Pin_39-Pad39)*
X77629276Y-89497018D03*
G04 #@! TO.P,J6,40,Pin_40_40*
G04 #@! TO.N,unconnected-(J6-Pin_40-Pad40)*
X77629276Y-85997018D03*
G04 #@! TO.P,J6,41,Pin_41_41*
G04 #@! TO.N,C Pos (GND)*
X77629276Y-82497018D03*
G04 #@! TO.P,J6,42,Pin_42_42*
G04 #@! TO.N,C Neg (GND)*
X77629276Y-78997018D03*
G04 #@! TO.P,J6,43,Pin_43_43*
G04 #@! TO.N,V_{Contactor}*
X77629276Y-75497018D03*
G04 #@! TO.P,J6,44,Pin_44_44*
G04 #@! TO.N,unconnected-(J6-Pin_44-Pad44)*
X77629276Y-70247018D03*
D15*
G04 #@! TO.P,J6,MH1*
G04 #@! TO.N,N/C*
X55129276Y-55827018D03*
G04 #@! TO.P,J6,MH2*
X55129276Y-109167018D03*
G04 #@! TD*
D16*
G04 #@! TO.P,J11,SH,SHIELD_SH*
G04 #@! TO.N,GND*
X303149276Y-70987018D03*
D17*
X307329276Y-70987018D03*
D16*
X303149276Y-62347018D03*
D17*
X307329276Y-62347018D03*
G04 #@! TD*
D11*
G04 #@! TO.P,TP3,1,1_1*
G04 #@! TO.N,GND*
X268729276Y-86787018D03*
G04 #@! TD*
D18*
G04 #@! TO.P,J4,1*
G04 #@! TO.N,/Wht-Org*
X302304276Y-98357018D03*
D11*
G04 #@! TO.P,J4,2*
G04 #@! TO.N,/Orange*
X300524276Y-99373018D03*
G04 #@! TO.P,J4,3*
G04 #@! TO.N,/Wht-Grn*
X302304276Y-100389018D03*
G04 #@! TO.P,J4,4*
G04 #@! TO.N,/Blue*
X300524276Y-101405018D03*
G04 #@! TO.P,J4,5*
G04 #@! TO.N,/Wht-Blue*
X302304276Y-102421018D03*
G04 #@! TO.P,J4,6*
G04 #@! TO.N,/Grn*
X300524276Y-103437018D03*
G04 #@! TO.P,J4,7*
G04 #@! TO.N,/Wht-Brown*
X302304276Y-104453018D03*
G04 #@! TO.P,J4,8*
G04 #@! TO.N,/Brown*
X300524276Y-105469018D03*
G04 #@! TO.P,J4,9*
G04 #@! TO.N,unconnected-(J4-Pad9)*
X295704276Y-95057018D03*
G04 #@! TO.P,J4,10*
G04 #@! TO.N,unconnected-(J4-Pad10)*
X295704276Y-97347018D03*
G04 #@! TO.P,J4,11*
G04 #@! TO.N,unconnected-(J4-Pad11)*
X295704276Y-106487018D03*
G04 #@! TO.P,J4,12*
G04 #@! TO.N,unconnected-(J4-Pad12)*
X295704276Y-108777018D03*
G04 #@! TO.P,J4,13*
G04 #@! TO.N,Net-(J4-Pad13)*
X302304276Y-114107018D03*
G04 #@! TO.P,J4,14*
G04 #@! TO.N,Net-(C20-Pad1)*
X300524276Y-115123018D03*
G04 #@! TO.P,J4,15*
G04 #@! TO.N,Net-(J4-Pad15)*
X302304276Y-116139018D03*
G04 #@! TO.P,J4,16*
G04 #@! TO.N,Net-(J4-Pad16)*
X300524276Y-117155018D03*
G04 #@! TO.P,J4,17*
G04 #@! TO.N,Net-(J4-Pad17)*
X302304276Y-118171018D03*
G04 #@! TO.P,J4,18*
G04 #@! TO.N,Net-(J4-Pad18)*
X300524276Y-119187018D03*
G04 #@! TO.P,J4,19*
G04 #@! TO.N,GND CAN*
X302304276Y-120203018D03*
G04 #@! TO.P,J4,20*
G04 #@! TO.N,Net-(C19-Pad1)*
X300524276Y-121219018D03*
G04 #@! TO.P,J4,21*
X295704276Y-110807018D03*
G04 #@! TO.P,J4,22*
G04 #@! TO.N,Net-(J4-Pad22)*
X295704276Y-113097018D03*
G04 #@! TO.P,J4,23*
G04 #@! TO.N,Net-(C20-Pad1)*
X295704276Y-122237018D03*
G04 #@! TO.P,J4,24*
G04 #@! TO.N,Net-(J4-Pad24)*
X295704276Y-124527018D03*
D19*
G04 #@! TO.P,J4,SH*
G04 #@! TO.N,GND CAN*
X301414276Y-93787018D03*
X301414276Y-125787018D03*
G04 #@! TD*
D11*
G04 #@! TO.P,TP47,1,1_1*
G04 #@! TO.N,Net-(C108-Pad1)*
X337679276Y-154087018D03*
G04 #@! TO.P,TP47,2,2_2*
G04 #@! TO.N,Net-(C107-Pad1)*
X340219276Y-154087018D03*
G04 #@! TD*
D16*
G04 #@! TO.P,J19,SH,SHIELD_SH*
G04 #@! TO.N,GND*
X303144276Y-55887018D03*
D17*
X307324276Y-55887018D03*
D16*
X303144276Y-47247018D03*
D17*
X307324276Y-47247018D03*
G04 #@! TD*
D11*
G04 #@! TO.P,TP39,1,1_1*
G04 #@! TO.N,/USB2_D+*
X293529276Y-49907018D03*
G04 #@! TD*
D20*
G04 #@! TO.P,U3,9,PowerPAD_9*
G04 #@! TO.N,GND*
X122210922Y-106066018D03*
X122210922Y-104866018D03*
X122210922Y-103566018D03*
X122210922Y-102466018D03*
D21*
X121610922Y-104266018D03*
D20*
X121010922Y-106066018D03*
X121010922Y-104866018D03*
X121010922Y-103566018D03*
X121010922Y-102466018D03*
G04 #@! TD*
D11*
G04 #@! TO.P,TP36,1,1_1*
G04 #@! TO.N,MAIN-SUP TX{slash}RX*
X210994276Y-65187018D03*
G04 #@! TO.P,TP36,2,2_2*
G04 #@! TO.N,SUP-MAIN TX{slash}RX*
X210994276Y-67727018D03*
G04 #@! TD*
G04 #@! TO.P,3v1,1,1_1*
G04 #@! TO.N,+3.3VSen*
X179856776Y-102524518D03*
G04 #@! TD*
G04 #@! TO.P,TP25,1,1_1*
G04 #@! TO.N,I2C SDA Vsense*
X189579276Y-105987018D03*
G04 #@! TO.P,TP25,2,2_2*
G04 #@! TO.N,I2C SCL Vsense*
X192119276Y-105987018D03*
G04 #@! TD*
D12*
G04 #@! TO.P,J12,1,Pin_1_1*
G04 #@! TO.N,+5V*
X270349276Y-45947018D03*
D13*
G04 #@! TO.P,J12,2,Pin_2_2*
G04 #@! TO.N,/GPIO3*
X270349276Y-48487018D03*
G04 #@! TO.P,J12,3,Pin_3_3*
G04 #@! TO.N,+5V*
X267809276Y-45947018D03*
G04 #@! TO.P,J12,4,Pin_4_4*
G04 #@! TO.N,CAN2 Tx*
X267809276Y-48487018D03*
G04 #@! TO.P,J12,5,Pin_5_5*
G04 #@! TO.N,+3.3V*
X265269276Y-45947018D03*
G04 #@! TO.P,J12,6,Pin_6_6*
G04 #@! TO.N,CAN2 Rx*
X265269276Y-48487018D03*
G04 #@! TO.P,J12,7,Pin_7_7*
G04 #@! TO.N,+3.3V*
X262729276Y-45947018D03*
G04 #@! TO.P,J12,8,Pin_8_8*
G04 #@! TO.N,MAX RX*
X262729276Y-48487018D03*
G04 #@! TO.P,J12,9,Pin_9_9*
G04 #@! TO.N,+3.3V*
X260189276Y-45947018D03*
G04 #@! TO.P,J12,10,Pin_10_10*
G04 #@! TO.N,SX Serial TX*
X260189276Y-48487018D03*
G04 #@! TO.P,J12,11,Pin_11_11*
G04 #@! TO.N,GND*
X257649276Y-45947018D03*
G04 #@! TO.P,J12,12,Pin_12_12*
G04 #@! TO.N,SX Serial RX*
X257649276Y-48487018D03*
G04 #@! TO.P,J12,13,Pin_13_13*
G04 #@! TO.N,GND*
X255109276Y-45947018D03*
G04 #@! TO.P,J12,14,Pin_14_14*
G04 #@! TO.N,FC-CTR-POS-AUX*
X255109276Y-48487018D03*
G04 #@! TO.P,J12,15,Pin_15_15*
G04 #@! TO.N,GND*
X252569276Y-45947018D03*
G04 #@! TO.P,J12,16,Pin_16_16*
G04 #@! TO.N,FC-CTR-NEG-AUX*
X252569276Y-48487018D03*
G04 #@! TO.P,J12,17,Pin_17_17*
G04 #@! TO.N,GND*
X250029276Y-45947018D03*
G04 #@! TO.P,J12,18,Pin_18_18*
G04 #@! TO.N,Emergency Stop*
X250029276Y-48487018D03*
G04 #@! TO.P,J12,19,Pin_19_19*
G04 #@! TO.N,GND*
X247489276Y-45947018D03*
G04 #@! TO.P,J12,20,Pin_20_20*
G04 #@! TO.N,Extra Input*
X247489276Y-48487018D03*
G04 #@! TD*
D11*
G04 #@! TO.P,TP6,1,1_1*
G04 #@! TO.N,SX Serial TX*
X151469276Y-56187018D03*
G04 #@! TO.P,TP6,2,2_2*
G04 #@! TO.N,SX Serial RX*
X148929276Y-56187018D03*
G04 #@! TD*
G04 #@! TO.P,TP43,1,1_1*
G04 #@! TO.N,GND*
X166129276Y-71437018D03*
G04 #@! TO.P,TP43,2,2_2*
G04 #@! TO.N,IsoSPI RX Debug 2*
X166129276Y-68897018D03*
G04 #@! TD*
D16*
G04 #@! TO.P,J9,SH,SHIELD_SH*
G04 #@! TO.N,GND*
X303249276Y-86107018D03*
D17*
X307429276Y-86107018D03*
D16*
X303249276Y-77467018D03*
D17*
X307429276Y-77467018D03*
G04 #@! TD*
D11*
G04 #@! TO.P,TP38,1,1_1*
G04 #@! TO.N,GND*
X293529276Y-47367018D03*
G04 #@! TD*
G04 #@! TO.P,TP19,1,1_1*
G04 #@! TO.N,GND*
X293529276Y-62467018D03*
G04 #@! TD*
G04 #@! TO.P,TP8,1,1_1*
G04 #@! TO.N,/CAN2 L*
X118229276Y-130887018D03*
G04 #@! TO.P,TP8,2,2_2*
G04 #@! TO.N,/CAN2 H*
X118229276Y-133427018D03*
G04 #@! TD*
D22*
G04 #@! TO.P,J7,1,Pin_1_1*
G04 #@! TO.N,/FC-CTR-POS-AUX-D*
X78529276Y-46587018D03*
D23*
G04 #@! TO.P,J7,2,Pin_2_2*
G04 #@! TO.N,/FC-CTR-NEG-AUX-D*
X74719276Y-46587018D03*
G04 #@! TO.P,J7,3,Pin_3_3*
G04 #@! TO.N,GND*
X70909276Y-46587018D03*
G04 #@! TO.P,J7,4,Pin_4_4*
X67099276Y-46587018D03*
G04 #@! TD*
D11*
G04 #@! TO.P,TP7,1,1_1*
G04 #@! TO.N,/CAN L*
X274329276Y-114987018D03*
G04 #@! TO.P,TP7,2,2_2*
G04 #@! TO.N,/CAN H*
X276869276Y-114987018D03*
G04 #@! TD*
G04 #@! TO.P,TP31,1,1_1*
G04 #@! TO.N,Net-(U18-AIN0)*
X152629276Y-119687018D03*
G04 #@! TD*
G04 #@! TO.P,5V1,1,1_1*
G04 #@! TO.N,/CAN 5V*
X282229276Y-91587018D03*
G04 #@! TD*
D24*
G04 #@! TO.P,J24,1,Pin_1_1*
G04 #@! TO.N,IsoSPI2+*
X351796776Y-130037018D03*
D25*
G04 #@! TO.P,J24,2,Pin_2_2*
G04 #@! TO.N,IsoSPI2-*
X351796776Y-126227018D03*
G04 #@! TD*
D10*
G04 #@! TO.P,TH6,1*
G04 #@! TO.N,Net-(TH3-Pad2)*
X321829276Y-111891791D03*
G04 #@! TO.P,TH6,2*
G04 #@! TO.N,/FC Neg*
X316829276Y-111891791D03*
G04 #@! TD*
D11*
G04 #@! TO.P,TP2,1,1_1*
G04 #@! TO.N,CAN2 Rx*
X121129276Y-117837018D03*
G04 #@! TO.P,TP2,2,2_2*
G04 #@! TO.N,CAN2 Tx*
X121129276Y-120377018D03*
G04 #@! TD*
D10*
G04 #@! TO.P,TH5,1*
G04 #@! TO.N,Net-(TH2-Pad2)*
X321729276Y-102291791D03*
G04 #@! TO.P,TH5,2*
G04 #@! TO.N,/FC Neg*
X316729276Y-102291791D03*
G04 #@! TD*
D12*
G04 #@! TO.P,J22,1,Pin_1_1*
G04 #@! TO.N,+5V*
X195629276Y-45487018D03*
D13*
G04 #@! TO.P,J22,2,Pin_2_2*
G04 #@! TO.N,/MCU2_GPIO3*
X195629276Y-48027018D03*
G04 #@! TO.P,J22,3,Pin_3_3*
G04 #@! TO.N,+5V*
X193089276Y-45487018D03*
G04 #@! TO.P,J22,4,Pin_4_4*
G04 #@! TO.N,/MCU2_GPIO4*
X193089276Y-48027018D03*
G04 #@! TO.P,J22,5,Pin_5_5*
G04 #@! TO.N,+3.3V*
X190549276Y-45487018D03*
G04 #@! TO.P,J22,6,Pin_6_6*
G04 #@! TO.N,/MCU2_GPIO5*
X190549276Y-48027018D03*
G04 #@! TO.P,J22,7,Pin_7_7*
G04 #@! TO.N,+3.3V*
X188009276Y-45487018D03*
G04 #@! TO.P,J22,8,Pin_8_8*
G04 #@! TO.N,/MCU2_GPIO6*
X188009276Y-48027018D03*
G04 #@! TO.P,J22,9,Pin_9_9*
G04 #@! TO.N,+3.3V*
X185469276Y-45487018D03*
G04 #@! TO.P,J22,10,Pin_10_10*
G04 #@! TO.N,/MCU2_GPIO7*
X185469276Y-48027018D03*
G04 #@! TO.P,J22,11,Pin_11_11*
G04 #@! TO.N,GND*
X182929276Y-45487018D03*
G04 #@! TO.P,J22,12,Pin_12_12*
G04 #@! TO.N,/MCU2_GPIO8*
X182929276Y-48027018D03*
G04 #@! TO.P,J22,13,Pin_13_13*
G04 #@! TO.N,GND*
X180389276Y-45487018D03*
G04 #@! TO.P,J22,14,Pin_14_14*
G04 #@! TO.N,/MCU2_GPIO9*
X180389276Y-48027018D03*
G04 #@! TO.P,J22,15,Pin_15_15*
G04 #@! TO.N,GND*
X177849276Y-45487018D03*
G04 #@! TO.P,J22,16,Pin_16_16*
G04 #@! TO.N,/MCU2_GPIO10*
X177849276Y-48027018D03*
G04 #@! TO.P,J22,17,Pin_17_17*
G04 #@! TO.N,GND*
X175309276Y-45487018D03*
G04 #@! TO.P,J22,18,Pin_18_18*
G04 #@! TO.N,Emergency Stop*
X175309276Y-48027018D03*
G04 #@! TO.P,J22,19,Pin_19_19*
G04 #@! TO.N,GND*
X172769276Y-45487018D03*
G04 #@! TO.P,J22,20,Pin_20_20*
G04 #@! TO.N,/MCU2_GPIO12*
X172769276Y-48027018D03*
G04 #@! TD*
D11*
G04 #@! TO.P,TP4,1,1_1*
G04 #@! TO.N,GND*
X126429276Y-72627018D03*
G04 #@! TO.P,TP4,2,2_2*
G04 #@! TO.N,+3.3V*
X126429276Y-70087018D03*
G04 #@! TD*
G04 #@! TO.P,TP28,1,1_1*
G04 #@! TO.N,Net-(U19-AIN3)*
X163529276Y-119887018D03*
G04 #@! TD*
G04 #@! TO.P,1/2V1,1,1_1*
G04 #@! TO.N,VSenHalf*
X179856776Y-105064518D03*
G04 #@! TD*
G04 #@! TO.P,TP5,1,1_1*
G04 #@! TO.N,GND CAN*
X279929276Y-91587018D03*
G04 #@! TD*
D26*
G04 #@! TO.P,J15,1,Pin_1_1*
G04 #@! TO.N,Shunt NTC +*
X232169276Y-151187018D03*
D23*
G04 #@! TO.P,J15,2,Pin_2_2*
G04 #@! TO.N,GND Shunt NTC -*
X235979276Y-151187018D03*
G04 #@! TO.P,J15,3,Pin_3_3*
G04 #@! TO.N,Shunt Sense +*
X239789276Y-151187018D03*
G04 #@! TO.P,J15,4,Pin_4_4*
G04 #@! TO.N,Shunt Sense -*
X243599276Y-151187018D03*
G04 #@! TD*
D11*
G04 #@! TO.P,GND1,1,1_1*
G04 #@! TO.N,GND*
X179856776Y-107604518D03*
G04 #@! TD*
G04 #@! TO.P,TP26,1,1_1*
G04 #@! TO.N,Net-(R94-Pad2)*
X168729276Y-83887018D03*
G04 #@! TD*
D12*
G04 #@! TO.P,J8,1,Pin_1_1*
G04 #@! TO.N,/SWCLK*
X244619276Y-66167018D03*
D13*
G04 #@! TO.P,J8,2,Pin_2_2*
G04 #@! TO.N,GND*
X247159276Y-66167018D03*
G04 #@! TO.P,J8,3,Pin_3_3*
G04 #@! TO.N,/SWD*
X249699276Y-66167018D03*
G04 #@! TD*
D11*
G04 #@! TO.P,TP14,1,1_1*
G04 #@! TO.N,/RUN*
X217529276Y-48987018D03*
G04 #@! TD*
G04 #@! TO.P,TP21,1,1_1*
G04 #@! TO.N,/USB_D-*
X293529276Y-67547018D03*
G04 #@! TD*
G04 #@! TO.P,TP40,1,1_1*
G04 #@! TO.N,/USB2_D-*
X293529276Y-52447018D03*
G04 #@! TD*
D27*
G04 #@! TO.P,J18,1,Pin_1_1*
G04 #@! TO.N,Batt Positive*
X160229276Y-151287018D03*
D28*
G04 #@! TO.P,J18,2,Pin_2_2*
G04 #@! TO.N,Link Positive*
X167849276Y-151287018D03*
G04 #@! TO.P,J18,3,Pin_3_3*
G04 #@! TO.N,FC Positive*
X175469276Y-151287018D03*
G04 #@! TO.P,J18,4,Pin_4_4*
G04 #@! TO.N,FC Negative*
X183089276Y-151287018D03*
G04 #@! TO.P,J18,5,Pin_5_5*
G04 #@! TO.N,Link Negative*
X190709276Y-151287018D03*
G04 #@! TO.P,J18,6,Pin_6_6*
G04 #@! TO.N,Batt Negative*
X198329276Y-151287018D03*
G04 #@! TD*
D11*
G04 #@! TO.P,TP24,1,1_1*
G04 #@! TO.N,GND*
X249089276Y-82597018D03*
G04 #@! TO.P,TP24,2,2_2*
G04 #@! TO.N,IsoSPI RX Debug*
X249089276Y-80057018D03*
G04 #@! TD*
G04 #@! TO.P,TP32,1,1_1*
G04 #@! TO.N,Net-(U19-AIN0)*
X199029276Y-119712018D03*
G04 #@! TD*
D29*
G04 #@! TO.P,C14,1*
G04 #@! TO.N,V_{Contactor}*
X88429276Y-111487018D03*
D30*
G04 #@! TO.P,C14,2*
G04 #@! TO.N,GND*
X93429276Y-111487018D03*
G04 #@! TD*
D11*
G04 #@! TO.P,TP45,1,1_1*
G04 #@! TO.N,IsoSPI2 TX En*
X336929276Y-139437018D03*
G04 #@! TO.P,TP45,2,2_2*
G04 #@! TO.N,IsoSPI2 TX Data*
X336929276Y-141977018D03*
G04 #@! TD*
D20*
G04 #@! TO.P,U20,81,GND_81*
G04 #@! TO.N,GND*
X185329276Y-60453685D03*
X184195943Y-60453685D03*
X183062610Y-60453685D03*
X185329276Y-61587018D03*
X184195943Y-61587018D03*
X183062610Y-61587018D03*
X185329276Y-62720351D03*
X184195943Y-62720351D03*
X183062610Y-62720351D03*
G04 #@! TD*
D11*
G04 #@! TO.P,TP22,1,1_1*
G04 #@! TO.N,Net-(D44-A)*
X293529276Y-70087018D03*
G04 #@! TD*
D10*
G04 #@! TO.P,TH3,1*
G04 #@! TO.N,Drive Unit Neg*
X349029276Y-111891791D03*
G04 #@! TO.P,TH3,2*
G04 #@! TO.N,Net-(TH3-Pad2)*
X344029276Y-111891791D03*
G04 #@! TD*
D11*
G04 #@! TO.P,GPIO1,1,1_1*
G04 #@! TO.N,/GPIO44_ADC4*
X271029276Y-71307018D03*
G04 #@! TD*
G04 #@! TO.P,GPIO3,1,1_1*
G04 #@! TO.N,/GPIO46_ADC6*
X271029276Y-66227018D03*
G04 #@! TD*
G04 #@! TO.P,TP29,1,1_1*
G04 #@! TO.N,Net-(U18-AIN1)*
X209729276Y-119812018D03*
G04 #@! TD*
D31*
G04 #@! TO.P,H14,1,1_1*
G04 #@! TO.N,Drive Unit Neg*
X346329276Y-44641791D03*
X350784049Y-46487018D03*
X341874503Y-46487018D03*
X352629276Y-50941791D03*
D32*
X346329276Y-50941791D03*
D31*
X340029276Y-50941791D03*
X350784049Y-55396564D03*
X341874503Y-55396564D03*
X346329276Y-57241791D03*
G04 #@! TD*
D11*
G04 #@! TO.P,TP15,1,1_1*
G04 #@! TO.N,I2C SDA Shunt*
X234459276Y-108867018D03*
G04 #@! TO.P,TP15,2,2_2*
G04 #@! TO.N,I2C SCL Shunt*
X231919276Y-108867018D03*
G04 #@! TD*
D10*
G04 #@! TO.P,TH2,1*
G04 #@! TO.N,Drive Unit Neg*
X349029276Y-102391791D03*
G04 #@! TO.P,TH2,2*
G04 #@! TO.N,Net-(TH2-Pad2)*
X344029276Y-102391791D03*
G04 #@! TD*
D33*
G04 #@! TO.P,U15,1,+Vin_1*
G04 #@! TO.N,Net-(U15-+Vin)*
X244749276Y-109667018D03*
D11*
G04 #@! TO.P,U15,2,-Vin_2*
G04 #@! TO.N,GND*
X244749276Y-112207018D03*
G04 #@! TO.P,U15,5,-Vout_5*
G04 #@! TO.N,GND Shunt NTC -*
X244749276Y-119827018D03*
G04 #@! TO.P,U15,7,+Vout_7*
G04 #@! TO.N,Net-(U15-+Vout)*
X244749276Y-124907018D03*
G04 #@! TD*
G04 #@! TO.P,TP13,1,1_1*
G04 #@! TO.N,/Serial API 5V Diode*
X278429276Y-85467018D03*
G04 #@! TD*
D26*
G04 #@! TO.P,J21,1,Pin_1_1*
G04 #@! TO.N,IsoSPI+*
X270429276Y-151187018D03*
D23*
G04 #@! TO.P,J21,2,Pin_2_2*
G04 #@! TO.N,IsoSPI-*
X274239276Y-151187018D03*
G04 #@! TD*
D10*
G04 #@! TO.P,TH1,1*
G04 #@! TO.N,Drive Unit Neg*
X349029276Y-92891791D03*
G04 #@! TO.P,TH1,2*
G04 #@! TO.N,Net-(TH1-Pad2)*
X344029276Y-92891791D03*
G04 #@! TD*
D11*
G04 #@! TO.P,TP48,1,1_1*
G04 #@! TO.N,/iso2+*
X337329276Y-126237018D03*
G04 #@! TO.P,TP48,2,2_2*
G04 #@! TO.N,/iso2-*
X337329276Y-128777018D03*
G04 #@! TD*
D34*
G04 #@! TO.P,C31,1*
G04 #@! TO.N,+5V*
X127219276Y-92347018D03*
D30*
G04 #@! TO.P,C31,2*
G04 #@! TO.N,GND*
X122219276Y-92347018D03*
G04 #@! TD*
D35*
G04 #@! TO.P,U4,1,+Vin_1*
G04 #@! TO.N,Net-(U4-+Vin)*
X261029276Y-93794518D03*
D11*
G04 #@! TO.P,U4,2,-Vin_2*
G04 #@! TO.N,GND*
X263569276Y-93794518D03*
G04 #@! TO.P,U4,5,-Vout_5*
G04 #@! TO.N,GND CAN*
X271189276Y-93794518D03*
G04 #@! TO.P,U4,7,+Vout_7*
G04 #@! TO.N,Net-(U4-+Vout)*
X276269276Y-93794518D03*
G04 #@! TD*
D31*
G04 #@! TO.P,H15,1,1_1*
G04 #@! TO.N,/FC Neg*
X319329276Y-44641791D03*
X323784049Y-46487018D03*
X314874503Y-46487018D03*
X325629276Y-50941791D03*
D32*
X319329276Y-50941791D03*
D31*
X313029276Y-50941791D03*
X323784049Y-55396564D03*
X314874503Y-55396564D03*
X319329276Y-57241791D03*
G04 #@! TD*
D11*
G04 #@! TO.P,TP10,1,1_1*
G04 #@! TO.N,/Serial API RX*
X278429276Y-82927018D03*
G04 #@! TO.P,TP10,2,2_2*
G04 #@! TO.N,/Serial API TX*
X278429276Y-80387018D03*
G04 #@! TD*
G04 #@! TO.P,TP44,1,1_1*
G04 #@! TO.N,GND*
X163629276Y-71437018D03*
G04 #@! TO.P,TP44,2,2_2*
G04 #@! TO.N,Snooper Debug 2*
X163629276Y-68897018D03*
G04 #@! TD*
G04 #@! TO.P,GPIO2,1,1_1*
G04 #@! TO.N,/GPIO45_ADC5*
X271029276Y-68767018D03*
G04 #@! TD*
D22*
G04 #@! TO.P,J3,1,Pin_1_1*
G04 #@! TO.N,+3.3V*
X155989276Y-46587018D03*
D23*
G04 #@! TO.P,J3,2,Pin_2_2*
G04 #@! TO.N,SX Serial TX*
X152179276Y-46587018D03*
G04 #@! TO.P,J3,3,Pin_3_3*
G04 #@! TO.N,SX Serial RX*
X148369276Y-46587018D03*
G04 #@! TO.P,J3,4,Pin_4_4*
G04 #@! TO.N,GND*
X144559276Y-46587018D03*
G04 #@! TD*
D11*
G04 #@! TO.P,TP1,1,1_1*
G04 #@! TO.N,CAN Rx*
X253129276Y-106207018D03*
G04 #@! TO.P,TP1,2,2_2*
G04 #@! TO.N,CAN Tx*
X253129276Y-108747018D03*
G04 #@! TD*
D18*
G04 #@! TO.P,J5,1*
G04 #@! TO.N,unconnected-(J5-Pad1)*
X129059276Y-150162018D03*
D11*
G04 #@! TO.P,J5,2*
G04 #@! TO.N,unconnected-(J5-Pad2)*
X128043276Y-148382018D03*
G04 #@! TO.P,J5,3*
G04 #@! TO.N,GND*
X127027276Y-150162018D03*
G04 #@! TO.P,J5,4*
G04 #@! TO.N,/CAN2 H*
X126011276Y-148382018D03*
G04 #@! TO.P,J5,5*
G04 #@! TO.N,/CAN2 L*
X124995276Y-150162018D03*
G04 #@! TO.P,J5,6*
G04 #@! TO.N,GND*
X123979276Y-148382018D03*
G04 #@! TO.P,J5,7*
G04 #@! TO.N,unconnected-(J5-Pad7)*
X122963276Y-150162018D03*
G04 #@! TO.P,J5,8*
G04 #@! TO.N,unconnected-(J5-Pad8)*
X121947276Y-148382018D03*
G04 #@! TO.P,J5,9*
G04 #@! TO.N,unconnected-(J5-Pad9)*
X132359276Y-143562018D03*
G04 #@! TO.P,J5,10*
G04 #@! TO.N,unconnected-(J5-Pad10)*
X130069276Y-143562018D03*
G04 #@! TO.P,J5,11*
G04 #@! TO.N,unconnected-(J5-Pad11)*
X120929276Y-143562018D03*
G04 #@! TO.P,J5,12*
G04 #@! TO.N,unconnected-(J5-Pad12)*
X118639276Y-143562018D03*
G04 #@! TO.P,J5,13*
G04 #@! TO.N,unconnected-(J5-Pad13)*
X113309276Y-150162018D03*
G04 #@! TO.P,J5,14*
G04 #@! TO.N,unconnected-(J5-Pad14)*
X112293276Y-148382018D03*
G04 #@! TO.P,J5,15*
G04 #@! TO.N,GND*
X111277276Y-150162018D03*
G04 #@! TO.P,J5,16*
G04 #@! TO.N,/CAN2 H*
X110261276Y-148382018D03*
G04 #@! TO.P,J5,17*
G04 #@! TO.N,/CAN2 L*
X109245276Y-150162018D03*
G04 #@! TO.P,J5,18*
G04 #@! TO.N,GND*
X108229276Y-148382018D03*
G04 #@! TO.P,J5,19*
G04 #@! TO.N,unconnected-(J5-Pad19)*
X107213276Y-150162018D03*
G04 #@! TO.P,J5,20*
G04 #@! TO.N,unconnected-(J5-Pad20)*
X106197276Y-148382018D03*
G04 #@! TO.P,J5,21*
G04 #@! TO.N,unconnected-(J5-Pad21)*
X116609276Y-143562018D03*
G04 #@! TO.P,J5,22*
G04 #@! TO.N,unconnected-(J5-Pad22)*
X114319276Y-143562018D03*
G04 #@! TO.P,J5,23*
G04 #@! TO.N,unconnected-(J5-Pad23)*
X105179276Y-143562018D03*
G04 #@! TO.P,J5,24*
G04 #@! TO.N,unconnected-(J5-Pad24)*
X102889276Y-143562018D03*
D19*
G04 #@! TO.P,J5,SH*
G04 #@! TO.N,GND*
X133629276Y-149272018D03*
X101629276Y-149272018D03*
G04 #@! TD*
D11*
G04 #@! TO.P,TP18,1,1_1*
G04 #@! TO.N,Shunt_5V*
X226529276Y-127887018D03*
G04 #@! TD*
G04 #@! TO.P,TP34,1,1_1*
G04 #@! TO.N,IsoSPI TX En*
X228504276Y-85487018D03*
G04 #@! TO.P,TP34,2,2_2*
G04 #@! TO.N,IsoSPI TX Data*
X225964276Y-85487018D03*
G04 #@! TD*
D29*
G04 #@! TO.P,C1,1*
G04 #@! TO.N,V_{in}*
X108759276Y-111247018D03*
D30*
G04 #@! TO.P,C1,2*
G04 #@! TO.N,GND*
X113759276Y-111247018D03*
G04 #@! TD*
D11*
G04 #@! TO.P,TP42,1,1_1*
G04 #@! TO.N,/iso+*
X232404276Y-98217017D03*
G04 #@! TO.P,TP42,2,2_2*
G04 #@! TO.N,/iso-*
X232404276Y-100757017D03*
G04 #@! TD*
G04 #@! TO.P,TP37,1,1_1*
G04 #@! TO.N,Net-(C95-Pad1)*
X216379276Y-108612018D03*
G04 #@! TO.P,TP37,2,2_2*
G04 #@! TO.N,Net-(C94-Pad1)*
X218919276Y-108612018D03*
G04 #@! TD*
D36*
G04 #@! TO.P,J17,1,Pin_1_1*
G04 #@! TO.N,Batt Positive*
X152529544Y-140387017D03*
G04 #@! TO.P,J17,4,Pin_4_4*
G04 #@! TO.N,FC Positive*
X174028866Y-140387017D03*
G04 #@! TO.P,J17,7,Pin_7_7*
G04 #@! TO.N,FC Negative*
X188327648Y-140387017D03*
G04 #@! TO.P,J17,10,Pin_10_10*
G04 #@! TO.N,Batt Negative*
X209826970Y-140387017D03*
G04 #@! TO.P,J17,13,Pin_13_13*
G04 #@! TO.N,Link Positive*
X159529276Y-144987018D03*
G04 #@! TO.P,J17,22,Pin_22_22*
G04 #@! TO.N,Link Negative*
X200827242Y-144987018D03*
G04 #@! TD*
D37*
G04 #@! TO.P,J2,1,Pin_1_1*
G04 #@! TO.N,GND*
X70429276Y-147787018D03*
X70429276Y-152787018D03*
X77329276Y-147787018D03*
X77329276Y-152787018D03*
G04 #@! TD*
D11*
G04 #@! TO.P,TP33,1,1_1*
G04 #@! TO.N,Net-(U18-AIN2)*
X174129276Y-119787018D03*
G04 #@! TD*
G04 #@! TO.P,TP27,1,1_1*
G04 #@! TO.N,Net-(U18-AIN3)*
X188229276Y-119887018D03*
G04 #@! TD*
G04 #@! TO.P,TP46,1,1_1*
G04 #@! TO.N,IsoSPI2 RX H*
X336929276Y-144537018D03*
G04 #@! TO.P,TP46,2,2_2*
G04 #@! TO.N,IsoSPI2 RX L*
X336929276Y-147077018D03*
G04 #@! TD*
G04 #@! TO.P,TP12,1,1_1*
G04 #@! TO.N,Net-(R55-Pad2)*
X234429276Y-47287018D03*
G04 #@! TD*
G04 #@! TO.P,TP16,1,1_1*
G04 #@! TO.N,GND*
X226329276Y-112887018D03*
G04 #@! TD*
D38*
G04 #@! TO.P,J10,1,Pin_1_1*
G04 #@! TO.N,V_{Contactor}*
X52129276Y-69367018D03*
D25*
G04 #@! TO.P,J10,2,Pin_2_2*
G04 #@! TO.N,C FC-Neg (GND)*
X52129276Y-73177018D03*
G04 #@! TO.P,J10,3,Pin_3_3*
G04 #@! TO.N,V_{Contactor}*
X52129276Y-76987018D03*
G04 #@! TO.P,J10,4,Pin_4_4*
G04 #@! TO.N,C FC-Pos (GND)*
X52129276Y-80797018D03*
G04 #@! TO.P,J10,5,Pin_5_5*
G04 #@! TO.N,V_{Contactor}*
X52129276Y-84607018D03*
G04 #@! TO.P,J10,6,Pin_6_6*
G04 #@! TO.N,C Neg (GND)*
X52129276Y-88417018D03*
G04 #@! TO.P,J10,7,Pin_7_7*
G04 #@! TO.N,V_{Contactor}*
X52129276Y-92227018D03*
G04 #@! TO.P,J10,8,Pin_8_8*
G04 #@! TO.N,C Pos (GND)*
X52129276Y-96037018D03*
G04 #@! TD*
D11*
G04 #@! TO.P,TP35,1,1_1*
G04 #@! TO.N,IsoSPI RX H*
X219704276Y-90249518D03*
G04 #@! TO.P,TP35,2,2_2*
G04 #@! TO.N,IsoSPI RX L*
X217164276Y-90249518D03*
G04 #@! TD*
D26*
G04 #@! TO.P,J1,1,Pin_1_1*
G04 #@! TO.N,GND*
X83199276Y-151187018D03*
D23*
G04 #@! TO.P,J1,2,Pin_2_2*
X87009276Y-151187018D03*
G04 #@! TO.P,J1,3,Pin_3_3*
G04 #@! TO.N,/Contactor_Input*
X90819276Y-151187018D03*
G04 #@! TO.P,J1,4,Pin_4_4*
G04 #@! TO.N,/Logic_Input*
X94629276Y-151187018D03*
G04 #@! TD*
D20*
G04 #@! TO.P,U14,81,GND_81*
G04 #@! TO.N,GND*
X259902609Y-61057185D03*
X258769276Y-61057185D03*
X257635943Y-61057185D03*
X259902609Y-62190518D03*
X258769276Y-62190518D03*
X257635943Y-62190518D03*
X259902609Y-63323851D03*
X258769276Y-63323851D03*
X257635943Y-63323851D03*
G04 #@! TD*
D11*
G04 #@! TO.P,TP20,1,1_1*
G04 #@! TO.N,/USB_D+*
X293529276Y-65007018D03*
G04 #@! TD*
G04 #@! TO.P,TP17,1,1_1*
G04 #@! TO.N,GND Shunt NTC -*
X226329276Y-120287018D03*
G04 #@! TD*
D39*
G04 #@! TO.P,A1,1,GPIO0_1*
G04 #@! TO.N,unconnected-(A1-GPIO0-Pad1)*
X333919276Y-119057018D03*
D40*
X333119276Y-119057018D03*
D41*
G04 #@! TO.P,A1,2,GPIO1_2*
G04 #@! TO.N,unconnected-(A1-GPIO1-Pad2)*
X333919276Y-121597018D03*
D42*
X333119276Y-121597018D03*
D43*
G04 #@! TO.P,A1,3,GND_3*
G04 #@! TO.N,GND2*
X333919276Y-124137018D03*
D44*
X333119276Y-124137018D03*
D41*
G04 #@! TO.P,A1,4,GPIO2_4*
G04 #@! TO.N,unconnected-(A1-GPIO2-Pad4)*
X333919276Y-126677018D03*
D42*
X333119276Y-126677018D03*
D41*
G04 #@! TO.P,A1,5,GPIO3_5*
G04 #@! TO.N,unconnected-(A1-GPIO3-Pad5)*
X333919276Y-129217018D03*
D42*
X333119276Y-129217018D03*
D41*
G04 #@! TO.P,A1,6,GPIO4_6*
G04 #@! TO.N,unconnected-(A1-GPIO4-Pad6)*
X333919276Y-131757018D03*
D42*
X333119276Y-131757018D03*
D41*
G04 #@! TO.P,A1,7,GPIO5_7*
G04 #@! TO.N,MAX RX2*
X333919276Y-134297018D03*
D42*
X333119276Y-134297018D03*
D43*
G04 #@! TO.P,A1,8,GND_8*
G04 #@! TO.N,GND2*
X333919276Y-136837018D03*
D44*
X333119276Y-136837018D03*
D41*
G04 #@! TO.P,A1,9,GPIO6_9*
G04 #@! TO.N,IsoSPI2 TX En*
X333919276Y-139377018D03*
D42*
X333119276Y-139377018D03*
D41*
G04 #@! TO.P,A1,10,GPIO7_10*
G04 #@! TO.N,IsoSPI2 TX Data*
X333919276Y-141917018D03*
D42*
X333119276Y-141917018D03*
D41*
G04 #@! TO.P,A1,11,GPIO8_11*
G04 #@! TO.N,IsoSPI2 RX H*
X333919276Y-144457018D03*
D42*
X333119276Y-144457018D03*
D41*
G04 #@! TO.P,A1,12,GPIO9_12*
G04 #@! TO.N,IsoSPI2 RX L*
X333919276Y-146997018D03*
D42*
X333119276Y-146997018D03*
D43*
G04 #@! TO.P,A1,13,GND_13*
G04 #@! TO.N,GND2*
X333919276Y-149537018D03*
D44*
X333119276Y-149537018D03*
D41*
G04 #@! TO.P,A1,14,GPIO10_14*
G04 #@! TO.N,unconnected-(A1-GPIO10-Pad14)*
X333919276Y-152077018D03*
D42*
X333119276Y-152077018D03*
D41*
G04 #@! TO.P,A1,15,GPIO11_15*
G04 #@! TO.N,unconnected-(A1-GPIO11-Pad15)*
X333919276Y-154617018D03*
D42*
X333119276Y-154617018D03*
D41*
G04 #@! TO.P,A1,16,GPIO12_16*
G04 #@! TO.N,unconnected-(A1-GPIO12-Pad16)*
X333919276Y-157157018D03*
D42*
X333119276Y-157157018D03*
D41*
G04 #@! TO.P,A1,17,GPIO13_17*
G04 #@! TO.N,unconnected-(A1-GPIO13-Pad17)*
X333919276Y-159697018D03*
D42*
X333119276Y-159697018D03*
D43*
G04 #@! TO.P,A1,18,GND_18*
G04 #@! TO.N,GND2*
X333919276Y-162237018D03*
D44*
X333119276Y-162237018D03*
D41*
G04 #@! TO.P,A1,19,GPIO14_19*
G04 #@! TO.N,unconnected-(A1-GPIO14-Pad19)*
X333919276Y-164777018D03*
D42*
X333119276Y-164777018D03*
D41*
G04 #@! TO.P,A1,20,GPIO15_20*
G04 #@! TO.N,unconnected-(A1-GPIO15-Pad20)*
X333919276Y-167317018D03*
D42*
X333119276Y-167317018D03*
G04 #@! TO.P,A1,21,GPIO16_21*
G04 #@! TO.N,unconnected-(A1-GPIO16-Pad21)*
X315339276Y-167317018D03*
D41*
X314539276Y-167317018D03*
D42*
G04 #@! TO.P,A1,22,GPIO17_22*
G04 #@! TO.N,unconnected-(A1-GPIO17-Pad22)*
X315339276Y-164777018D03*
D41*
X314539276Y-164777018D03*
D45*
G04 #@! TO.P,A1,23,GND_23*
G04 #@! TO.N,GND2*
X315339276Y-162237018D03*
D39*
X314539276Y-162237018D03*
D42*
G04 #@! TO.P,A1,24,GPIO18_24*
G04 #@! TO.N,unconnected-(A1-GPIO18-Pad24)*
X315339276Y-159697018D03*
D41*
X314539276Y-159697018D03*
D42*
G04 #@! TO.P,A1,25,GPIO19_25*
G04 #@! TO.N,unconnected-(A1-GPIO19-Pad25)*
X315339276Y-157157018D03*
D41*
X314539276Y-157157018D03*
D42*
G04 #@! TO.P,A1,26,GPIO20_26*
G04 #@! TO.N,unconnected-(A1-GPIO20-Pad26)*
X315339276Y-154617018D03*
D41*
X314539276Y-154617018D03*
D42*
G04 #@! TO.P,A1,27,GPIO21_27*
G04 #@! TO.N,unconnected-(A1-GPIO21-Pad27)*
X315339276Y-152077018D03*
D41*
X314539276Y-152077018D03*
D45*
G04 #@! TO.P,A1,28,GND_28*
G04 #@! TO.N,GND2*
X315339276Y-149537018D03*
D39*
X314539276Y-149537018D03*
D42*
G04 #@! TO.P,A1,29,GPIO22_29*
G04 #@! TO.N,unconnected-(A1-GPIO22-Pad29)*
X315339276Y-146997018D03*
D41*
X314539276Y-146997018D03*
D42*
G04 #@! TO.P,A1,30,RUN_30*
G04 #@! TO.N,unconnected-(A1-RUN-Pad30)*
X315339276Y-144457018D03*
D41*
X314539276Y-144457018D03*
D42*
G04 #@! TO.P,A1,31,GPIO26_ADC0_31*
G04 #@! TO.N,unconnected-(A1-GPIO26_ADC0-Pad31)*
X315339276Y-141917018D03*
D41*
X314539276Y-141917018D03*
D42*
G04 #@! TO.P,A1,32,GPIO27_ADC1_32*
G04 #@! TO.N,unconnected-(A1-GPIO27_ADC1-Pad32)*
X315339276Y-139377018D03*
D41*
X314539276Y-139377018D03*
D45*
G04 #@! TO.P,A1,33,AGND_33*
G04 #@! TO.N,unconnected-(A1-AGND-Pad33)*
X315339276Y-136837018D03*
D39*
X314539276Y-136837018D03*
D42*
G04 #@! TO.P,A1,34,GPIO28_ADC2_34*
G04 #@! TO.N,unconnected-(A1-GPIO28_ADC2-Pad34)*
X315339276Y-134297018D03*
D41*
X314539276Y-134297018D03*
D42*
G04 #@! TO.P,A1,35,ADC_VREF_35*
G04 #@! TO.N,unconnected-(A1-ADC_VREF-Pad35)*
X315339276Y-131757018D03*
D41*
X314539276Y-131757018D03*
D42*
G04 #@! TO.P,A1,36,3V3_36*
G04 #@! TO.N,+3.3V2*
X315339276Y-129217018D03*
D41*
X314539276Y-129217018D03*
D42*
G04 #@! TO.P,A1,37,3V3_EN_37*
G04 #@! TO.N,unconnected-(A1-3V3_EN-Pad37)*
X315339276Y-126677018D03*
D41*
X314539276Y-126677018D03*
D45*
G04 #@! TO.P,A1,38,GND_38*
G04 #@! TO.N,GND2*
X315339276Y-124137018D03*
D39*
X314539276Y-124137018D03*
D42*
G04 #@! TO.P,A1,39,VSYS_39*
G04 #@! TO.N,unconnected-(A1-VSYS-Pad39)*
X315339276Y-121597018D03*
D41*
X314539276Y-121597018D03*
D42*
G04 #@! TO.P,A1,40,VBUS_40*
G04 #@! TO.N,unconnected-(A1-VBUS-Pad40)*
X315339276Y-119057018D03*
D41*
X314539276Y-119057018D03*
G04 #@! TD*
D46*
G04 #@! TO.N,GND*
X109809276Y-61477018D03*
X282429276Y-71987018D03*
X176529276Y-59787018D03*
X250829276Y-63387018D03*
X95341776Y-47542018D03*
X104481776Y-93962018D03*
X194249276Y-66757018D03*
X229854276Y-86887018D03*
X251129276Y-60377018D03*
X104301776Y-77312018D03*
X112829276Y-68487018D03*
X104754276Y-71282018D03*
X91429276Y-131687018D03*
X257939276Y-70537018D03*
X91029276Y-137287018D03*
X208400000Y-59100000D03*
X261009276Y-54317018D03*
X95281776Y-48632018D03*
X246499276Y-105617018D03*
X248002609Y-64190518D03*
X129829276Y-132487018D03*
X104669276Y-104417018D03*
X225754276Y-97987018D03*
X104784276Y-84282018D03*
X99829276Y-109787018D03*
X173429276Y-63587018D03*
X174129276Y-101887018D03*
X104251776Y-88912018D03*
X259729276Y-116687018D03*
X91329276Y-48187018D03*
X246011776Y-93342018D03*
X104511776Y-92812018D03*
X177139276Y-58097018D03*
X72229276Y-138587018D03*
X106729276Y-87187018D03*
X259029276Y-104087018D03*
X104531776Y-63002018D03*
X265989276Y-68637018D03*
X104271776Y-78462018D03*
X112829276Y-83987018D03*
X262729276Y-110687018D03*
X173504276Y-81977018D03*
X173429276Y-99487018D03*
X166574276Y-82057018D03*
X136239276Y-68887018D03*
X188729276Y-112087018D03*
X254400000Y-127000000D03*
X250429276Y-60587018D03*
X137569276Y-68897018D03*
X120751599Y-85547018D03*
X104754276Y-68782018D03*
X104361776Y-73392018D03*
X224239276Y-51497018D03*
X182429276Y-53687018D03*
X192239276Y-59227018D03*
X112839276Y-72897018D03*
X178329276Y-112187018D03*
X255384276Y-92719518D03*
X226554276Y-93287018D03*
X112779276Y-88077018D03*
X106729276Y-56087018D03*
X175129276Y-59187018D03*
X266702609Y-59790518D03*
X97379276Y-136287018D03*
X114029276Y-80187018D03*
X76729276Y-115087018D03*
X91329276Y-47287018D03*
X297089276Y-53017018D03*
X134229276Y-117687018D03*
X246499276Y-105017018D03*
X220754276Y-92087018D03*
X263829276Y-120987018D03*
X255984276Y-92719518D03*
X82229276Y-107987018D03*
X104561776Y-61852018D03*
X91454276Y-132373427D03*
X175929276Y-62987018D03*
X256539276Y-54297018D03*
X185979276Y-67887018D03*
X97529276Y-112587018D03*
X254079276Y-70127018D03*
X296829276Y-67887018D03*
X230929276Y-113687018D03*
X264779685Y-66326609D03*
X185459276Y-68607018D03*
X77429276Y-115087018D03*
X70929276Y-138587018D03*
X191229276Y-60687018D03*
X249729276Y-64187018D03*
X95829276Y-118387018D03*
X104784276Y-85582018D03*
X131759276Y-72867018D03*
X122329276Y-130087018D03*
X190799276Y-65677018D03*
X259002609Y-54190518D03*
X296909276Y-64897018D03*
X189229276Y-68367018D03*
X264009276Y-78207018D03*
X134694276Y-73454518D03*
X94229276Y-118387018D03*
X271529276Y-58387018D03*
X104729276Y-55787018D03*
X259529276Y-111587018D03*
X171329276Y-59487018D03*
X250329276Y-58787018D03*
X104754276Y-70082018D03*
X124729276Y-119587018D03*
X237529276Y-52387018D03*
X107429276Y-134387018D03*
X104729276Y-54587018D03*
X104729276Y-53287018D03*
X190059276Y-65687018D03*
X175099276Y-63317018D03*
X265389276Y-66327018D03*
X104659276Y-102357018D03*
X95029276Y-118387018D03*
X194829276Y-63787018D03*
X134094276Y-73454518D03*
X196329276Y-112587018D03*
X173629276Y-105087018D03*
X104451776Y-95022018D03*
X169229276Y-112437018D03*
X297059276Y-49797018D03*
X104529276Y-57887018D03*
X76029276Y-115087018D03*
X232754276Y-90987018D03*
X122329276Y-134387018D03*
X258988157Y-70430973D03*
X107429276Y-129787018D03*
X104501776Y-64062018D03*
X122929276Y-128487018D03*
X186429276Y-53687018D03*
X246011776Y-93942018D03*
X104649276Y-99817018D03*
X262829276Y-80687018D03*
X180319276Y-69497018D03*
X183719276Y-69227018D03*
X136879276Y-68877018D03*
X263829276Y-124687018D03*
X265099276Y-69417018D03*
X104241776Y-79522018D03*
X189959276Y-67887018D03*
X106629276Y-71587018D03*
X71589276Y-138617018D03*
X254200000Y-122900000D03*
X264909276Y-60697018D03*
X230889276Y-51477018D03*
X245902609Y-60090518D03*
X120929276Y-56387018D03*
X214154276Y-96687018D03*
X184429276Y-53587018D03*
X104689276Y-101087018D03*
X130609276Y-49097018D03*
X82229276Y-107387018D03*
X106829276Y-102387018D03*
X104784276Y-86782018D03*
G04 #@! TO.N,+3.3V*
X180029276Y-60987018D03*
X260972609Y-58280518D03*
X263829276Y-114287018D03*
X180399276Y-65477018D03*
X215229276Y-73387018D03*
X214954276Y-85887018D03*
X144729276Y-71187018D03*
X144729276Y-72387018D03*
X178629276Y-73387018D03*
X190829276Y-73387018D03*
X262822609Y-63020518D03*
X145729276Y-72187018D03*
X254972609Y-66080518D03*
X187329276Y-73387018D03*
X188119276Y-59387018D03*
X219254276Y-97687018D03*
X154429276Y-73387018D03*
X263829276Y-117687018D03*
X240994276Y-73387018D03*
X180149276Y-58967018D03*
X258029276Y-108757018D03*
X145729276Y-71587018D03*
X186399276Y-57677018D03*
X248129276Y-73387018D03*
X188179276Y-64187018D03*
X144729276Y-71787018D03*
X262752609Y-64790518D03*
X188249276Y-62417018D03*
X258572609Y-66260518D03*
X137229276Y-119187018D03*
X214954276Y-86887018D03*
X262692609Y-59990518D03*
X238719276Y-73407018D03*
X260939276Y-72707018D03*
X182389276Y-57637018D03*
X141729276Y-71587018D03*
X254602609Y-61590518D03*
X267248276Y-68387018D03*
X141729276Y-70887018D03*
X144729276Y-72987018D03*
X262429276Y-66087018D03*
X214629276Y-101787018D03*
X256972609Y-58290518D03*
X265068895Y-70166405D03*
X141729276Y-73687018D03*
X231854276Y-93462018D03*
X145729276Y-72787018D03*
X141729276Y-72287018D03*
X141729276Y-72987018D03*
X258049276Y-106217018D03*
X254729276Y-59587018D03*
X135829276Y-119187018D03*
X269429276Y-73387018D03*
X183999276Y-65657018D03*
X187879276Y-65427018D03*
G04 #@! TO.N,/FC-CTR-POS-AUX-D*
X70829276Y-59087018D03*
G04 #@! TO.N,/MCU2_GPIO14*
X116929276Y-54787018D03*
X183063276Y-53286340D03*
G04 #@! TO.N,CTR_EN*
X109229276Y-71787018D03*
X111599276Y-62257018D03*
X111629276Y-86487018D03*
X109229276Y-87287018D03*
X112729276Y-71087018D03*
G04 #@! TO.N,Net-(U18-AIN0)*
X172529276Y-112987018D03*
X184929276Y-113137018D03*
G04 #@! TO.N,+3.3VSen*
X193229276Y-111487018D03*
G04 #@! TO.N,Net-(U19-AIN0)*
X169329276Y-113687018D03*
G04 #@! TO.N,Net-(U18-AIN2)*
X170429276Y-114887018D03*
X191829276Y-114887018D03*
G04 #@! TO.N,Net-(U19-AIN3)*
X176429276Y-114387018D03*
G04 #@! TO.N,I2C SDA Vsense*
X191229276Y-98687018D03*
X190029276Y-110887018D03*
X202269276Y-62097018D03*
X190352867Y-99663427D03*
X252019276Y-56299323D03*
G04 #@! TO.N,I2C SCL Vsense*
X201399276Y-61847018D03*
X252019276Y-55549320D03*
G04 #@! TO.N,Vin Logic Sense*
X102529276Y-110887018D03*
X260059183Y-69524085D03*
X222029276Y-61787018D03*
X223829276Y-68987018D03*
G04 #@! TO.N,GND CAN*
X283329276Y-92687018D03*
X274029276Y-108812018D03*
X289729276Y-119187018D03*
X278029276Y-119287018D03*
X276429276Y-102187018D03*
X290029276Y-112987018D03*
X271929276Y-109187018D03*
X277429276Y-108812018D03*
G04 #@! TO.N,GND Shunt NTC -*
X237359276Y-119847018D03*
X230889276Y-121507018D03*
X236629276Y-123187018D03*
X238829276Y-130487018D03*
X226169276Y-125807018D03*
X234289276Y-121717018D03*
G04 #@! TO.N,/Wht-Blue*
X287629276Y-109168146D03*
X284329276Y-109148146D03*
G04 #@! TO.N,/iso2-*
X336229276Y-124687018D03*
G04 #@! TO.N,IsoSPI2+*
X340929276Y-132287018D03*
X341429276Y-144187018D03*
D47*
G04 #@! TO.N,+5V*
X199429276Y-50487018D03*
X199429276Y-76337018D03*
X259829276Y-76887018D03*
D46*
X126351599Y-100947018D03*
D47*
X242829276Y-76351018D03*
X274729276Y-72387018D03*
X265329276Y-76387018D03*
X199429276Y-58387018D03*
X274629276Y-73987018D03*
D46*
G04 #@! TO.N,C Pos (GND)*
X101729276Y-100887018D03*
X100729276Y-100887018D03*
X100729276Y-101887018D03*
X101729276Y-99887018D03*
X99729276Y-100887018D03*
X99729276Y-98887018D03*
X101729276Y-101887018D03*
X99729276Y-101887018D03*
X101729276Y-98887018D03*
X100729276Y-98887018D03*
X99729276Y-99887018D03*
X100729276Y-99887018D03*
G04 #@! TO.N,PCS Charge*
X154729276Y-86787018D03*
X252529276Y-87487030D03*
G04 #@! TO.N,Net-(J6-Pin_15)*
X137229276Y-51087018D03*
G04 #@! TO.N,Net-(U18-AIN3)*
X193229276Y-114387018D03*
G04 #@! TO.N,/Wht-Org*
X284329276Y-101587018D03*
X287629276Y-101568146D03*
G04 #@! TO.N,SUP-MAIN TX{slash}RX*
X262879276Y-59197018D03*
G04 #@! TO.N,/MCU2_GPIO2*
X189999276Y-57667018D03*
X207200000Y-65600000D03*
G04 #@! TO.N,/iso-*
X258100000Y-125200000D03*
D47*
G04 #@! TO.N,V_{Contactor}*
X81029276Y-56187018D03*
X73129276Y-111887018D03*
X87339276Y-88907018D03*
X72029276Y-111887018D03*
X74229276Y-111887018D03*
D46*
G04 #@! TO.N,Net-(J4-Pad16)*
X271429276Y-120487018D03*
G04 #@! TO.N,Net-(J4-Pad17)*
X271429276Y-119187018D03*
G04 #@! TO.N,/FC-Pos-Jumper*
X101329276Y-68987018D03*
X100329276Y-67987018D03*
X99329276Y-68987018D03*
X99329276Y-67987018D03*
X99329276Y-69987018D03*
X99329276Y-70987018D03*
X101329276Y-70987018D03*
X101329276Y-67987018D03*
X101329276Y-69987018D03*
X100329276Y-70987018D03*
X100329276Y-69987018D03*
X100329276Y-68987018D03*
G04 #@! TO.N,HMI Serial TX*
X273629276Y-80387018D03*
X181439276Y-69327018D03*
X257019550Y-66246676D03*
X258100000Y-81200000D03*
G04 #@! TO.N,Net-(J6-Pin_1)*
X140229288Y-51087018D03*
G04 #@! TO.N,Net-(J6-Pin_2)*
X137979279Y-51087018D03*
G04 #@! TO.N,Net-(J6-Pin_5)*
X138729282Y-51087018D03*
G04 #@! TO.N,Net-(J6-Pin_6)*
X139479285Y-51087018D03*
G04 #@! TO.N,/FC-CTR-NEG-AUX-D*
X71354276Y-58287018D03*
G04 #@! TO.N,Net-(J6-Pin_29)*
X136429276Y-51087018D03*
G04 #@! TO.N,C Neg (GND)*
X101529276Y-84487018D03*
X99529276Y-85487018D03*
X99529276Y-83487018D03*
X100529276Y-86487018D03*
X101529276Y-85487018D03*
X100529276Y-83487018D03*
X99529276Y-84487018D03*
X101529276Y-86487018D03*
X99529276Y-86487018D03*
X100529276Y-84487018D03*
X100529276Y-85487018D03*
X101529276Y-83487018D03*
G04 #@! TO.N,Net-(U18-AIN1)*
X185929276Y-113137018D03*
G04 #@! TO.N,/USB_D+*
X268629276Y-61587018D03*
G04 #@! TO.N,/USB_D-*
X268629276Y-62487018D03*
G04 #@! TO.N,/Grn*
X284329276Y-111689518D03*
X298729276Y-104938018D03*
X287629276Y-111668146D03*
G04 #@! TO.N,/MCU2_GPIO6*
X198329276Y-46587018D03*
G04 #@! TO.N,MAX RX*
X213404276Y-48687018D03*
X200929276Y-48687018D03*
G04 #@! TO.N,/QSPI2_SS*
X195829276Y-63087018D03*
X178729276Y-83787018D03*
X192829276Y-59987018D03*
X177129276Y-83787018D03*
G04 #@! TO.N,VContactor Sense*
X104059276Y-107157018D03*
X260629276Y-68987018D03*
X222029276Y-60987018D03*
X224729276Y-68987018D03*
G04 #@! TO.N,CAN2 Tx*
X273129276Y-78087018D03*
X139379276Y-114987018D03*
X272129276Y-50687018D03*
X135929276Y-114987018D03*
X140929276Y-83087018D03*
G04 #@! TO.N,PCS Enable*
X252529276Y-86737027D03*
X154729276Y-84987018D03*
G04 #@! TO.N,/MCU2_GPIO25*
X209929276Y-45362018D03*
X173829276Y-51211018D03*
G04 #@! TO.N,/Orange*
X287629276Y-98978146D03*
X284329276Y-98987018D03*
G04 #@! TO.N,/Wht-Grn*
X284329276Y-104068146D03*
X287629276Y-104068146D03*
G04 #@! TO.N,/Blue*
X287629276Y-106568146D03*
X298429276Y-102906018D03*
X284329276Y-106588146D03*
G04 #@! TO.N,/Wht-Brown*
X299029276Y-106087018D03*
X287629276Y-114318146D03*
X284329276Y-114318146D03*
G04 #@! TO.N,/Brown*
X287629276Y-116787018D03*
X284329276Y-116868146D03*
G04 #@! TO.N,Net-(J4-Pad15)*
X271329276Y-122687018D03*
G04 #@! TO.N,Net-(C19-Pad1)*
X276629276Y-125087018D03*
G04 #@! TO.N,+LDO_IN*
X137000000Y-80400000D03*
X282500000Y-67900000D03*
G04 #@! TO.N,FC-CTR-NEG-AUX*
X132932781Y-44083018D03*
G04 #@! TO.N,CTR-FC-NEG*
X114429276Y-64187018D03*
X257239276Y-56099504D03*
G04 #@! TO.N,/iso+*
X225848906Y-99972887D03*
X263100000Y-125300000D03*
X225754276Y-94187018D03*
X227604276Y-98617017D03*
G04 #@! TO.N,GND2*
X323429276Y-139987018D03*
X324829276Y-135287018D03*
X319629276Y-132687018D03*
X318729276Y-143787018D03*
X322429276Y-150587018D03*
X322329276Y-129787018D03*
G04 #@! TO.N,MAX RX2*
X317929276Y-144987018D03*
G04 #@! TO.N,CAN2 Rx*
X135929276Y-114187018D03*
X139379276Y-114187018D03*
X272329276Y-78087018D03*
X140029276Y-83087018D03*
G04 #@! TO.N,Net-(U1-OUTB)*
X105829276Y-73587018D03*
X109229276Y-73587018D03*
G04 #@! TO.N,MAIN-SUP TX{slash}RX*
X262825778Y-58401057D03*
G04 #@! TO.N,SX Serial TX*
X202829276Y-46287018D03*
X192060044Y-55087018D03*
G04 #@! TO.N,SX Serial RX*
X192729276Y-55687018D03*
X204629276Y-45387018D03*
G04 #@! TO.N,FC-CTR-POS-AUX*
X132258276Y-43558018D03*
G04 #@! TO.N,Emergency Stop*
X262729276Y-115787018D03*
X249029276Y-111387018D03*
G04 #@! TO.N,Extra Input*
X262629276Y-112387018D03*
X249029276Y-110487018D03*
G04 #@! TO.N,Net-(C19-Pad2)*
X279829276Y-124187018D03*
X279129276Y-126487018D03*
G04 #@! TO.N,/FC-Neg-Jumper*
X101329276Y-54587018D03*
X99329276Y-52587018D03*
X99329276Y-55587018D03*
X100329276Y-55587018D03*
X99329276Y-53587018D03*
X100329276Y-53587018D03*
X101329276Y-52587018D03*
X100329276Y-54587018D03*
X99329276Y-54587018D03*
X100329276Y-52587018D03*
X101329276Y-53587018D03*
X101329276Y-55587018D03*
G04 #@! TO.N,+1V1*
X265369276Y-63797018D03*
X265939276Y-63797018D03*
X261802609Y-64090518D03*
X261811307Y-64790466D03*
G04 #@! TO.N,HMI Serial RX*
X273729276Y-82887018D03*
X257769276Y-66267018D03*
X258630332Y-80669668D03*
X182579276Y-69357018D03*
G04 #@! TO.N,+1V1_2*
X187229276Y-63487018D03*
X191309276Y-63157018D03*
X187229276Y-62887018D03*
X190719276Y-63157018D03*
G04 #@! TO.N,CTR-LNK-NEG*
X255009276Y-55177018D03*
X115873276Y-69887018D03*
G04 #@! TO.N,IsoSPI TX En*
X229329276Y-64818018D03*
X252522117Y-59950334D03*
G04 #@! TO.N,IsoSPI TX Data*
X251877147Y-60433495D03*
X228729276Y-64217018D03*
G04 #@! TO.N,I2C SDA Shunt*
X241059276Y-58788018D03*
X249579274Y-58788018D03*
G04 #@! TO.N,I2C SCL Shunt*
X251983519Y-58127018D03*
X239808594Y-58492926D03*
G04 #@! TO.N,CTR-LNK-POS*
X115729276Y-85187018D03*
X254259276Y-55197018D03*
G04 #@! TO.N,Shunt Sense +*
X236129276Y-132387018D03*
X236095067Y-130721227D03*
G04 #@! TO.N,IsoSPI RX L*
X251836300Y-71064018D03*
X176869276Y-71097018D03*
X218529276Y-71097018D03*
G04 #@! TO.N,IsoSPI RX H*
X176239276Y-70427018D03*
X251039276Y-70427018D03*
X219429276Y-70427018D03*
G04 #@! TO.N,CTR-FC-Pos*
X115629276Y-80087018D03*
X255769276Y-55177018D03*
G04 #@! TO.N,IsoSPI2 TX En*
X323229276Y-134822018D03*
G04 #@! TO.N,IsoSPI2 TX Data*
X322729276Y-135587018D03*
G04 #@! TO.N,PCS IPC CAN TX*
X154729276Y-81587018D03*
X252529276Y-85237021D03*
G04 #@! TO.N,/MCU2_GPIO1*
X207200000Y-66500000D03*
X190619276Y-58182018D03*
G04 #@! TO.N,PCS IPC CAN RX*
X252529276Y-85987024D03*
X154729276Y-83287018D03*
G04 #@! TO.N,Net-(U14-RUN)*
X254589276Y-63990518D03*
X221989276Y-66207018D03*
G04 #@! TO.N,PCS DCDC*
X154629276Y-79887018D03*
X252529276Y-84487018D03*
G04 #@! TO.N,/GPIO25*
X254739276Y-60477018D03*
X230029276Y-57987018D03*
G04 #@! TO.N,/QSPI_SS*
X221435508Y-56824323D03*
X262825776Y-60747018D03*
G04 #@! TD*
G04 #@! TO.N,GND*
D48*
X136899276Y-68897018D02*
X136879276Y-68877018D01*
X137569276Y-68897018D02*
X136899276Y-68897018D01*
G04 #@! TO.N,+3.3V*
D49*
X258029276Y-108757018D02*
X259741739Y-108757018D01*
D50*
X137229276Y-119187018D02*
X135829276Y-119187018D01*
D51*
X145759276Y-72217018D02*
X145729276Y-72187018D01*
X186199276Y-73387018D02*
X178629276Y-73387018D01*
X145729276Y-72187018D02*
X142329276Y-72187018D01*
X248129276Y-73387018D02*
X215229276Y-73387018D01*
D49*
X263829276Y-112844555D02*
X263829276Y-114287018D01*
X263829276Y-114287018D02*
X263829276Y-117687018D01*
D51*
X147489276Y-72217018D02*
X145759276Y-72217018D01*
D49*
X259741739Y-108757018D02*
X263829276Y-112844555D01*
D50*
X269829276Y-72987018D02*
X269429276Y-73387018D01*
D51*
X154429276Y-73387018D02*
X148659276Y-73387018D01*
D52*
X266109276Y-69526018D02*
X267248276Y-68387018D01*
D51*
X215229276Y-73387018D02*
X186199276Y-73387018D01*
D52*
X269429276Y-73387018D02*
X267279276Y-73387018D01*
D51*
X165519276Y-73387018D02*
X154429276Y-73387018D01*
D49*
X258029276Y-108757018D02*
X258029276Y-106237018D01*
D52*
X266109276Y-72217018D02*
X266109276Y-69526018D01*
D51*
X269429276Y-73387018D02*
X248129276Y-73387018D01*
X178629276Y-73387018D02*
X165519276Y-73387018D01*
X148659276Y-73387018D02*
X147489276Y-72217018D01*
D49*
X258029276Y-106237018D02*
X258049276Y-106217018D01*
D52*
X267279276Y-73387018D02*
X266109276Y-72217018D01*
G04 #@! TO.N,/FC-CTR-POS-AUX-D*
D49*
X71329276Y-89687018D02*
X71329276Y-59587018D01*
X69629276Y-91387018D02*
X71329276Y-89687018D01*
X71329276Y-59587018D02*
X70829276Y-59087018D01*
G04 #@! TO.N,/MCU2_GPIO14*
X121025717Y-53164018D02*
X118552276Y-53164018D01*
X121028717Y-53161018D02*
X182937954Y-53161018D01*
X118552276Y-53164018D02*
X116929276Y-54787018D01*
X182937954Y-53161018D02*
X183063276Y-53286340D01*
X121025717Y-53164018D02*
X121028717Y-53161018D01*
G04 #@! TO.N,CTR_EN*
X111599276Y-62257018D02*
X111629276Y-62287018D01*
X109929276Y-71087018D02*
X109229276Y-71787018D01*
X111629276Y-71087018D02*
X111629276Y-86487018D01*
X111929276Y-71087018D02*
X111629276Y-71087018D01*
X112729276Y-71087018D02*
X111929276Y-71087018D01*
X111629276Y-86487018D02*
X110029276Y-86487018D01*
X111929276Y-71087018D02*
X109929276Y-71087018D01*
X110029276Y-86487018D02*
X109229276Y-87287018D01*
X111629276Y-62287018D02*
X111629276Y-71087018D01*
G04 #@! TO.N,Net-(U18-AIN0)*
D53*
X184629276Y-112987018D02*
X184929276Y-113287018D01*
X159329276Y-112987018D02*
X152629276Y-119687018D01*
X184929276Y-113287018D02*
X184929276Y-113137018D01*
X172529276Y-112987018D02*
X184629276Y-112987018D01*
X172529276Y-112987018D02*
X159329276Y-112987018D01*
G04 #@! TO.N,+3.3VSen*
X188819276Y-111487018D02*
X179856776Y-102524518D01*
X193229276Y-111487018D02*
X188819276Y-111487018D01*
G04 #@! TO.N,Net-(U19-AIN0)*
X193308508Y-113687018D02*
X169329276Y-113687018D01*
X199029276Y-119712018D02*
X199029276Y-119407786D01*
X199029276Y-119407786D02*
X193308508Y-113687018D01*
G04 #@! TO.N,Net-(U18-AIN2)*
X179029276Y-114887018D02*
X191829276Y-114887018D01*
X174129276Y-119787018D02*
X179029276Y-114887018D01*
X170429276Y-116087018D02*
X170429276Y-114887018D01*
X174129276Y-119787018D02*
X170429276Y-116087018D01*
G04 #@! TO.N,Net-(U19-AIN3)*
X163529276Y-119887018D02*
X169080276Y-114336018D01*
X176378276Y-114336018D02*
X176429276Y-114387018D01*
X169080276Y-114336018D02*
X176378276Y-114336018D01*
G04 #@! TO.N,I2C SDA Vsense*
D49*
X191229276Y-98787018D02*
X190352867Y-99663427D01*
X252019276Y-56299323D02*
X221186971Y-56299323D01*
X191229276Y-98687018D02*
X191229276Y-98787018D01*
X221186971Y-56299323D02*
X215389276Y-62097018D01*
D53*
X189579276Y-105987018D02*
X189579276Y-110437018D01*
D49*
X215389276Y-62097018D02*
X202269276Y-62097018D01*
D53*
X189579276Y-110437018D02*
X190029276Y-110887018D01*
G04 #@! TO.N,I2C SCL Vsense*
D49*
X215314895Y-61341399D02*
X221109276Y-55547018D01*
X201399276Y-61839966D02*
X201897843Y-61341399D01*
X252016974Y-55547018D02*
X252019276Y-55549320D01*
X221109276Y-55547018D02*
X252016974Y-55547018D01*
X201399276Y-61847018D02*
X201399276Y-61839966D01*
X201897843Y-61341399D02*
X215314895Y-61341399D01*
G04 #@! TO.N,Vin Logic Sense*
X216354954Y-63287018D02*
X201229276Y-63287018D01*
X108669276Y-94207018D02*
X108669276Y-104767018D01*
X104309276Y-109107018D02*
X102529276Y-110887018D01*
X120302276Y-54514018D02*
X117589276Y-57227018D01*
X223829276Y-68987018D02*
X224355276Y-69513018D01*
X117589276Y-85287018D02*
X108669276Y-94207018D01*
X224355276Y-69513018D02*
X260048116Y-69513018D01*
X104329276Y-109107018D02*
X104309276Y-109107018D01*
X192456276Y-54514018D02*
X120302276Y-54514018D01*
X108669276Y-104767018D02*
X104329276Y-109107018D01*
X260048116Y-69513018D02*
X260059183Y-69524085D01*
X217854954Y-61787018D02*
X216354954Y-63287018D01*
X201229276Y-63287018D02*
X192456276Y-54514018D01*
X222029276Y-61787018D02*
X217854954Y-61787018D01*
X117589276Y-57227018D02*
X117589276Y-85287018D01*
G04 #@! TO.N,/Wht-Blue*
D53*
X284349276Y-109168146D02*
X284329276Y-109148146D01*
X287629276Y-109168146D02*
X284349276Y-109168146D01*
D49*
X287629276Y-109093146D02*
X292310404Y-104412018D01*
X302304276Y-103035877D02*
X302304276Y-102421018D01*
X292310404Y-104412018D02*
X300928135Y-104412018D01*
X300928135Y-104412018D02*
X302304276Y-103035877D01*
X287629276Y-109168146D02*
X287629276Y-109093146D01*
G04 #@! TO.N,/iso2-*
D54*
X337329276Y-128777018D02*
X336229276Y-127677018D01*
X336229276Y-127677018D02*
X336229276Y-124687018D01*
G04 #@! TO.N,IsoSPI2+*
X340929276Y-132287018D02*
X340929276Y-143687018D01*
X343179276Y-130037018D02*
X340929276Y-132287018D01*
X340929276Y-143687018D02*
X341429276Y-144187018D01*
X351796776Y-130037018D02*
X343179276Y-130037018D01*
G04 #@! TO.N,+5V*
D49*
X126351599Y-99878682D02*
X127219276Y-99011005D01*
D55*
X274629276Y-73987018D02*
X274629276Y-72487018D01*
X134079276Y-76337018D02*
X128366953Y-82049341D01*
X232869276Y-76351018D02*
X242829276Y-76351018D01*
D49*
X126351599Y-100947018D02*
X126351599Y-99878682D01*
D50*
X199429276Y-58387018D02*
X199429276Y-50487018D01*
D55*
X232855276Y-76337018D02*
X134079276Y-76337018D01*
X242829276Y-76351018D02*
X272265276Y-76351018D01*
X232869276Y-76351018D02*
X232855276Y-76337018D01*
D49*
X127219276Y-99011005D02*
X127219276Y-92347018D01*
D55*
X128366953Y-91199341D02*
X127219276Y-92347018D01*
X272265276Y-76351018D02*
X274629276Y-73987018D01*
X274629276Y-72487018D02*
X274729276Y-72387018D01*
X128366953Y-82049341D02*
X128366953Y-91199341D01*
G04 #@! TO.N,PCS Charge*
D49*
X252529276Y-87487030D02*
X243329288Y-87487030D01*
X180729276Y-88287018D02*
X156229276Y-88287018D01*
X156229276Y-88287018D02*
X154729276Y-86787018D01*
X186829276Y-82187018D02*
X180729276Y-88287018D01*
X243329288Y-87487030D02*
X238029276Y-82187018D01*
X238029276Y-82187018D02*
X186829276Y-82187018D01*
G04 #@! TO.N,Net-(J6-Pin_15)*
X82979273Y-50387018D02*
X136529276Y-50387018D01*
X136529276Y-50387018D02*
X137229276Y-51087018D01*
X71929276Y-61437015D02*
X82979273Y-50387018D01*
X71929276Y-96707018D02*
X71929276Y-61437015D01*
X69629276Y-99007018D02*
X71929276Y-96707018D01*
G04 #@! TO.N,Net-(U18-AIN3)*
D53*
X193229276Y-114887018D02*
X193229276Y-114387018D01*
X188229276Y-119887018D02*
X193229276Y-114887018D01*
G04 #@! TO.N,/Wht-Org*
D49*
X302304276Y-98357018D02*
X302304276Y-99010159D01*
D53*
X287599276Y-101538146D02*
X284378148Y-101538146D01*
X284329276Y-101587018D02*
X284580404Y-101587018D01*
D49*
X302304276Y-98971877D02*
X302304276Y-98357018D01*
D53*
X284378148Y-101538146D02*
X284329276Y-101587018D01*
D49*
X300846135Y-100430018D02*
X302304276Y-98971877D01*
X288637404Y-100430018D02*
X300846135Y-100430018D01*
X287629276Y-101568146D02*
X287629276Y-101438146D01*
D53*
X287629276Y-101568146D02*
X287599276Y-101538146D01*
D49*
X287629276Y-101438146D02*
X288637404Y-100430018D01*
G04 #@! TO.N,SUP-MAIN TX{slash}RX*
X227581952Y-57460018D02*
X261142276Y-57460018D01*
X213534276Y-65187018D02*
X216609276Y-65187018D01*
X219019276Y-62777018D02*
X222264952Y-62777018D01*
X222264952Y-62777018D02*
X227581952Y-57460018D01*
X210994276Y-67727018D02*
X213534276Y-65187018D01*
X216609276Y-65187018D02*
X219019276Y-62777018D01*
X261142276Y-57460018D02*
X262879276Y-59197018D01*
G04 #@! TO.N,/MCU2_GPIO2*
X207200000Y-65600000D02*
X205647018Y-64047018D01*
X205647018Y-64047018D02*
X198759276Y-64047018D01*
X192369276Y-57657018D02*
X190009276Y-57657018D01*
X198759276Y-64047018D02*
X192369276Y-57657018D01*
X190009276Y-57657018D02*
X189999276Y-57667018D01*
G04 #@! TO.N,/iso-*
X240429276Y-106667695D02*
X240429276Y-110412696D01*
X233174275Y-99987018D02*
X233748599Y-99987018D01*
X249967851Y-113749857D02*
X252529276Y-116311282D01*
X232404276Y-100757017D02*
X233174275Y-99987018D01*
X243766437Y-113749857D02*
X249967851Y-113749857D01*
X252529276Y-116311282D02*
X252529276Y-119629276D01*
X233748599Y-99987018D02*
X240429276Y-106667695D01*
X240429276Y-110412696D02*
X243766437Y-113749857D01*
X252529276Y-119629276D02*
X258100000Y-125200000D01*
G04 #@! TO.N,V_{Contactor}*
D56*
X88029276Y-111887018D02*
X88429276Y-111487018D01*
X68029276Y-111887018D02*
X88029276Y-111887018D01*
X59849276Y-103707018D02*
X68029276Y-111887018D01*
X55129276Y-92227018D02*
X59849276Y-96947018D01*
X59849276Y-96947018D02*
X59849276Y-103707018D01*
X52129276Y-92227018D02*
X55129276Y-92227018D01*
G04 #@! TO.N,Net-(J4-Pad16)*
D49*
X297192276Y-120487018D02*
X271429276Y-120487018D01*
X300524276Y-117155018D02*
X297192276Y-120487018D01*
G04 #@! TO.N,Net-(J4-Pad17)*
X303279276Y-117196018D02*
X303279276Y-115735159D01*
X301900417Y-115164018D02*
X300884417Y-116180018D01*
X302304276Y-118171018D02*
X303279276Y-117196018D01*
X303279276Y-115735159D02*
X302708135Y-115164018D01*
X300884417Y-116180018D02*
X300120417Y-116180018D01*
X302708135Y-115164018D02*
X301900417Y-115164018D01*
X300120417Y-116180018D02*
X296488417Y-119812018D01*
X272054276Y-119812018D02*
X271429276Y-119187018D01*
X296488417Y-119812018D02*
X272054276Y-119812018D01*
G04 #@! TO.N,HMI Serial TX*
X182065276Y-68701018D02*
X181439276Y-69327018D01*
X255539276Y-67707018D02*
X213909276Y-67707018D01*
X257019550Y-66246676D02*
X256999618Y-66246676D01*
X261654276Y-83412018D02*
X274409276Y-83412018D01*
X258100000Y-81200000D02*
X259442258Y-81200000D01*
X185953153Y-68857018D02*
X185677153Y-69133018D01*
X189483153Y-68857018D02*
X189447153Y-68893018D01*
X275034276Y-82787018D02*
X275034276Y-81792018D01*
X259442258Y-81200000D02*
X261654276Y-83412018D01*
X213909276Y-67707018D02*
X212759276Y-68857018D01*
X274409276Y-83412018D02*
X275034276Y-82787018D01*
X189447153Y-68893018D02*
X189011399Y-68893018D01*
X256999618Y-66246676D02*
X255539276Y-67707018D01*
X189011399Y-68893018D02*
X188975399Y-68857018D01*
X188975399Y-68857018D02*
X185953153Y-68857018D01*
X212759276Y-68857018D02*
X189483153Y-68857018D01*
X184369153Y-69133018D02*
X183937153Y-68701018D01*
X185677153Y-69133018D02*
X184369153Y-69133018D01*
X275034276Y-81792018D02*
X273629276Y-80387018D01*
X183937153Y-68701018D02*
X182065276Y-68701018D01*
G04 #@! TO.N,Net-(J6-Pin_1)*
X94084313Y-49087018D02*
X95064313Y-48107018D01*
X66629276Y-99007018D02*
X64929276Y-97307018D01*
X70279267Y-56287018D02*
X75056484Y-56287018D01*
X82256484Y-49087018D02*
X94084313Y-49087018D01*
X95064313Y-48107018D02*
X137249288Y-48107018D01*
X75056484Y-56287018D02*
X82256484Y-49087018D01*
X64229276Y-93439035D02*
X64229276Y-62337009D01*
X64929276Y-94139035D02*
X64229276Y-93439035D01*
X64929276Y-97307018D02*
X64929276Y-94139035D01*
X137249288Y-48107018D02*
X140229288Y-51087018D01*
X64229276Y-62337009D02*
X70279267Y-56287018D01*
G04 #@! TO.N,Net-(J6-Pin_2)*
X75429276Y-57187018D02*
X82629276Y-49987018D01*
X66629276Y-96467018D02*
X68229276Y-94867018D01*
X68329276Y-87571282D02*
X68329276Y-60487018D01*
X136879279Y-49987018D02*
X137979279Y-51087018D01*
X68329276Y-60487018D02*
X71629276Y-57187018D01*
X71629276Y-57187018D02*
X75429276Y-57187018D01*
X68229276Y-94867018D02*
X68229276Y-87671282D01*
X82629276Y-49987018D02*
X136879279Y-49987018D01*
X68229276Y-87671282D02*
X68329276Y-87571282D01*
G04 #@! TO.N,Net-(J6-Pin_5)*
X68029276Y-60037015D02*
X71179273Y-56887018D01*
X75305012Y-56887018D02*
X82505012Y-49687018D01*
X137329282Y-49687018D02*
X138729282Y-51087018D01*
X71179273Y-56887018D02*
X75305012Y-56887018D01*
X68029276Y-87447018D02*
X68029276Y-60037015D01*
X82505012Y-49687018D02*
X137329282Y-49687018D01*
X66629276Y-88847018D02*
X68029276Y-87447018D01*
G04 #@! TO.N,Net-(J6-Pin_6)*
X136964285Y-48572018D02*
X139479285Y-51087018D01*
X66629276Y-86307018D02*
X64629276Y-84307018D01*
X64629276Y-84307018D02*
X64629276Y-62687012D01*
X82380748Y-49387018D02*
X129576813Y-49387018D01*
X75180748Y-56587018D02*
X82380748Y-49387018D01*
X129576813Y-49387018D02*
X130391813Y-48572018D01*
X70729270Y-56587018D02*
X75180748Y-56587018D01*
X130391813Y-48572018D02*
X136964285Y-48572018D01*
X64629276Y-62687012D02*
X70729270Y-56587018D01*
G04 #@! TO.N,/FC-CTR-NEG-AUX-D*
X71629276Y-58562018D02*
X71354276Y-58287018D01*
X69629276Y-93927018D02*
X71629276Y-91927018D01*
X71629276Y-91927018D02*
X71629276Y-58562018D01*
G04 #@! TO.N,Net-(J6-Pin_29)*
X73629276Y-96467018D02*
X76154276Y-93942018D01*
X76129276Y-57987018D02*
X83029276Y-51087018D01*
X76154276Y-93942018D02*
X76154276Y-58012018D01*
X83029276Y-51087018D02*
X136429276Y-51087018D01*
X76154276Y-58012018D02*
X76129276Y-57987018D01*
G04 #@! TO.N,C Neg (GND)*
D55*
X82129276Y-100157018D02*
X82129276Y-80967018D01*
X82129276Y-80967018D02*
X80159276Y-78997018D01*
X80159276Y-78997018D02*
X77629276Y-78997018D01*
X56469276Y-88417018D02*
X63119276Y-95067018D01*
X52129276Y-88417018D02*
X56469276Y-88417018D01*
X64809276Y-102187018D02*
X80099276Y-102187018D01*
X63119276Y-95067018D02*
X63119276Y-100497018D01*
X63119276Y-100497018D02*
X64809276Y-102187018D01*
X80099276Y-102187018D02*
X82129276Y-100157018D01*
G04 #@! TO.N,Net-(U18-AIN1)*
D53*
X209729276Y-119812018D02*
X203054276Y-113137018D01*
X203054276Y-113137018D02*
X185929276Y-113137018D01*
G04 #@! TO.N,/USB_D+*
D52*
X291219276Y-66022018D02*
X287024276Y-61827018D01*
X293539276Y-64927018D02*
X292444276Y-66022018D01*
X277769276Y-61827018D02*
X268869276Y-61827018D01*
X292444276Y-66022018D02*
X291219276Y-66022018D01*
X268869276Y-61827018D02*
X268629276Y-61587018D01*
X287024276Y-61827018D02*
X277769276Y-61827018D01*
G04 #@! TO.N,/USB_D-*
X277769276Y-62198018D02*
X268918276Y-62198018D01*
X291065602Y-66393018D02*
X286870602Y-62198018D01*
X293539276Y-67467018D02*
X292465276Y-66393018D01*
X268918276Y-62198018D02*
X268629276Y-62487018D01*
X286870602Y-62198018D02*
X277740276Y-62198018D01*
X292465276Y-66393018D02*
X291065602Y-66393018D01*
G04 #@! TO.N,/Grn*
D53*
X284350648Y-111668146D02*
X284329276Y-111689518D01*
X294284404Y-104938018D02*
X298729276Y-104938018D01*
X287629276Y-111668146D02*
X287629276Y-111593146D01*
X287629276Y-111668146D02*
X284350648Y-111668146D01*
X287629276Y-111593146D02*
X294284404Y-104938018D01*
G04 #@! TO.N,/MCU2_GPIO6*
D49*
X189449276Y-46587018D02*
X188009276Y-48027018D01*
X198329276Y-46587018D02*
X189449276Y-46587018D01*
G04 #@! TO.N,MAX RX*
D53*
X200929276Y-48687018D02*
X213404276Y-48687018D01*
G04 #@! TO.N,/QSPI2_SS*
D49*
X192829276Y-59987018D02*
X195829276Y-62987018D01*
X177129276Y-83787018D02*
X178729276Y-83787018D01*
X195829276Y-62987018D02*
X195829276Y-63087018D01*
G04 #@! TO.N,VContactor Sense*
X119803276Y-54213018D02*
X117029276Y-56987018D01*
X221629276Y-61387018D02*
X217829276Y-61387018D01*
X117029276Y-85077018D02*
X108199276Y-93907018D01*
X217829276Y-61387018D02*
X216230276Y-62986018D01*
X234359276Y-68987018D02*
X224729276Y-68987018D01*
X216230276Y-62986018D02*
X201388276Y-62986018D01*
X234359276Y-68987018D02*
X243069276Y-68987018D01*
X108199276Y-103017018D02*
X104059276Y-107157018D01*
X201388276Y-62986018D02*
X192615276Y-54213018D01*
X222029276Y-60987018D02*
X221629276Y-61387018D01*
X117029276Y-56987018D02*
X117029276Y-85077018D01*
X192615276Y-54213018D02*
X119803276Y-54213018D01*
X260629276Y-68987018D02*
X243029276Y-68987018D01*
X108199276Y-93907018D02*
X108199276Y-103017018D01*
G04 #@! TO.N,CAN2 Tx*
D53*
X262969465Y-79000000D02*
X263076483Y-79107018D01*
X263076483Y-79107018D02*
X272109276Y-79107018D01*
X140929276Y-83087018D02*
X145029276Y-78987018D01*
X145029276Y-79000000D02*
X262969465Y-79000000D01*
X135929276Y-114987018D02*
X139379276Y-114987018D01*
X272129276Y-50687018D02*
X270009276Y-50687018D01*
X145029276Y-78987018D02*
X145029276Y-79000000D01*
X272109276Y-79107018D02*
X273129276Y-78087018D01*
X270009276Y-50687018D02*
X267809276Y-48487018D01*
G04 #@! TO.N,PCS Enable*
D49*
X157729276Y-87987018D02*
X154729276Y-84987018D01*
X243055021Y-86737027D02*
X238205012Y-81887018D01*
X180602068Y-87987018D02*
X157729276Y-87987018D01*
X252529276Y-86737027D02*
X243055021Y-86737027D01*
X238205012Y-81887018D02*
X186702068Y-81887018D01*
X186702068Y-81887018D02*
X180602068Y-87987018D01*
G04 #@! TO.N,/MCU2_GPIO25*
X195105276Y-51211018D02*
X201454276Y-44862018D01*
X209429276Y-44862018D02*
X209929276Y-45362018D01*
X201454276Y-44862018D02*
X209429276Y-44862018D01*
X173829276Y-51211018D02*
X195105276Y-51211018D01*
G04 #@! TO.N,/Orange*
D53*
X284338148Y-98978146D02*
X284329276Y-98987018D01*
X288015276Y-99373018D02*
X300524276Y-99373018D01*
X287629276Y-98978146D02*
X284338148Y-98978146D01*
X287629276Y-98978146D02*
X287629276Y-98987018D01*
X287629276Y-98987018D02*
X288015276Y-99373018D01*
G04 #@! TO.N,/Wht-Grn*
X284329276Y-104068146D02*
X287629276Y-104068146D01*
D49*
X289265404Y-102357018D02*
X299672739Y-102357018D01*
X300927135Y-102381018D02*
X302304276Y-101003877D01*
X299696739Y-102381018D02*
X300927135Y-102381018D01*
X299672739Y-102357018D02*
X299696739Y-102381018D01*
X302304276Y-101003877D02*
X302304276Y-100389018D01*
X287629276Y-104068146D02*
X287629276Y-103993146D01*
X287629276Y-103993146D02*
X289265404Y-102357018D01*
G04 #@! TO.N,/Blue*
D53*
X298429276Y-102906018D02*
X291291404Y-102906018D01*
X291291404Y-102906018D02*
X287629276Y-106568146D01*
X284349276Y-106568146D02*
X287629276Y-106568146D01*
X284329276Y-106588146D02*
X284349276Y-106568146D01*
G04 #@! TO.N,/Wht-Brown*
X297340276Y-107776018D02*
X299029276Y-106087018D01*
X294096404Y-107776018D02*
X297340276Y-107776018D01*
X287629276Y-114318146D02*
X284329276Y-114318146D01*
X287629276Y-114243146D02*
X294096404Y-107776018D01*
X287629276Y-114318146D02*
X287629276Y-114243146D01*
G04 #@! TO.N,/Brown*
X294616404Y-109806018D02*
X296187276Y-109806018D01*
X287635404Y-116787018D02*
X294616404Y-109806018D01*
X296187276Y-109806018D02*
X300524276Y-105469018D01*
X287548148Y-116868146D02*
X284329276Y-116868146D01*
X287629276Y-116787018D02*
X287635404Y-116787018D01*
X287629276Y-116787018D02*
X287548148Y-116868146D01*
G04 #@! TO.N,Net-(J4-Pad15)*
D49*
X272754276Y-121262018D02*
X271329276Y-122687018D01*
X300928135Y-118130018D02*
X300120417Y-118130018D01*
X302304276Y-116139018D02*
X302304276Y-116753877D01*
X296988417Y-121262018D02*
X272754276Y-121262018D01*
X302304276Y-116753877D02*
X300928135Y-118130018D01*
X300120417Y-118130018D02*
X296988417Y-121262018D01*
G04 #@! TO.N,Net-(C19-Pad1)*
X298531276Y-123212018D02*
X278504276Y-123212018D01*
X297584276Y-112687018D02*
X295704276Y-110807018D01*
X303697276Y-121219018D02*
X304429276Y-120487018D01*
X278504276Y-123212018D02*
X276629276Y-125087018D01*
X300524276Y-121219018D02*
X303697276Y-121219018D01*
X300524276Y-121219018D02*
X298531276Y-123212018D01*
X304429276Y-120487018D02*
X304429276Y-112687018D01*
X304429276Y-112687018D02*
X297584276Y-112687018D01*
G04 #@! TO.N,+LDO_IN*
D50*
X282400000Y-69876955D02*
X276300000Y-75976955D01*
X241912018Y-88812018D02*
X236600000Y-83500000D01*
X181400000Y-90200000D02*
X146081597Y-90200000D01*
X282500000Y-67900000D02*
X282500000Y-69729276D01*
X188100000Y-83500000D02*
X181400000Y-90200000D01*
X274300000Y-85400000D02*
X257700000Y-85400000D01*
X257700000Y-85400000D02*
X254287982Y-88812018D01*
X282500000Y-69729276D02*
X282400000Y-69829276D01*
X254287982Y-88812018D02*
X241912018Y-88812018D01*
X276300000Y-83400000D02*
X274300000Y-85400000D01*
X137000000Y-81118403D02*
X137000000Y-80400000D01*
X146081597Y-90200000D02*
X137000000Y-81118403D01*
X282400000Y-69829276D02*
X282400000Y-69876955D01*
X276300000Y-75976955D02*
X276300000Y-83400000D01*
X236600000Y-83500000D02*
X188100000Y-83500000D01*
G04 #@! TO.N,FC-CTR-NEG-AUX*
D49*
X132932781Y-44083018D02*
X133106781Y-43909018D01*
X133106781Y-43909018D02*
X250131276Y-43909018D01*
X251319276Y-47237018D02*
X252569276Y-48487018D01*
X250131276Y-43909018D02*
X251319276Y-45097018D01*
X251319276Y-45097018D02*
X251319276Y-47237018D01*
G04 #@! TO.N,CTR-FC-NEG*
X199829276Y-46987018D02*
X230229276Y-46987018D01*
X114439276Y-55241340D02*
X117944598Y-51736018D01*
X195080276Y-51736018D02*
X199829276Y-46987018D01*
X230229276Y-46987018D02*
X236321437Y-53079179D01*
X254415314Y-53079179D02*
X257239276Y-55903141D01*
X257239276Y-55903141D02*
X257239276Y-56099504D01*
X114429276Y-64187018D02*
X114439276Y-64177018D01*
X114439276Y-64177018D02*
X114439276Y-55241340D01*
X236321437Y-53079179D02*
X254415314Y-53079179D01*
X117944598Y-51736018D02*
X195080276Y-51736018D01*
G04 #@! TO.N,/iso+*
D53*
X226305276Y-99516517D02*
X225848906Y-99972887D01*
X226305276Y-94738018D02*
X226305276Y-98617017D01*
D49*
X240829276Y-110387018D02*
X243829276Y-113387018D01*
X240829276Y-106642017D02*
X240829276Y-110387018D01*
X257999264Y-124675000D02*
X262475000Y-124675000D01*
X243829276Y-113387018D02*
X250029276Y-113387018D01*
D53*
X225754276Y-94187018D02*
X226305276Y-94738018D01*
X226305276Y-98617017D02*
X226305276Y-99516517D01*
D49*
X250029276Y-113387018D02*
X252829276Y-116187018D01*
X252829276Y-116187018D02*
X252829276Y-119505012D01*
X252829276Y-119505012D02*
X257999264Y-124675000D01*
X232404276Y-98217017D02*
X240829276Y-106642017D01*
D53*
X226305276Y-98617017D02*
X227604276Y-98617017D01*
D49*
X262475000Y-124675000D02*
X263100000Y-125300000D01*
G04 #@! TO.N,MAX RX2*
X317929276Y-138487018D02*
X317929276Y-144987018D01*
X322119276Y-134297018D02*
X317929276Y-138487018D01*
X333119276Y-134297018D02*
X322119276Y-134297018D01*
G04 #@! TO.N,CAN2 Rx*
D53*
X262951458Y-78487018D02*
X263221458Y-78757018D01*
X144629276Y-78487018D02*
X262951458Y-78487018D01*
X140029276Y-83087018D02*
X144629276Y-78487018D01*
X263221458Y-78757018D02*
X271659276Y-78757018D01*
X271659276Y-78757018D02*
X272329276Y-78087018D01*
X135929276Y-114187018D02*
X139379276Y-114187018D01*
G04 #@! TO.N,Net-(U1-OUTB)*
D57*
X109229276Y-73587018D02*
X105829276Y-73587018D01*
G04 #@! TO.N,MAIN-SUP TX{slash}RX*
D49*
X218903598Y-62467018D02*
X217159598Y-64211018D01*
X217159598Y-64211018D02*
X211970276Y-64211018D01*
X211970276Y-64211018D02*
X210994276Y-65187018D01*
X261583739Y-57159018D02*
X227457276Y-57159018D01*
X222149276Y-62467018D02*
X218903598Y-62467018D01*
X227457276Y-57159018D02*
X222149276Y-62467018D01*
X262825778Y-58401057D02*
X261583739Y-57159018D01*
G04 #@! TO.N,SX Serial TX*
X202829276Y-46287018D02*
X231729276Y-46287018D01*
X156529276Y-55087018D02*
X155429276Y-56187018D01*
X155429276Y-56187018D02*
X151469276Y-56187018D01*
X257889276Y-50787018D02*
X260189276Y-48487018D01*
X192060044Y-55087018D02*
X156529276Y-55087018D01*
X231729276Y-46287018D02*
X236229276Y-50787018D01*
X236229276Y-50787018D02*
X257889276Y-50787018D01*
G04 #@! TO.N,SX Serial RX*
X204629276Y-45387018D02*
X205129276Y-45887018D01*
X205129276Y-45887018D02*
X235129276Y-45887018D01*
X159329276Y-55687018D02*
X157529276Y-57487018D01*
X239029276Y-49787018D02*
X256349276Y-49787018D01*
X235129276Y-45887018D02*
X239029276Y-49787018D01*
X150229276Y-57487018D02*
X148929276Y-56187018D01*
X157529276Y-57487018D02*
X150229276Y-57487018D01*
X256349276Y-49787018D02*
X257649276Y-48487018D01*
X192729276Y-55687018D02*
X159329276Y-55687018D01*
G04 #@! TO.N,FC-CTR-POS-AUX*
X253670276Y-45490968D02*
X253670276Y-47048018D01*
X253670276Y-47048018D02*
X255109276Y-48487018D01*
X251737326Y-43558018D02*
X253670276Y-45490968D01*
X132258276Y-43558018D02*
X251737326Y-43558018D01*
G04 #@! TO.N,Emergency Stop*
X196989276Y-44487018D02*
X196763276Y-44261018D01*
X176385276Y-45121018D02*
X176385276Y-46951018D01*
X249029276Y-111387018D02*
X251843276Y-114201018D01*
X261143276Y-114201018D02*
X262729276Y-115787018D01*
X251843276Y-114201018D02*
X261143276Y-114201018D01*
X242799276Y-44487018D02*
X196989276Y-44487018D01*
X177245276Y-44261018D02*
X176385276Y-45121018D01*
X250029276Y-48487018D02*
X248779276Y-47237018D01*
X176385276Y-46951018D02*
X175309276Y-48027018D01*
X196763276Y-44261018D02*
X177245276Y-44261018D01*
X245549276Y-47237018D02*
X242799276Y-44487018D01*
X248779276Y-47237018D02*
X245549276Y-47237018D01*
G04 #@! TO.N,Extra Input*
X249029276Y-110487018D02*
X252309276Y-113767018D01*
X252309276Y-113767018D02*
X261249276Y-113767018D01*
X261249276Y-113767018D02*
X262629276Y-112387018D01*
G04 #@! TO.N,Net-(C19-Pad2)*
X279129276Y-124887018D02*
X279129276Y-126487018D01*
X279829276Y-124187018D02*
X279129276Y-124887018D01*
G04 #@! TO.N,+1V1*
D48*
X261811307Y-64790466D02*
X261802609Y-64781768D01*
X265645776Y-64090518D02*
X261802609Y-64090518D01*
X261802609Y-64781768D02*
X261802609Y-64090518D01*
X265939276Y-63797018D02*
X265645776Y-64090518D01*
G04 #@! TO.N,HMI Serial RX*
D49*
X261901023Y-82887018D02*
X273729276Y-82887018D01*
X258630332Y-80669668D02*
X259683673Y-80669668D01*
X187383276Y-69753018D02*
X182975276Y-69753018D01*
X255759276Y-68277018D02*
X214359274Y-68277018D01*
X214359274Y-68277018D02*
X213219274Y-69417018D01*
X187399276Y-69737018D02*
X187383276Y-69753018D01*
X182579276Y-69357018D02*
X182719276Y-69217018D01*
X213219274Y-69417018D02*
X187729276Y-69417018D01*
X257769276Y-66267018D02*
X255759276Y-68277018D01*
X187729276Y-69417018D02*
X187409276Y-69737018D01*
X187409276Y-69737018D02*
X187399276Y-69737018D01*
X259683673Y-80669668D02*
X261901023Y-82887018D01*
X182975276Y-69753018D02*
X182579276Y-69357018D01*
G04 #@! TO.N,+1V1_2*
X190719276Y-63157018D02*
X190719276Y-63282846D01*
D48*
X190979276Y-63487018D02*
X187229276Y-63487018D01*
D49*
X190979276Y-63487018D02*
X191309276Y-63157018D01*
X190813448Y-63377018D02*
X191089276Y-63377018D01*
D48*
X187229276Y-63487018D02*
X187229276Y-62887018D01*
D49*
X191089276Y-63377018D02*
X191309276Y-63157018D01*
X190719276Y-63282846D02*
X190813448Y-63377018D01*
G04 #@! TO.N,CTR-LNK-NEG*
X118193954Y-52338018D02*
X115879276Y-54652696D01*
X255009276Y-54757018D02*
X254060276Y-53808018D01*
X115879276Y-69881018D02*
X115873276Y-69887018D01*
X115879276Y-54652696D02*
X115879276Y-69881018D01*
X255009276Y-55177018D02*
X255009276Y-54757018D01*
X200078632Y-47589018D02*
X195329632Y-52338018D01*
X195329632Y-52338018D02*
X118193954Y-52338018D01*
X254060276Y-53808018D02*
X236198920Y-53808018D01*
X229979920Y-47589018D02*
X200078632Y-47589018D01*
X236198920Y-53808018D02*
X229979920Y-47589018D01*
G04 #@! TO.N,IsoSPI TX En*
X250515501Y-62539018D02*
X252522117Y-60532402D01*
X245393952Y-64818018D02*
X247672952Y-62539018D01*
X247672952Y-62539018D02*
X250515501Y-62539018D01*
X252522117Y-60532402D02*
X252522117Y-59950334D01*
X229329276Y-64818018D02*
X245393952Y-64818018D01*
G04 #@! TO.N,IsoSPI TX Data*
X247479276Y-61957018D02*
X250353624Y-61957018D01*
X228729276Y-64217018D02*
X245219276Y-64217018D01*
X250353624Y-61957018D02*
X251877147Y-60433495D01*
X245219276Y-64217018D02*
X247479276Y-61957018D01*
G04 #@! TO.N,I2C SDA Shunt*
X241059276Y-58788018D02*
X249579274Y-58788018D01*
G04 #@! TO.N,I2C SCL Shunt*
X240249593Y-57986018D02*
X251842519Y-57986018D01*
X251842519Y-57986018D02*
X251983519Y-58127018D01*
X239808594Y-58427017D02*
X240249593Y-57986018D01*
X239808594Y-58492926D02*
X239808594Y-58427017D01*
G04 #@! TO.N,CTR-LNK-POS*
X116399276Y-54558374D02*
X118318632Y-52639018D01*
X118318632Y-52639018D02*
X195454310Y-52639018D01*
X200203310Y-47890018D02*
X229855242Y-47890018D01*
X229855242Y-47890018D02*
X236092242Y-54127018D01*
X116399276Y-84517018D02*
X116399276Y-54558374D01*
X254259276Y-54587018D02*
X254259276Y-55197018D01*
X195454310Y-52639018D02*
X200203310Y-47890018D01*
X236092242Y-54127018D02*
X253799276Y-54127018D01*
X253799276Y-54127018D02*
X254259276Y-54587018D01*
X115729276Y-85187018D02*
X116399276Y-84517018D01*
G04 #@! TO.N,Shunt Sense +*
D54*
X236095067Y-132352809D02*
X236129276Y-132387018D01*
X236095067Y-130721227D02*
X236095067Y-132352809D01*
G04 #@! TO.N,IsoSPI RX L*
D49*
X218529276Y-71097018D02*
X251803300Y-71097018D01*
X251803300Y-71097018D02*
X251836300Y-71064018D01*
X218529276Y-71097018D02*
X176869276Y-71097018D01*
G04 #@! TO.N,IsoSPI RX H*
X251039276Y-70427018D02*
X219429276Y-70427018D01*
X219429276Y-70427018D02*
X176239276Y-70427018D01*
G04 #@! TO.N,CTR-FC-Pos*
X118069276Y-52037018D02*
X195204952Y-52037018D01*
X199953952Y-47288018D02*
X230104600Y-47288018D01*
X195204952Y-52037018D02*
X199953952Y-47288018D01*
X230104600Y-47288018D02*
X236323600Y-53507018D01*
X254279276Y-53507018D02*
X255769276Y-54997018D01*
X115348276Y-54758018D02*
X118069276Y-52037018D01*
X115348276Y-79806018D02*
X115348276Y-54758018D01*
X115629276Y-80087018D02*
X115348276Y-79806018D01*
X236323600Y-53507018D02*
X254279276Y-53507018D01*
X255769276Y-54997018D02*
X255769276Y-55177018D01*
G04 #@! TO.N,IsoSPI2 TX En*
X323229276Y-134687018D02*
X323229276Y-134822018D01*
X327919276Y-139377018D02*
X323229276Y-134687018D01*
X333979276Y-139437018D02*
X333919276Y-139377018D01*
X333919276Y-139377018D02*
X327919276Y-139377018D01*
G04 #@! TO.N,IsoSPI2 TX Data*
X333119276Y-141917018D02*
X331859276Y-141917018D01*
X327629276Y-139787018D02*
X323429276Y-135587018D01*
X329729276Y-139787018D02*
X327629276Y-139787018D01*
X323429276Y-135587018D02*
X322729276Y-135587018D01*
X333979276Y-141977018D02*
X333919276Y-141917018D01*
X331859276Y-141917018D02*
X329729276Y-139787018D01*
G04 #@! TO.N,PCS IPC CAN TX*
X186453540Y-81287018D02*
X180353540Y-87387018D01*
X160529276Y-87387018D02*
X154729276Y-81587018D01*
X180353540Y-87387018D02*
X160529276Y-87387018D01*
X238505012Y-81287018D02*
X186453540Y-81287018D01*
X242455015Y-85237021D02*
X238505012Y-81287018D01*
X252529276Y-85237021D02*
X242455015Y-85237021D01*
G04 #@! TO.N,/MCU2_GPIO1*
X207200000Y-66500000D02*
X205757018Y-65057018D01*
X199269276Y-65057018D02*
X192394276Y-58182018D01*
X205757018Y-65057018D02*
X199269276Y-65057018D01*
X192394276Y-58182018D02*
X190619276Y-58182018D01*
G04 #@! TO.N,PCS IPC CAN RX*
X159129276Y-87687018D02*
X154729276Y-83287018D01*
X252529276Y-85987024D02*
X242729282Y-85987024D01*
X238329276Y-81587018D02*
X186577804Y-81587018D01*
X242729282Y-85987024D02*
X238329276Y-81587018D01*
X186577804Y-81587018D02*
X180477804Y-87687018D01*
X180477804Y-87687018D02*
X159129276Y-87687018D01*
G04 #@! TO.N,Net-(U14-RUN)*
X242359276Y-66207018D02*
X221989276Y-66207018D01*
X254589276Y-63990518D02*
X251332776Y-67247018D01*
X251332776Y-67247018D02*
X243399276Y-67247018D01*
X243399276Y-67247018D02*
X242359276Y-66207018D01*
G04 #@! TO.N,PCS DCDC*
X161829276Y-87087018D02*
X154629276Y-79887018D01*
X252529276Y-84487018D02*
X242129276Y-84487018D01*
X180229276Y-87087018D02*
X161829276Y-87087018D01*
X238629276Y-80987018D02*
X186329276Y-80987018D01*
X186329276Y-80987018D02*
X180229276Y-87087018D01*
X242129276Y-84487018D02*
X238629276Y-80987018D01*
G04 #@! TO.N,/GPIO25*
X239366315Y-59307018D02*
X239372315Y-59313018D01*
X231349276Y-59307018D02*
X239366315Y-59307018D01*
X239372315Y-59313018D02*
X253575276Y-59313018D01*
X253575276Y-59313018D02*
X254739276Y-60477018D01*
X230029276Y-57987018D02*
X231349276Y-59307018D01*
G04 #@! TO.N,/QSPI_SS*
X263405276Y-60167518D02*
X262825776Y-60747018D01*
X261992921Y-56824323D02*
X263405276Y-58236678D01*
X221435508Y-56824323D02*
X261992921Y-56824323D01*
X263405276Y-58236678D02*
X263405276Y-60167518D01*
G04 #@! TD*
G04 #@! TA.AperFunction,Conductor*
G04 #@! TO.N,C Neg (GND)*
G36*
X96504891Y-76387283D02*
G01*
X96527365Y-76388755D01*
X96753807Y-76403597D01*
X96769865Y-76405712D01*
X97010514Y-76453580D01*
X97026180Y-76457778D01*
X97195772Y-76515346D01*
X97258521Y-76536647D01*
X97273498Y-76542850D01*
X97476088Y-76642756D01*
X97493559Y-76651372D01*
X97507605Y-76659482D01*
X97711613Y-76795795D01*
X97724482Y-76805669D01*
X97912013Y-76970130D01*
X97917935Y-76975677D01*
X101740616Y-80798358D01*
X101746163Y-80804280D01*
X101910624Y-80991811D01*
X101920498Y-81004680D01*
X102056811Y-81208688D01*
X102064921Y-81222734D01*
X102173440Y-81442788D01*
X102179647Y-81457774D01*
X102258515Y-81690113D01*
X102262713Y-81705779D01*
X102310579Y-81946414D01*
X102312697Y-81962496D01*
X102329011Y-82211401D01*
X102329276Y-82219511D01*
X102329276Y-87882590D01*
X102328960Y-87891436D01*
X102309551Y-88162803D01*
X102307033Y-88180315D01*
X102250148Y-88441812D01*
X102245164Y-88458788D01*
X102151637Y-88709542D01*
X102144287Y-88725635D01*
X102016034Y-88960514D01*
X102006469Y-88975398D01*
X101846087Y-89189642D01*
X101834501Y-89203012D01*
X101645270Y-89392243D01*
X101631900Y-89403829D01*
X101417656Y-89564211D01*
X101402772Y-89573776D01*
X101167893Y-89702029D01*
X101151800Y-89709379D01*
X100901046Y-89802906D01*
X100884070Y-89807890D01*
X100622573Y-89864775D01*
X100605061Y-89867293D01*
X100333694Y-89886702D01*
X100324848Y-89887018D01*
X96770559Y-89887018D01*
X96761514Y-89886688D01*
X96484085Y-89866398D01*
X96466189Y-89863766D01*
X96199101Y-89804316D01*
X96181778Y-89799108D01*
X95926191Y-89701436D01*
X95909809Y-89693764D01*
X95671134Y-89559934D01*
X95656052Y-89549965D01*
X95439391Y-89382838D01*
X95425916Y-89370777D01*
X95232727Y-89170644D01*
X95226683Y-89163907D01*
X93928974Y-87606655D01*
X93928972Y-87606652D01*
X93726333Y-87396730D01*
X93726331Y-87396728D01*
X93495326Y-87218536D01*
X93495322Y-87218534D01*
X93495323Y-87218534D01*
X93495321Y-87218533D01*
X93240837Y-87075839D01*
X93240834Y-87075838D01*
X93240831Y-87075836D01*
X93240827Y-87075834D01*
X92968303Y-86971690D01*
X92683514Y-86908300D01*
X92683513Y-86908299D01*
X92683509Y-86908299D01*
X92484371Y-86893735D01*
X92392530Y-86887018D01*
X92392526Y-86887018D01*
X87161770Y-86887018D01*
X87153660Y-86886753D01*
X86904754Y-86870439D01*
X86888673Y-86868321D01*
X86855059Y-86861634D01*
X86648037Y-86820455D01*
X86632371Y-86816257D01*
X86400032Y-86737389D01*
X86385046Y-86731182D01*
X86164992Y-86622663D01*
X86150946Y-86614553D01*
X85946938Y-86478240D01*
X85934069Y-86468366D01*
X85746538Y-86303905D01*
X85740616Y-86298358D01*
X80417935Y-80975677D01*
X80412388Y-80969755D01*
X80264597Y-80801232D01*
X80247924Y-80782220D01*
X80238053Y-80769355D01*
X80101740Y-80565347D01*
X80093630Y-80551301D01*
X80088895Y-80541699D01*
X79985108Y-80331240D01*
X79978904Y-80316261D01*
X79900036Y-80083922D01*
X79895838Y-80068256D01*
X79847970Y-79827607D01*
X79845855Y-79811549D01*
X79829541Y-79562633D01*
X79829276Y-79554524D01*
X79829276Y-78891124D01*
X79829548Y-78882917D01*
X79846255Y-78631046D01*
X79848420Y-78614800D01*
X79897438Y-78371366D01*
X79901730Y-78355546D01*
X79982476Y-78120712D01*
X79988816Y-78105608D01*
X80099869Y-77883501D01*
X80108155Y-77869355D01*
X80247573Y-77663861D01*
X80257648Y-77650942D01*
X80422989Y-77465662D01*
X80434685Y-77454185D01*
X80626179Y-77289678D01*
X80632545Y-77284566D01*
X81292759Y-76789405D01*
X81299272Y-76784840D01*
X81504544Y-76650601D01*
X81518402Y-76642762D01*
X81735602Y-76537722D01*
X81750349Y-76531727D01*
X81979234Y-76455432D01*
X81994638Y-76451377D01*
X82231428Y-76405088D01*
X82247220Y-76403045D01*
X82491955Y-76387275D01*
X82499929Y-76387018D01*
X96496782Y-76387018D01*
X96504891Y-76387283D01*
G37*
G04 #@! TD.AperFunction*
G04 #@! TD*
G04 #@! TA.AperFunction,Conductor*
G04 #@! TO.N,/FC-Pos-Jumper*
G36*
X96113175Y-61387089D02*
G01*
X96117481Y-61387236D01*
X96121664Y-61387451D01*
X96376090Y-61404925D01*
X96384513Y-61405796D01*
X96392915Y-61406956D01*
X96401262Y-61408401D01*
X96644581Y-61459174D01*
X96652823Y-61461191D01*
X96660992Y-61463489D01*
X96669099Y-61466072D01*
X96903200Y-61549638D01*
X96911074Y-61552758D01*
X96918864Y-61556157D01*
X96926503Y-61559806D01*
X97146999Y-61674601D01*
X97154385Y-61678775D01*
X97161648Y-61683215D01*
X97168721Y-61687879D01*
X97376605Y-61835399D01*
X97380012Y-61837904D01*
X97383437Y-61840515D01*
X97386729Y-61843115D01*
X101590428Y-65282506D01*
X101593899Y-65285455D01*
X101597340Y-65288488D01*
X101600727Y-65291586D01*
X101799552Y-65480365D01*
X101805950Y-65486905D01*
X101812079Y-65493651D01*
X101817970Y-65500637D01*
X101982634Y-65711148D01*
X101987997Y-65718551D01*
X101993085Y-65726149D01*
X101997890Y-65733931D01*
X102129830Y-65966365D01*
X102134047Y-65974475D01*
X102137961Y-65982734D01*
X102141570Y-65991138D01*
X102237912Y-66240432D01*
X102240891Y-66249074D01*
X102243546Y-66257810D01*
X102245881Y-66266653D01*
X102304542Y-66527426D01*
X102306219Y-66536420D01*
X102307558Y-66545434D01*
X102308567Y-66554516D01*
X102328770Y-66827929D01*
X102329023Y-66832492D01*
X102329192Y-66837069D01*
X102329276Y-66841644D01*
X102329276Y-72880374D01*
X102329196Y-72884826D01*
X102329037Y-72889252D01*
X102328801Y-72893646D01*
X102309867Y-73158380D01*
X102308921Y-73167182D01*
X102307662Y-73175938D01*
X102306090Y-73184648D01*
X102251088Y-73437486D01*
X102248902Y-73446053D01*
X102246416Y-73454522D01*
X102243618Y-73462931D01*
X102153184Y-73705392D01*
X102149798Y-73713566D01*
X102146127Y-73721605D01*
X102142163Y-73729524D01*
X102018160Y-73956620D01*
X102013639Y-73964239D01*
X102008855Y-73971682D01*
X102003811Y-73978947D01*
X101848739Y-74186098D01*
X101843183Y-74192991D01*
X101837398Y-74199667D01*
X101831368Y-74206144D01*
X101648402Y-74389110D01*
X101641925Y-74395140D01*
X101635249Y-74400925D01*
X101628356Y-74406481D01*
X101421205Y-74561553D01*
X101413940Y-74566597D01*
X101406497Y-74571381D01*
X101398878Y-74575902D01*
X101171782Y-74699905D01*
X101163863Y-74703869D01*
X101155824Y-74707540D01*
X101147650Y-74710926D01*
X100905189Y-74801360D01*
X100896780Y-74804158D01*
X100888311Y-74806644D01*
X100879744Y-74808830D01*
X100626906Y-74863832D01*
X100618196Y-74865404D01*
X100609440Y-74866663D01*
X100600638Y-74867609D01*
X100335904Y-74886543D01*
X100331511Y-74886779D01*
X100327086Y-74886938D01*
X100322633Y-74887018D01*
X95663800Y-74887018D01*
X95659729Y-74886951D01*
X95655680Y-74886818D01*
X95651641Y-74886620D01*
X95408796Y-74870703D01*
X95400720Y-74869907D01*
X95392707Y-74868852D01*
X95384702Y-74867531D01*
X95383505Y-74867293D01*
X95355060Y-74861634D01*
X95152023Y-74821247D01*
X95144118Y-74819404D01*
X95136285Y-74817305D01*
X95128523Y-74814950D01*
X94903879Y-74738694D01*
X94896298Y-74735842D01*
X94892502Y-74734270D01*
X94888798Y-74732736D01*
X94881404Y-74729386D01*
X94668630Y-74624457D01*
X94661490Y-74620641D01*
X94654436Y-74616568D01*
X94647591Y-74612311D01*
X94450318Y-74480498D01*
X94443739Y-74475785D01*
X94437293Y-74470840D01*
X94431018Y-74465691D01*
X94343695Y-74389110D01*
X94248069Y-74305247D01*
X94245069Y-74302528D01*
X94242094Y-74299742D01*
X94239172Y-74296914D01*
X92401316Y-72459057D01*
X92401308Y-72459050D01*
X92401304Y-72459046D01*
X92168047Y-72259153D01*
X92002653Y-72156658D01*
X91943331Y-72119895D01*
X91906928Y-72097336D01*
X91714831Y-72015886D01*
X91714830Y-72015886D01*
X91627684Y-71978935D01*
X91624691Y-71977554D01*
X91623158Y-71977180D01*
X91326267Y-71902229D01*
X91326262Y-71902228D01*
X91326252Y-71902226D01*
X91326255Y-71902226D01*
X91020422Y-71873536D01*
X91020426Y-71873536D01*
X91004113Y-71873265D01*
X90664637Y-71867607D01*
X88411357Y-71830053D01*
X88411355Y-71830053D01*
X88411352Y-71830053D01*
X88411344Y-71830053D01*
X88411332Y-71830053D01*
X88117479Y-71847085D01*
X88115277Y-71847148D01*
X88113888Y-71847293D01*
X88113887Y-71847293D01*
X88113886Y-71847293D01*
X88113878Y-71847294D01*
X87822295Y-71908534D01*
X87549478Y-72010022D01*
X87547803Y-72010541D01*
X87543010Y-72012429D01*
X87282270Y-72156659D01*
X87282122Y-72156758D01*
X87281245Y-72157446D01*
X87045898Y-72337991D01*
X87045856Y-72338025D01*
X87045844Y-72338035D01*
X86025654Y-73249087D01*
X86022071Y-73252166D01*
X86018423Y-73255182D01*
X86014712Y-73258133D01*
X85812628Y-73412590D01*
X85804885Y-73418052D01*
X85796966Y-73423197D01*
X85788849Y-73428041D01*
X85571876Y-73546552D01*
X85563413Y-73550764D01*
X85554805Y-73554646D01*
X85546025Y-73558208D01*
X85313550Y-73642341D01*
X85304539Y-73645219D01*
X85295445Y-73647745D01*
X85286232Y-73649929D01*
X85043649Y-73697730D01*
X85034298Y-73699204D01*
X85024925Y-73700317D01*
X85015494Y-73701073D01*
X84771609Y-73711291D01*
X84760078Y-73711238D01*
X84748592Y-73710650D01*
X84737112Y-73709525D01*
X84611769Y-73691323D01*
X84598438Y-73688633D01*
X84585326Y-73685229D01*
X84572382Y-73681099D01*
X84456942Y-73637161D01*
X84444517Y-73631635D01*
X84432465Y-73625461D01*
X84420721Y-73618606D01*
X84317607Y-73550585D01*
X84306678Y-73542482D01*
X84296263Y-73533835D01*
X84286292Y-73524588D01*
X84218601Y-73454522D01*
X84200455Y-73435739D01*
X84191566Y-73425465D01*
X84183274Y-73414747D01*
X84175575Y-73403578D01*
X84111133Y-73298160D01*
X84104695Y-73286199D01*
X84098941Y-73273945D01*
X84093842Y-73261331D01*
X84053896Y-73144408D01*
X84050222Y-73131350D01*
X84047270Y-73118117D01*
X84045047Y-73104731D01*
X84030393Y-72971728D01*
X84029836Y-72964986D01*
X84029461Y-72958149D01*
X84029276Y-72951379D01*
X84029276Y-67840538D01*
X84029360Y-67835987D01*
X84029527Y-67831440D01*
X84029779Y-67826863D01*
X84049943Y-67553687D01*
X84050948Y-67544634D01*
X84052289Y-67535599D01*
X84053961Y-67526631D01*
X84112507Y-67266098D01*
X84114824Y-67257315D01*
X84117488Y-67248538D01*
X84120445Y-67239950D01*
X84216626Y-66990794D01*
X84220216Y-66982428D01*
X84224114Y-66974191D01*
X84228318Y-66966098D01*
X84360016Y-66733809D01*
X84364807Y-66726041D01*
X84369878Y-66718459D01*
X84375220Y-66711075D01*
X84539604Y-66500632D01*
X84545467Y-66493670D01*
X84551613Y-66486893D01*
X84557972Y-66480383D01*
X84756478Y-66291598D01*
X84759794Y-66288559D01*
X84763267Y-66285491D01*
X84766655Y-66282608D01*
X90181485Y-61844223D01*
X90184722Y-61841660D01*
X90188165Y-61839030D01*
X90191494Y-61836578D01*
X90399644Y-61688618D01*
X90406701Y-61683958D01*
X90413969Y-61679509D01*
X90421340Y-61675337D01*
X90642083Y-61560239D01*
X90649715Y-61556587D01*
X90657497Y-61553186D01*
X90665390Y-61550055D01*
X90899775Y-61466272D01*
X90907833Y-61463699D01*
X90916042Y-61461385D01*
X90924265Y-61459369D01*
X91167943Y-61408453D01*
X91176301Y-61407004D01*
X91184705Y-61405843D01*
X91193145Y-61404970D01*
X91447891Y-61387452D01*
X91452060Y-61387237D01*
X91456377Y-61387089D01*
X91460597Y-61387018D01*
X96108975Y-61387018D01*
X96113175Y-61387089D01*
G37*
G04 #@! TD.AperFunction*
G04 #@! TD*
G04 #@! TA.AperFunction,Conductor*
G04 #@! TO.N,+3.3V*
G36*
X145330558Y-59795355D02*
G01*
X145337811Y-59795717D01*
X145378690Y-59799777D01*
X145522035Y-59814014D01*
X145536251Y-59816853D01*
X145709873Y-59869679D01*
X145723265Y-59875241D01*
X145883239Y-59960924D01*
X145895294Y-59968994D01*
X146035466Y-60084232D01*
X146045716Y-60094499D01*
X146160717Y-60234878D01*
X146168766Y-60246947D01*
X146232117Y-60365721D01*
X146251637Y-60402317D01*
X146254169Y-60407063D01*
X146259709Y-60420471D01*
X146312232Y-60594177D01*
X146315049Y-60608409D01*
X146333026Y-60792651D01*
X146333376Y-60799905D01*
X146327595Y-67126336D01*
X146320544Y-74842587D01*
X146298823Y-74894892D01*
X146246545Y-74916518D01*
X138776483Y-74916518D01*
X138724157Y-74894844D01*
X138702483Y-74842637D01*
X138702483Y-74842586D01*
X138701607Y-74298390D01*
X138682118Y-74103529D01*
X138625025Y-73916202D01*
X138532519Y-73743594D01*
X138532514Y-73743588D01*
X138532513Y-73743585D01*
X138408147Y-73592325D01*
X138408146Y-73592324D01*
X138256680Y-73468197D01*
X138256677Y-73468195D01*
X138083924Y-73375969D01*
X138083915Y-73375965D01*
X137993037Y-73348427D01*
X137896501Y-73319175D01*
X137896498Y-73319174D01*
X137896496Y-73319174D01*
X137701615Y-73300000D01*
X137701608Y-73300000D01*
X135713529Y-73300000D01*
X135706343Y-73299650D01*
X135523820Y-73281841D01*
X135509720Y-73279063D01*
X135337547Y-73227352D01*
X135324255Y-73221903D01*
X135208385Y-73160650D01*
X135165318Y-73137883D01*
X135153326Y-73129965D01*
X135010820Y-73014534D01*
X135005456Y-73009739D01*
X131621253Y-69674749D01*
X131621250Y-69674746D01*
X131470341Y-69552509D01*
X131470335Y-69552506D01*
X131298644Y-69461743D01*
X131112640Y-69405877D01*
X131112633Y-69405875D01*
X130919349Y-69387018D01*
X130919346Y-69387018D01*
X126775719Y-69387018D01*
X127119400Y-69043337D01*
X127084418Y-69017921D01*
X126909108Y-68928597D01*
X126771918Y-68884021D01*
X126771917Y-68884020D01*
X126721995Y-68867799D01*
X126721982Y-68867796D01*
X126527654Y-68837018D01*
X126330898Y-68837018D01*
X126136569Y-68867796D01*
X126136556Y-68867799D01*
X125949447Y-68928595D01*
X125949442Y-68928597D01*
X125774130Y-69017923D01*
X125739150Y-69043337D01*
X125739150Y-69043338D01*
X126082830Y-69387018D01*
X125375722Y-69387018D01*
X124833475Y-69387018D01*
X124826219Y-69386661D01*
X124773960Y-69381512D01*
X124641937Y-69368503D01*
X124627707Y-69365672D01*
X124501694Y-69327432D01*
X124454005Y-69312960D01*
X124440600Y-69307405D01*
X124280523Y-69221807D01*
X124268461Y-69213744D01*
X124128169Y-69098551D01*
X124117913Y-69088289D01*
X124002799Y-68947931D01*
X123994741Y-68935862D01*
X123990861Y-68928597D01*
X123958393Y-68867796D01*
X123932063Y-68818490D01*
X135718776Y-68818490D01*
X135718776Y-68955545D01*
X135754246Y-69087919D01*
X135754248Y-69087924D01*
X135754459Y-69088289D01*
X135822773Y-69206612D01*
X135919682Y-69303521D01*
X136038371Y-69372046D01*
X136038372Y-69372046D01*
X136038374Y-69372047D01*
X136094246Y-69387018D01*
X136170748Y-69407517D01*
X136170749Y-69407518D01*
X136170751Y-69407518D01*
X136307803Y-69407518D01*
X136307803Y-69407517D01*
X136440181Y-69372046D01*
X136530937Y-69319647D01*
X136587088Y-69312255D01*
X136604931Y-69319646D01*
X136678371Y-69362046D01*
X136678373Y-69362047D01*
X136751017Y-69381512D01*
X136810748Y-69397517D01*
X136810749Y-69397518D01*
X136810751Y-69397518D01*
X136947803Y-69397518D01*
X136947803Y-69397517D01*
X137080181Y-69362046D01*
X137140134Y-69327431D01*
X137177134Y-69317518D01*
X137236777Y-69317518D01*
X137273776Y-69327431D01*
X137368371Y-69382046D01*
X137368372Y-69382046D01*
X137368374Y-69382047D01*
X137386926Y-69387018D01*
X137500748Y-69417517D01*
X137500749Y-69417518D01*
X137500751Y-69417518D01*
X137637803Y-69417518D01*
X137637803Y-69417517D01*
X137770181Y-69382046D01*
X137888870Y-69313521D01*
X137985779Y-69216612D01*
X138054304Y-69097923D01*
X138089775Y-68965545D01*
X138089776Y-68965545D01*
X138089776Y-68828491D01*
X138089775Y-68828490D01*
X138087095Y-68818490D01*
X138054304Y-68696113D01*
X137985779Y-68577424D01*
X137888870Y-68480515D01*
X137872973Y-68471337D01*
X137770182Y-68411990D01*
X137770177Y-68411988D01*
X137637803Y-68376518D01*
X137637801Y-68376518D01*
X137500751Y-68376518D01*
X137500749Y-68376518D01*
X137368374Y-68411988D01*
X137368365Y-68411992D01*
X137278379Y-68463945D01*
X137222227Y-68471337D01*
X137203541Y-68462123D01*
X137203070Y-68462940D01*
X137080182Y-68391990D01*
X137080177Y-68391988D01*
X136947803Y-68356518D01*
X136947801Y-68356518D01*
X136810751Y-68356518D01*
X136810749Y-68356518D01*
X136678374Y-68391988D01*
X136678369Y-68391990D01*
X136587616Y-68444387D01*
X136531463Y-68451779D01*
X136513617Y-68444387D01*
X136440179Y-68401989D01*
X136440180Y-68401989D01*
X136307803Y-68366518D01*
X136307801Y-68366518D01*
X136170751Y-68366518D01*
X136170749Y-68366518D01*
X136038374Y-68401988D01*
X136038369Y-68401990D01*
X135919681Y-68470515D01*
X135822773Y-68567423D01*
X135754248Y-68686111D01*
X135754246Y-68686116D01*
X135718776Y-68818490D01*
X123932063Y-68818490D01*
X123909233Y-68775737D01*
X123903686Y-68762328D01*
X123851074Y-68588605D01*
X123848250Y-68574375D01*
X123830195Y-68390065D01*
X123829844Y-68382810D01*
X123829859Y-68356518D01*
X123834143Y-60781650D01*
X123834503Y-60774435D01*
X123852758Y-60590182D01*
X123855597Y-60575956D01*
X123902867Y-60420471D01*
X123908386Y-60402315D01*
X123913944Y-60388920D01*
X123999603Y-60228910D01*
X124007671Y-60216854D01*
X124112856Y-60088863D01*
X124122902Y-60076638D01*
X124133162Y-60066392D01*
X124273547Y-59951347D01*
X124285600Y-59943306D01*
X124445735Y-59857865D01*
X124459133Y-59852327D01*
X124632851Y-59799777D01*
X124647080Y-59796958D01*
X124831360Y-59778956D01*
X124838573Y-59778607D01*
X145330558Y-59795355D01*
G37*
G04 #@! TD.AperFunction*
G04 #@! TD*
G04 #@! TA.AperFunction,Conductor*
G04 #@! TO.N,/FC-Neg-Jumper*
G36*
X102030500Y-51682203D02*
G01*
X102059314Y-51707853D01*
X102152998Y-51822007D01*
X102166503Y-51842219D01*
X102247397Y-51993561D01*
X102256700Y-52016019D01*
X102306516Y-52180242D01*
X102311258Y-52204083D01*
X102328679Y-52380956D01*
X102329276Y-52393110D01*
X102329276Y-59380925D01*
X102328679Y-59393079D01*
X102311258Y-59569952D01*
X102306516Y-59593793D01*
X102256700Y-59758016D01*
X102247397Y-59780474D01*
X102166503Y-59931816D01*
X102152998Y-59952028D01*
X102044130Y-60084684D01*
X102026942Y-60101872D01*
X101894286Y-60210740D01*
X101874074Y-60224245D01*
X101722732Y-60305139D01*
X101700274Y-60314442D01*
X101536051Y-60364258D01*
X101512210Y-60369000D01*
X101335337Y-60386421D01*
X101323183Y-60387018D01*
X90693965Y-60387018D01*
X90693961Y-60387018D01*
X90693948Y-60387019D01*
X90462944Y-60414069D01*
X90462932Y-60414072D01*
X90244410Y-60493764D01*
X90244406Y-60493766D01*
X90050216Y-60621782D01*
X90050201Y-60621793D01*
X85769961Y-64222604D01*
X85760467Y-64229840D01*
X85616871Y-64328734D01*
X85596023Y-64340308D01*
X85441670Y-64407486D01*
X85418993Y-64414856D01*
X85254622Y-64451252D01*
X85230951Y-64454144D01*
X85062666Y-64458402D01*
X85038883Y-64456711D01*
X84872886Y-64428680D01*
X84849864Y-64422467D01*
X84788301Y-64399302D01*
X84692303Y-64363180D01*
X84670900Y-64352677D01*
X84527592Y-64264323D01*
X84508600Y-64249921D01*
X84486831Y-64229840D01*
X84384862Y-64135776D01*
X84368971Y-64117998D01*
X84269368Y-63982278D01*
X84257174Y-63961788D01*
X84185387Y-63809506D01*
X84177346Y-63787076D01*
X84136034Y-63623863D01*
X84132434Y-63600302D01*
X84122795Y-63426210D01*
X84122710Y-63414299D01*
X84341919Y-58068732D01*
X84330087Y-57869068D01*
X84278756Y-57675752D01*
X84234776Y-57586960D01*
X84189981Y-57496521D01*
X84067304Y-57338531D01*
X83641368Y-56890762D01*
X83633838Y-56882074D01*
X83529849Y-56750185D01*
X83517363Y-56730914D01*
X83442159Y-56587218D01*
X83433444Y-56565978D01*
X83386038Y-56410889D01*
X83381387Y-56388396D01*
X83362758Y-56221482D01*
X83362014Y-56210009D01*
X83338125Y-54911574D01*
X83338510Y-54899268D01*
X83353046Y-54720053D01*
X83357455Y-54695861D01*
X83405363Y-54528990D01*
X83414454Y-54506155D01*
X83494358Y-54352006D01*
X83507775Y-54331418D01*
X83616525Y-54196073D01*
X83633745Y-54178533D01*
X83767069Y-54067309D01*
X83787407Y-54053516D01*
X83940057Y-53970792D01*
X83962716Y-53961283D01*
X84128694Y-53910309D01*
X84152785Y-53905459D01*
X84331712Y-53887629D01*
X84344008Y-53887018D01*
X88415059Y-53887018D01*
X88415062Y-53887018D01*
X88610153Y-53867803D01*
X88797746Y-53810898D01*
X88970633Y-53718488D01*
X89122169Y-53594125D01*
X91017457Y-51698837D01*
X91078780Y-51665352D01*
X91105138Y-51662518D01*
X101963461Y-51662518D01*
X102030500Y-51682203D01*
G37*
G04 #@! TD.AperFunction*
G04 #@! TD*
G04 #@! TA.AperFunction,Conductor*
G04 #@! TO.N,C Pos (GND)*
G36*
X84181943Y-87875535D02*
G01*
X84420402Y-87904947D01*
X84438291Y-87908505D01*
X84669863Y-87972589D01*
X84687023Y-87978728D01*
X84906690Y-88076100D01*
X84922770Y-88084695D01*
X85125770Y-88213243D01*
X85140413Y-88224103D01*
X85325826Y-88384042D01*
X85332513Y-88390255D01*
X86355047Y-89412789D01*
X86377851Y-89444175D01*
X86398044Y-89483806D01*
X86499862Y-89623946D01*
X86622348Y-89746432D01*
X86701462Y-89803912D01*
X86762483Y-89848247D01*
X86762484Y-89848247D01*
X86762488Y-89848250D01*
X86802119Y-89868443D01*
X86833502Y-89891244D01*
X87743490Y-90801232D01*
X87940180Y-90973725D01*
X88084536Y-91070180D01*
X88157701Y-91119068D01*
X88392319Y-91234769D01*
X88392324Y-91234771D01*
X88392336Y-91234777D01*
X88640065Y-91318870D01*
X88896651Y-91369908D01*
X89157703Y-91387018D01*
X94996782Y-91387018D01*
X95004891Y-91387283D01*
X95027365Y-91388755D01*
X95253807Y-91403597D01*
X95269865Y-91405712D01*
X95510514Y-91453580D01*
X95526180Y-91457778D01*
X95695772Y-91515346D01*
X95758521Y-91536647D01*
X95773498Y-91542850D01*
X95983957Y-91646637D01*
X95993559Y-91651372D01*
X96007605Y-91659482D01*
X96211613Y-91795795D01*
X96224482Y-91805669D01*
X96412013Y-91970130D01*
X96417935Y-91975677D01*
X101740616Y-97298358D01*
X101746163Y-97304280D01*
X101910624Y-97491811D01*
X101920498Y-97504680D01*
X102056811Y-97708688D01*
X102064921Y-97722734D01*
X102173440Y-97942788D01*
X102179647Y-97957774D01*
X102258515Y-98190113D01*
X102262713Y-98205779D01*
X102310579Y-98446414D01*
X102312697Y-98462496D01*
X102329011Y-98711401D01*
X102329276Y-98719511D01*
X102329276Y-103882590D01*
X102328960Y-103891436D01*
X102309551Y-104162803D01*
X102307033Y-104180315D01*
X102250148Y-104441812D01*
X102245164Y-104458788D01*
X102151637Y-104709542D01*
X102144287Y-104725635D01*
X102016034Y-104960514D01*
X102006469Y-104975398D01*
X101846087Y-105189642D01*
X101834501Y-105203012D01*
X101645270Y-105392243D01*
X101631900Y-105403829D01*
X101417656Y-105564211D01*
X101402772Y-105573776D01*
X101167893Y-105702029D01*
X101151800Y-105709379D01*
X100901046Y-105802906D01*
X100884070Y-105807890D01*
X100622573Y-105864775D01*
X100605061Y-105867293D01*
X100333694Y-105886702D01*
X100324848Y-105887018D01*
X99224335Y-105887018D01*
X99215683Y-105886716D01*
X98950233Y-105868149D01*
X98933097Y-105865740D01*
X98677064Y-105811303D01*
X98660433Y-105806533D01*
X98515561Y-105753788D01*
X98414474Y-105716985D01*
X98398667Y-105709945D01*
X98167565Y-105587027D01*
X98152892Y-105577855D01*
X97941155Y-105423966D01*
X97927901Y-105412840D01*
X97918574Y-105403829D01*
X97736519Y-105227948D01*
X97730527Y-105221740D01*
X94425139Y-101549089D01*
X94224411Y-101355168D01*
X93998642Y-101191080D01*
X93998638Y-101191078D01*
X93998639Y-101191078D01*
X93752229Y-101060018D01*
X93489971Y-100964536D01*
X93216970Y-100906491D01*
X92938559Y-100887018D01*
X92938551Y-100887018D01*
X84333704Y-100887018D01*
X84324858Y-100886702D01*
X84053490Y-100867293D01*
X84035978Y-100864775D01*
X83845694Y-100823381D01*
X83784371Y-100789896D01*
X83750886Y-100728573D01*
X83752276Y-100670127D01*
X83800680Y-100489481D01*
X83829777Y-100268474D01*
X83829777Y-100045561D01*
X83829777Y-100041722D01*
X83829776Y-100041688D01*
X83829776Y-88003832D01*
X83849461Y-87936793D01*
X83902265Y-87891038D01*
X83950730Y-87879869D01*
X84163731Y-87874640D01*
X84181943Y-87875535D01*
G37*
G04 #@! TD.AperFunction*
G04 #@! TD*
G04 #@! TA.AperFunction,Conductor*
G04 #@! TO.N,+3.3V*
G36*
X225123895Y-84806703D02*
G01*
X225169650Y-84859507D01*
X225179594Y-84928665D01*
X225159958Y-84979909D01*
X225121957Y-85036780D01*
X225121952Y-85036789D01*
X225050303Y-85209766D01*
X225050301Y-85209774D01*
X225013776Y-85393397D01*
X225013776Y-85580638D01*
X225050301Y-85764261D01*
X225050303Y-85764269D01*
X225121952Y-85937246D01*
X225121957Y-85937255D01*
X225225973Y-86092925D01*
X225225976Y-86092929D01*
X225358364Y-86225317D01*
X225358368Y-86225320D01*
X225514038Y-86329336D01*
X225514044Y-86329339D01*
X225514045Y-86329340D01*
X225687025Y-86400991D01*
X225785738Y-86420626D01*
X225870655Y-86437517D01*
X225870659Y-86437518D01*
X225870660Y-86437518D01*
X226057893Y-86437518D01*
X226057894Y-86437517D01*
X226241527Y-86400991D01*
X226414507Y-86329340D01*
X226570184Y-86225320D01*
X226702578Y-86092926D01*
X226806598Y-85937249D01*
X226878249Y-85764269D01*
X226914776Y-85580634D01*
X226914776Y-85393402D01*
X226878249Y-85209767D01*
X226806598Y-85036787D01*
X226806597Y-85036786D01*
X226806594Y-85036780D01*
X226768594Y-84979909D01*
X226747716Y-84913231D01*
X226766201Y-84845851D01*
X226818179Y-84799161D01*
X226871696Y-84787018D01*
X227596856Y-84787018D01*
X227663895Y-84806703D01*
X227709650Y-84859507D01*
X227719594Y-84928665D01*
X227699958Y-84979909D01*
X227661957Y-85036780D01*
X227661952Y-85036789D01*
X227590303Y-85209766D01*
X227590301Y-85209774D01*
X227553776Y-85393397D01*
X227553776Y-85580638D01*
X227590301Y-85764261D01*
X227590303Y-85764269D01*
X227661952Y-85937246D01*
X227661957Y-85937255D01*
X227765973Y-86092925D01*
X227765976Y-86092929D01*
X227898364Y-86225317D01*
X227898368Y-86225320D01*
X228054038Y-86329336D01*
X228054044Y-86329339D01*
X228054045Y-86329340D01*
X228227025Y-86400991D01*
X228325738Y-86420626D01*
X228410655Y-86437517D01*
X228410659Y-86437518D01*
X228410660Y-86437518D01*
X228597893Y-86437518D01*
X228597894Y-86437517D01*
X228781527Y-86400991D01*
X228954507Y-86329340D01*
X229110184Y-86225320D01*
X229242578Y-86092926D01*
X229346598Y-85937249D01*
X229418249Y-85764269D01*
X229454776Y-85580634D01*
X229454776Y-85393402D01*
X229418249Y-85209767D01*
X229346598Y-85036787D01*
X229346597Y-85036786D01*
X229346594Y-85036780D01*
X229308594Y-84979909D01*
X229287716Y-84913231D01*
X229306201Y-84845851D01*
X229358179Y-84799161D01*
X229411696Y-84787018D01*
X234380248Y-84787018D01*
X234447287Y-84806703D01*
X234493042Y-84859507D01*
X234504248Y-84911018D01*
X234504248Y-99628011D01*
X234484563Y-99695050D01*
X234431759Y-99740805D01*
X234362601Y-99750749D01*
X234299045Y-99721724D01*
X234292567Y-99715692D01*
X233304459Y-98727585D01*
X233270974Y-98666262D01*
X233275958Y-98596571D01*
X233277550Y-98592521D01*
X233318249Y-98494268D01*
X233354776Y-98310633D01*
X233354776Y-98123401D01*
X233318249Y-97939766D01*
X233246598Y-97766786D01*
X233246597Y-97766785D01*
X233246594Y-97766779D01*
X233142578Y-97611109D01*
X233142575Y-97611105D01*
X233010187Y-97478717D01*
X233010183Y-97478714D01*
X232854513Y-97374698D01*
X232854504Y-97374693D01*
X232681527Y-97303044D01*
X232681519Y-97303042D01*
X232497896Y-97266517D01*
X232497892Y-97266517D01*
X232310660Y-97266517D01*
X232310655Y-97266517D01*
X232127032Y-97303042D01*
X232127024Y-97303044D01*
X231954047Y-97374693D01*
X231954038Y-97374698D01*
X231798368Y-97478714D01*
X231798364Y-97478717D01*
X231665976Y-97611105D01*
X231665973Y-97611109D01*
X231561957Y-97766779D01*
X231561952Y-97766788D01*
X231490303Y-97939765D01*
X231490301Y-97939773D01*
X231453776Y-98123396D01*
X231453776Y-98310637D01*
X231490301Y-98494260D01*
X231490303Y-98494268D01*
X231561952Y-98667245D01*
X231561957Y-98667254D01*
X231665973Y-98822924D01*
X231665976Y-98822928D01*
X231798364Y-98955316D01*
X231798368Y-98955319D01*
X231954038Y-99059335D01*
X231954044Y-99059338D01*
X231954045Y-99059339D01*
X232127025Y-99130990D01*
X232310655Y-99167516D01*
X232310659Y-99167517D01*
X232310660Y-99167517D01*
X232497893Y-99167517D01*
X232497894Y-99167516D01*
X232681527Y-99130990D01*
X232779713Y-99090319D01*
X232849179Y-99082851D01*
X232911658Y-99114125D01*
X232914844Y-99117200D01*
X233297481Y-99499837D01*
X233330966Y-99561160D01*
X233325982Y-99630852D01*
X233284110Y-99686785D01*
X233218646Y-99711202D01*
X233209800Y-99711518D01*
X233119474Y-99711518D01*
X233048771Y-99740805D01*
X233024765Y-99750749D01*
X233018215Y-99753462D01*
X232914842Y-99856833D01*
X232853518Y-99890318D01*
X232783827Y-99885332D01*
X232779710Y-99883712D01*
X232681531Y-99843045D01*
X232681519Y-99843042D01*
X232497896Y-99806517D01*
X232497892Y-99806517D01*
X232310660Y-99806517D01*
X232310655Y-99806517D01*
X232127032Y-99843042D01*
X232127024Y-99843044D01*
X231954047Y-99914693D01*
X231954038Y-99914698D01*
X231798368Y-100018714D01*
X231798364Y-100018717D01*
X231665976Y-100151105D01*
X231665973Y-100151109D01*
X231561957Y-100306779D01*
X231561952Y-100306788D01*
X231490303Y-100479765D01*
X231490301Y-100479773D01*
X231453776Y-100663396D01*
X231453776Y-100850637D01*
X231490301Y-101034260D01*
X231490303Y-101034268D01*
X231561952Y-101207245D01*
X231561957Y-101207254D01*
X231665973Y-101362924D01*
X231665976Y-101362928D01*
X231798364Y-101495316D01*
X231798368Y-101495319D01*
X231954038Y-101599335D01*
X231954044Y-101599338D01*
X231954045Y-101599339D01*
X232127025Y-101670990D01*
X232310655Y-101707516D01*
X232310659Y-101707517D01*
X232310660Y-101707517D01*
X232497893Y-101707517D01*
X232497894Y-101707516D01*
X232681527Y-101670990D01*
X232854507Y-101599339D01*
X233010184Y-101495319D01*
X233142578Y-101362925D01*
X233246598Y-101207248D01*
X233318249Y-101034268D01*
X233354776Y-100850633D01*
X233354776Y-100663401D01*
X233318249Y-100479766D01*
X233299279Y-100433970D01*
X233295772Y-100401342D01*
X233291103Y-100368871D01*
X233292056Y-100366783D01*
X233291811Y-100364501D01*
X233306499Y-100335157D01*
X233320128Y-100305315D01*
X233322058Y-100304074D01*
X233323086Y-100302022D01*
X233351301Y-100285281D01*
X233378906Y-100267541D01*
X233381935Y-100267105D01*
X233383175Y-100266370D01*
X233413841Y-100262518D01*
X233583122Y-100262518D01*
X233650161Y-100282203D01*
X233670803Y-100298837D01*
X234467929Y-101095963D01*
X234501414Y-101157286D01*
X234504248Y-101183644D01*
X234504248Y-103163018D01*
X234484563Y-103230057D01*
X234431759Y-103275812D01*
X234380248Y-103287018D01*
X213628248Y-103287018D01*
X213561209Y-103267333D01*
X213515454Y-103214529D01*
X213504248Y-103163018D01*
X213504248Y-97024911D01*
X213523933Y-96957872D01*
X213576737Y-96912117D01*
X213645895Y-96902173D01*
X213709451Y-96931198D01*
X213735635Y-96962911D01*
X213753776Y-96994332D01*
X213846962Y-97087518D01*
X213961090Y-97153410D01*
X214088384Y-97187518D01*
X214088386Y-97187518D01*
X214220166Y-97187518D01*
X214220168Y-97187518D01*
X214347462Y-97153410D01*
X214461590Y-97087518D01*
X214554776Y-96994332D01*
X214620668Y-96880204D01*
X214654776Y-96752910D01*
X214654776Y-96621126D01*
X214620668Y-96493832D01*
X214554776Y-96379704D01*
X214461590Y-96286518D01*
X214404526Y-96253572D01*
X214347463Y-96220626D01*
X214283815Y-96203572D01*
X214220168Y-96186518D01*
X214088384Y-96186518D01*
X213961088Y-96220626D01*
X213846962Y-96286518D01*
X213846959Y-96286520D01*
X213753778Y-96379701D01*
X213753771Y-96379710D01*
X213735634Y-96411125D01*
X213685067Y-96459340D01*
X213616459Y-96472562D01*
X213551595Y-96446594D01*
X213511067Y-96389679D01*
X213504248Y-96349124D01*
X213504248Y-94121126D01*
X225253776Y-94121126D01*
X225253776Y-94252910D01*
X225266090Y-94298866D01*
X225287884Y-94380205D01*
X225320830Y-94437268D01*
X225353776Y-94494332D01*
X225446962Y-94587518D01*
X225561090Y-94653410D01*
X225688384Y-94687518D01*
X225688386Y-94687518D01*
X225778443Y-94687518D01*
X225807883Y-94696162D01*
X225837870Y-94702686D01*
X225842885Y-94706440D01*
X225845482Y-94707203D01*
X225866124Y-94723837D01*
X225968457Y-94826170D01*
X226001942Y-94887493D01*
X226004776Y-94913851D01*
X226004776Y-97374383D01*
X225985091Y-97441422D01*
X225932287Y-97487177D01*
X225863129Y-97497121D01*
X225848685Y-97494159D01*
X225846963Y-97493697D01*
X225820168Y-97486518D01*
X225688384Y-97486518D01*
X225561088Y-97520626D01*
X225446962Y-97586518D01*
X225446959Y-97586520D01*
X225353778Y-97679701D01*
X225353776Y-97679704D01*
X225287884Y-97793830D01*
X225253776Y-97921126D01*
X225253776Y-98052909D01*
X225287884Y-98180205D01*
X225320830Y-98237268D01*
X225353776Y-98294332D01*
X225446962Y-98387518D01*
X225561090Y-98453410D01*
X225688384Y-98487518D01*
X225688386Y-98487518D01*
X225820165Y-98487518D01*
X225820168Y-98487518D01*
X225848684Y-98479877D01*
X225918532Y-98481540D01*
X225976395Y-98520702D01*
X226003899Y-98584931D01*
X226004776Y-98599652D01*
X226004776Y-99340682D01*
X225996131Y-99370122D01*
X225989608Y-99400109D01*
X225985853Y-99405124D01*
X225985091Y-99407721D01*
X225968457Y-99428363D01*
X225960752Y-99436068D01*
X225899429Y-99469553D01*
X225873071Y-99472387D01*
X225783014Y-99472387D01*
X225655718Y-99506495D01*
X225541592Y-99572387D01*
X225541589Y-99572389D01*
X225448408Y-99665570D01*
X225448406Y-99665573D01*
X225382514Y-99779699D01*
X225348406Y-99906995D01*
X225348406Y-100038778D01*
X225382514Y-100166074D01*
X225415460Y-100223137D01*
X225448406Y-100280201D01*
X225541592Y-100373387D01*
X225655720Y-100439279D01*
X225783014Y-100473387D01*
X225783016Y-100473387D01*
X225914796Y-100473387D01*
X225914798Y-100473387D01*
X226042092Y-100439279D01*
X226156220Y-100373387D01*
X226249406Y-100280201D01*
X226315298Y-100166073D01*
X226349406Y-100038779D01*
X226349406Y-99948719D01*
X226369091Y-99881680D01*
X226385720Y-99861043D01*
X226545736Y-99701028D01*
X226585298Y-99632505D01*
X226605776Y-99556079D01*
X226605776Y-99476955D01*
X226605776Y-99041517D01*
X226625461Y-98974478D01*
X226678265Y-98928723D01*
X226729776Y-98917517D01*
X227145600Y-98917517D01*
X227212639Y-98937202D01*
X227233281Y-98953836D01*
X227296962Y-99017517D01*
X227395797Y-99074580D01*
X227410123Y-99082851D01*
X227411090Y-99083409D01*
X227538384Y-99117517D01*
X227538386Y-99117517D01*
X227670166Y-99117517D01*
X227670168Y-99117517D01*
X227797462Y-99083409D01*
X227911590Y-99017517D01*
X228004776Y-98924331D01*
X228070668Y-98810203D01*
X228104776Y-98682909D01*
X228104776Y-98551125D01*
X228070668Y-98423831D01*
X228004776Y-98309703D01*
X227911590Y-98216517D01*
X227848694Y-98180204D01*
X227797463Y-98150625D01*
X227733815Y-98133571D01*
X227670168Y-98116517D01*
X227538384Y-98116517D01*
X227411088Y-98150625D01*
X227296962Y-98216517D01*
X227296959Y-98216519D01*
X227233281Y-98280198D01*
X227171958Y-98313683D01*
X227145600Y-98316517D01*
X226729776Y-98316517D01*
X226662737Y-98296832D01*
X226616982Y-98244028D01*
X226605776Y-98192517D01*
X226605776Y-94698458D01*
X226605776Y-94698456D01*
X226593706Y-94653410D01*
X226585298Y-94622030D01*
X226545736Y-94553507D01*
X226291095Y-94298866D01*
X226257610Y-94237543D01*
X226254776Y-94211185D01*
X226254776Y-94121128D01*
X226254776Y-94121126D01*
X226220668Y-93993832D01*
X226173631Y-93912362D01*
X226157159Y-93844465D01*
X226180011Y-93778438D01*
X226234932Y-93735247D01*
X226304485Y-93728605D01*
X226343018Y-93742976D01*
X226361090Y-93753410D01*
X226488384Y-93787518D01*
X226488386Y-93787518D01*
X226620166Y-93787518D01*
X226620168Y-93787518D01*
X226747462Y-93753410D01*
X226861590Y-93687518D01*
X226954776Y-93594332D01*
X227020668Y-93480204D01*
X227054776Y-93352910D01*
X227054776Y-93221126D01*
X227020668Y-93093832D01*
X226954776Y-92979704D01*
X226861590Y-92886518D01*
X226804526Y-92853572D01*
X226747463Y-92820626D01*
X226683815Y-92803572D01*
X226620168Y-92786518D01*
X226488384Y-92786518D01*
X226361088Y-92820626D01*
X226246962Y-92886518D01*
X226246959Y-92886520D01*
X226153778Y-92979701D01*
X226153776Y-92979704D01*
X226087884Y-93093830D01*
X226053776Y-93221126D01*
X226053776Y-93352909D01*
X226087884Y-93480205D01*
X226134919Y-93561670D01*
X226151392Y-93629571D01*
X226128540Y-93695598D01*
X226073619Y-93738788D01*
X226004065Y-93745430D01*
X225965532Y-93731058D01*
X225947465Y-93720627D01*
X225947462Y-93720626D01*
X225820168Y-93686518D01*
X225688384Y-93686518D01*
X225561088Y-93720626D01*
X225446962Y-93786518D01*
X225446959Y-93786520D01*
X225353778Y-93879701D01*
X225353776Y-93879704D01*
X225287884Y-93993830D01*
X225253776Y-94121126D01*
X213504248Y-94121126D01*
X213504248Y-92021126D01*
X220253776Y-92021126D01*
X220253776Y-92152909D01*
X220287884Y-92280205D01*
X220320830Y-92337268D01*
X220353776Y-92394332D01*
X220446962Y-92487518D01*
X220561090Y-92553410D01*
X220688384Y-92587518D01*
X220688386Y-92587518D01*
X220820166Y-92587518D01*
X220820168Y-92587518D01*
X220947462Y-92553410D01*
X221061590Y-92487518D01*
X221154776Y-92394332D01*
X221220668Y-92280204D01*
X221254776Y-92152910D01*
X221254776Y-92021126D01*
X221220668Y-91893832D01*
X221154776Y-91779704D01*
X221061590Y-91686518D01*
X221004526Y-91653572D01*
X220947463Y-91620626D01*
X220883815Y-91603572D01*
X220820168Y-91586518D01*
X220688384Y-91586518D01*
X220561088Y-91620626D01*
X220446962Y-91686518D01*
X220446959Y-91686520D01*
X220353778Y-91779701D01*
X220353776Y-91779704D01*
X220287884Y-91893830D01*
X220253776Y-92021126D01*
X213504248Y-92021126D01*
X213504248Y-90155897D01*
X216213776Y-90155897D01*
X216213776Y-90343138D01*
X216250301Y-90526761D01*
X216250303Y-90526769D01*
X216321952Y-90699746D01*
X216321957Y-90699755D01*
X216425973Y-90855425D01*
X216425976Y-90855429D01*
X216558364Y-90987817D01*
X216558368Y-90987820D01*
X216714038Y-91091836D01*
X216714044Y-91091839D01*
X216714045Y-91091840D01*
X216887025Y-91163491D01*
X217070655Y-91200017D01*
X217070659Y-91200018D01*
X217070660Y-91200018D01*
X217257893Y-91200018D01*
X217257894Y-91200017D01*
X217441527Y-91163491D01*
X217614507Y-91091840D01*
X217770184Y-90987820D01*
X217902578Y-90855426D01*
X218006598Y-90699749D01*
X218078249Y-90526769D01*
X218114776Y-90343134D01*
X218114776Y-90155902D01*
X218114775Y-90155897D01*
X218753776Y-90155897D01*
X218753776Y-90343138D01*
X218790301Y-90526761D01*
X218790303Y-90526769D01*
X218861952Y-90699746D01*
X218861957Y-90699755D01*
X218965973Y-90855425D01*
X218965976Y-90855429D01*
X219098364Y-90987817D01*
X219098368Y-90987820D01*
X219254038Y-91091836D01*
X219254044Y-91091839D01*
X219254045Y-91091840D01*
X219427025Y-91163491D01*
X219610655Y-91200017D01*
X219610659Y-91200018D01*
X219610660Y-91200018D01*
X219797893Y-91200018D01*
X219797894Y-91200017D01*
X219981527Y-91163491D01*
X220154507Y-91091840D01*
X220310184Y-90987820D01*
X220376878Y-90921126D01*
X232253776Y-90921126D01*
X232253776Y-91052910D01*
X232270830Y-91116557D01*
X232287884Y-91180205D01*
X232320830Y-91237268D01*
X232353776Y-91294332D01*
X232446962Y-91387518D01*
X232561090Y-91453410D01*
X232688384Y-91487518D01*
X232688386Y-91487518D01*
X232820166Y-91487518D01*
X232820168Y-91487518D01*
X232947462Y-91453410D01*
X233061590Y-91387518D01*
X233154776Y-91294332D01*
X233220668Y-91180204D01*
X233254776Y-91052910D01*
X233254776Y-90921126D01*
X233220668Y-90793832D01*
X233154776Y-90679704D01*
X233061590Y-90586518D01*
X233004526Y-90553572D01*
X232947463Y-90520626D01*
X232883815Y-90503572D01*
X232820168Y-90486518D01*
X232688384Y-90486518D01*
X232561088Y-90520626D01*
X232446962Y-90586518D01*
X232446959Y-90586520D01*
X232353778Y-90679701D01*
X232353776Y-90679704D01*
X232287884Y-90793830D01*
X232274413Y-90844107D01*
X232253776Y-90921126D01*
X220376878Y-90921126D01*
X220442578Y-90855426D01*
X220546598Y-90699749D01*
X220618249Y-90526769D01*
X220654776Y-90343134D01*
X220654776Y-90155902D01*
X220618249Y-89972267D01*
X220546598Y-89799287D01*
X220546597Y-89799286D01*
X220546594Y-89799280D01*
X220442578Y-89643610D01*
X220442575Y-89643606D01*
X220310187Y-89511218D01*
X220310183Y-89511215D01*
X220154513Y-89407199D01*
X220154504Y-89407194D01*
X219981527Y-89335545D01*
X219981519Y-89335543D01*
X219797896Y-89299018D01*
X219797892Y-89299018D01*
X219610660Y-89299018D01*
X219610655Y-89299018D01*
X219427032Y-89335543D01*
X219427024Y-89335545D01*
X219254047Y-89407194D01*
X219254038Y-89407199D01*
X219098368Y-89511215D01*
X219098364Y-89511218D01*
X218965976Y-89643606D01*
X218965973Y-89643610D01*
X218861957Y-89799280D01*
X218861952Y-89799289D01*
X218790303Y-89972266D01*
X218790301Y-89972274D01*
X218753776Y-90155897D01*
X218114775Y-90155897D01*
X218078249Y-89972267D01*
X218006598Y-89799287D01*
X218006597Y-89799286D01*
X218006594Y-89799280D01*
X217902578Y-89643610D01*
X217902575Y-89643606D01*
X217770187Y-89511218D01*
X217770183Y-89511215D01*
X217614513Y-89407199D01*
X217614504Y-89407194D01*
X217441527Y-89335545D01*
X217441519Y-89335543D01*
X217257896Y-89299018D01*
X217257892Y-89299018D01*
X217070660Y-89299018D01*
X217070655Y-89299018D01*
X216887032Y-89335543D01*
X216887024Y-89335545D01*
X216714047Y-89407194D01*
X216714038Y-89407199D01*
X216558368Y-89511215D01*
X216558364Y-89511218D01*
X216425976Y-89643606D01*
X216425973Y-89643610D01*
X216321957Y-89799280D01*
X216321952Y-89799289D01*
X216250303Y-89972266D01*
X216250301Y-89972274D01*
X216213776Y-90155897D01*
X213504248Y-90155897D01*
X213504248Y-86821126D01*
X229353776Y-86821126D01*
X229353776Y-86952909D01*
X229387884Y-87080205D01*
X229420830Y-87137268D01*
X229453776Y-87194332D01*
X229546962Y-87287518D01*
X229661090Y-87353410D01*
X229788384Y-87387518D01*
X229788386Y-87387518D01*
X229920166Y-87387518D01*
X229920168Y-87387518D01*
X230047462Y-87353410D01*
X230161590Y-87287518D01*
X230254776Y-87194332D01*
X230320668Y-87080204D01*
X230354776Y-86952910D01*
X230354776Y-86821126D01*
X230320668Y-86693832D01*
X230254776Y-86579704D01*
X230161590Y-86486518D01*
X230076718Y-86437517D01*
X230047463Y-86420626D01*
X229974179Y-86400990D01*
X229920168Y-86386518D01*
X229788384Y-86386518D01*
X229661088Y-86420626D01*
X229546962Y-86486518D01*
X229546959Y-86486520D01*
X229453778Y-86579701D01*
X229453776Y-86579704D01*
X229387884Y-86693830D01*
X229353776Y-86821126D01*
X213504248Y-86821126D01*
X213504248Y-84911018D01*
X213523933Y-84843979D01*
X213576737Y-84798224D01*
X213628248Y-84787018D01*
X225056856Y-84787018D01*
X225123895Y-84806703D01*
G37*
G04 #@! TD.AperFunction*
G04 #@! TD*
G04 #@! TA.AperFunction,Conductor*
G04 #@! TO.N,+3.3V*
G36*
X263520749Y-57698948D02*
G01*
X263688897Y-57750254D01*
X263706849Y-57757729D01*
X263802516Y-57809126D01*
X263862753Y-57841488D01*
X263878903Y-57852335D01*
X264015406Y-57964957D01*
X264029124Y-57978753D01*
X264140968Y-58115898D01*
X264151723Y-58132110D01*
X264234590Y-58288486D01*
X264241966Y-58306490D01*
X264292646Y-58476043D01*
X264296359Y-58495140D01*
X264313360Y-58676206D01*
X264313793Y-58685936D01*
X264290248Y-63591493D01*
X264271061Y-63649592D01*
X264221389Y-63685318D01*
X264191249Y-63690018D01*
X262136449Y-63690018D01*
X262086950Y-63676754D01*
X261995795Y-63624126D01*
X261868501Y-63590018D01*
X261736717Y-63590018D01*
X261658809Y-63610893D01*
X261609418Y-63624127D01*
X261495299Y-63690014D01*
X261402105Y-63783208D01*
X261336218Y-63897327D01*
X261328903Y-63924627D01*
X261302109Y-64024626D01*
X261302109Y-64156410D01*
X261336217Y-64283704D01*
X261388845Y-64374859D01*
X261402109Y-64424358D01*
X261402109Y-64471689D01*
X261388846Y-64521188D01*
X261344915Y-64597278D01*
X261339995Y-64615641D01*
X261310807Y-64724574D01*
X261310807Y-64856358D01*
X261340886Y-64968617D01*
X261344916Y-64983656D01*
X261410803Y-65097775D01*
X261410805Y-65097777D01*
X261410807Y-65097780D01*
X261503993Y-65190966D01*
X261503995Y-65190967D01*
X261503997Y-65190969D01*
X261618117Y-65256856D01*
X261618115Y-65256856D01*
X261618119Y-65256857D01*
X261618121Y-65256858D01*
X261745415Y-65290966D01*
X261745417Y-65290966D01*
X261877197Y-65290966D01*
X261877199Y-65290966D01*
X262004493Y-65256858D01*
X262004495Y-65256856D01*
X262004497Y-65256856D01*
X262118616Y-65190969D01*
X262118616Y-65190968D01*
X262118621Y-65190966D01*
X262211807Y-65097780D01*
X262277699Y-64983652D01*
X262311807Y-64856358D01*
X262311807Y-64724574D01*
X262282618Y-64615638D01*
X262285821Y-64554540D01*
X262324326Y-64506990D01*
X262378245Y-64491018D01*
X264186455Y-64491018D01*
X264244646Y-64509925D01*
X264280610Y-64559425D01*
X264285453Y-64590489D01*
X264280789Y-65562316D01*
X264280789Y-65562318D01*
X264300458Y-65764534D01*
X264300458Y-65764535D01*
X264360596Y-65958609D01*
X264362570Y-65963247D01*
X264361097Y-65963873D01*
X264371359Y-66017278D01*
X264358859Y-66054499D01*
X264313294Y-66133418D01*
X264295152Y-66201126D01*
X264279185Y-66260717D01*
X264279185Y-66392501D01*
X264279295Y-66392910D01*
X264313294Y-66519799D01*
X264379181Y-66633918D01*
X264379183Y-66633920D01*
X264379185Y-66633923D01*
X264472371Y-66727109D01*
X264472373Y-66727110D01*
X264472375Y-66727112D01*
X264586495Y-66792999D01*
X264586493Y-66792999D01*
X264586497Y-66793000D01*
X264586499Y-66793001D01*
X264713793Y-66827109D01*
X264713795Y-66827109D01*
X264845577Y-66827109D01*
X264855414Y-66824473D01*
X264916515Y-66827672D01*
X264962425Y-66863727D01*
X265786010Y-68052745D01*
X265803601Y-68111347D01*
X265783387Y-68169097D01*
X265754127Y-68194852D01*
X265681964Y-68236516D01*
X265588772Y-68329708D01*
X265522885Y-68443827D01*
X265522884Y-68443832D01*
X265488776Y-68571126D01*
X265488776Y-68702910D01*
X265502321Y-68753461D01*
X265522884Y-68830205D01*
X265560264Y-68894948D01*
X265572985Y-68954796D01*
X265548098Y-69010692D01*
X265495110Y-69041285D01*
X265434260Y-69034889D01*
X265412267Y-69019774D01*
X265411736Y-69020467D01*
X265406585Y-69016514D01*
X265292465Y-68950627D01*
X265292467Y-68950627D01*
X265243075Y-68937393D01*
X265165168Y-68916518D01*
X265033384Y-68916518D01*
X264955476Y-68937393D01*
X264906085Y-68950627D01*
X264791966Y-69016514D01*
X264698772Y-69109708D01*
X264632885Y-69223827D01*
X264632884Y-69223832D01*
X264598776Y-69351126D01*
X264598776Y-69482910D01*
X264621527Y-69567818D01*
X264632885Y-69610208D01*
X264698772Y-69724327D01*
X264698774Y-69724329D01*
X264698776Y-69724332D01*
X264791962Y-69817518D01*
X264791964Y-69817519D01*
X264791966Y-69817521D01*
X264906086Y-69883408D01*
X264906084Y-69883408D01*
X264906088Y-69883409D01*
X264906090Y-69883410D01*
X265033384Y-69917518D01*
X265033386Y-69917518D01*
X265165166Y-69917518D01*
X265165168Y-69917518D01*
X265292462Y-69883410D01*
X265292464Y-69883408D01*
X265292466Y-69883408D01*
X265406585Y-69817521D01*
X265406585Y-69817520D01*
X265406590Y-69817518D01*
X265499776Y-69724332D01*
X265565668Y-69610204D01*
X265599776Y-69482910D01*
X265599776Y-69351126D01*
X265565668Y-69223832D01*
X265565666Y-69223829D01*
X265565666Y-69223827D01*
X265528288Y-69159087D01*
X265515566Y-69099239D01*
X265540452Y-69043343D01*
X265593440Y-69012750D01*
X265654291Y-69019146D01*
X265676284Y-69034261D01*
X265676816Y-69033569D01*
X265681966Y-69037521D01*
X265796086Y-69103408D01*
X265796084Y-69103408D01*
X265796088Y-69103409D01*
X265796090Y-69103410D01*
X265923384Y-69137518D01*
X265923386Y-69137518D01*
X266055166Y-69137518D01*
X266055168Y-69137518D01*
X266182462Y-69103410D01*
X266182464Y-69103408D01*
X266182466Y-69103408D01*
X266296585Y-69037521D01*
X266296585Y-69037520D01*
X266296590Y-69037518D01*
X266314069Y-69020038D01*
X266368583Y-68992261D01*
X266429015Y-69001831D01*
X266465456Y-69033671D01*
X268869421Y-72504303D01*
X268874590Y-72512617D01*
X268963337Y-72672455D01*
X268971096Y-72690407D01*
X269025190Y-72859873D01*
X269029268Y-72879002D01*
X269048992Y-73055802D01*
X269049230Y-73075357D01*
X269033814Y-73252583D01*
X269030203Y-73271804D01*
X268980249Y-73442542D01*
X268972930Y-73460678D01*
X268890387Y-73618263D01*
X268879645Y-73634606D01*
X268767734Y-73772890D01*
X268753989Y-73786804D01*
X268617076Y-73900390D01*
X268600865Y-73911329D01*
X268444296Y-73995784D01*
X268426250Y-74003323D01*
X268256137Y-74055350D01*
X268236962Y-74059195D01*
X268055032Y-74077254D01*
X268045253Y-74077738D01*
X254193910Y-74077738D01*
X254184195Y-74077260D01*
X254184134Y-74077254D01*
X254173994Y-74076254D01*
X254003445Y-74059436D01*
X253984392Y-74055642D01*
X253815275Y-74004279D01*
X253797343Y-73996841D01*
X253641516Y-73913437D01*
X253625371Y-73902634D01*
X253488840Y-73790406D01*
X253475113Y-73776654D01*
X253472030Y-73772890D01*
X253363135Y-73639925D01*
X253352359Y-73623759D01*
X253269237Y-73467787D01*
X253261826Y-73449826D01*
X253210771Y-73280630D01*
X253207011Y-73261573D01*
X253189511Y-73080765D01*
X253189052Y-73071081D01*
X253194784Y-69887339D01*
X253213796Y-69829183D01*
X253263361Y-69793308D01*
X253293784Y-69788518D01*
X253525308Y-69788518D01*
X253583499Y-69807425D01*
X253619463Y-69856925D01*
X253619463Y-69918111D01*
X253615169Y-69927751D01*
X253615368Y-69927834D01*
X253612885Y-69933826D01*
X253597706Y-69990477D01*
X253578776Y-70061126D01*
X253578776Y-70192910D01*
X253592158Y-70242853D01*
X253612885Y-70320208D01*
X253678772Y-70434327D01*
X253678774Y-70434329D01*
X253678776Y-70434332D01*
X253771962Y-70527518D01*
X253771964Y-70527519D01*
X253771966Y-70527521D01*
X253886086Y-70593408D01*
X253886084Y-70593408D01*
X253886088Y-70593409D01*
X253886090Y-70593410D01*
X254013384Y-70627518D01*
X254013386Y-70627518D01*
X254145166Y-70627518D01*
X254145168Y-70627518D01*
X254272462Y-70593410D01*
X254272464Y-70593408D01*
X254272466Y-70593408D01*
X254386585Y-70527521D01*
X254386585Y-70527520D01*
X254386590Y-70527518D01*
X254479776Y-70434332D01*
X254524702Y-70356518D01*
X254545666Y-70320208D01*
X254545666Y-70320206D01*
X254545668Y-70320204D01*
X254579776Y-70192910D01*
X254579776Y-70061126D01*
X254545668Y-69933832D01*
X254545667Y-69933830D01*
X254545666Y-69933826D01*
X254543184Y-69927834D01*
X254545365Y-69926930D01*
X254534785Y-69877179D01*
X254559666Y-69821281D01*
X254612652Y-69790683D01*
X254633244Y-69788518D01*
X258730448Y-69788518D01*
X258788639Y-69807425D01*
X258824603Y-69856925D01*
X258824603Y-69918111D01*
X258788639Y-69967611D01*
X258779954Y-69973250D01*
X258750118Y-69990477D01*
X258680844Y-70030472D01*
X258587655Y-70123661D01*
X258518839Y-70242853D01*
X258473369Y-70283793D01*
X258412519Y-70290188D01*
X258359531Y-70259595D01*
X258347369Y-70242855D01*
X258339776Y-70229704D01*
X258246590Y-70136518D01*
X258246587Y-70136516D01*
X258246585Y-70136514D01*
X258132465Y-70070627D01*
X258132467Y-70070627D01*
X258083075Y-70057393D01*
X258005168Y-70036518D01*
X257873384Y-70036518D01*
X257795476Y-70057393D01*
X257746085Y-70070627D01*
X257631966Y-70136514D01*
X257538772Y-70229708D01*
X257472885Y-70343827D01*
X257453815Y-70414996D01*
X257438776Y-70471126D01*
X257438776Y-70602910D01*
X257444470Y-70624159D01*
X257472885Y-70730208D01*
X257538772Y-70844327D01*
X257538774Y-70844329D01*
X257538776Y-70844332D01*
X257631962Y-70937518D01*
X257631964Y-70937519D01*
X257631966Y-70937521D01*
X257746086Y-71003408D01*
X257746084Y-71003408D01*
X257746088Y-71003409D01*
X257746090Y-71003410D01*
X257873384Y-71037518D01*
X257873386Y-71037518D01*
X258005166Y-71037518D01*
X258005168Y-71037518D01*
X258132462Y-71003410D01*
X258132464Y-71003408D01*
X258132466Y-71003408D01*
X258246585Y-70937521D01*
X258246585Y-70937520D01*
X258246590Y-70937518D01*
X258339776Y-70844332D01*
X258405668Y-70730204D01*
X258405668Y-70730201D01*
X258408592Y-70725138D01*
X258454062Y-70684197D01*
X258514912Y-70677801D01*
X258567900Y-70708394D01*
X258580066Y-70725139D01*
X258582992Y-70730208D01*
X258587657Y-70738287D01*
X258680843Y-70831473D01*
X258680845Y-70831474D01*
X258680847Y-70831476D01*
X258794967Y-70897363D01*
X258794965Y-70897363D01*
X258794969Y-70897364D01*
X258794971Y-70897365D01*
X258922265Y-70931473D01*
X258922267Y-70931473D01*
X259054047Y-70931473D01*
X259054049Y-70931473D01*
X259181343Y-70897365D01*
X259181345Y-70897363D01*
X259181347Y-70897363D01*
X259295466Y-70831476D01*
X259295466Y-70831475D01*
X259295471Y-70831473D01*
X259388657Y-70738287D01*
X259388660Y-70738282D01*
X259454547Y-70624163D01*
X259454547Y-70624161D01*
X259454549Y-70624159D01*
X259488657Y-70496865D01*
X259488657Y-70365081D01*
X259454549Y-70237787D01*
X259454547Y-70237784D01*
X259454547Y-70237782D01*
X259388660Y-70123663D01*
X259388658Y-70123661D01*
X259388657Y-70123659D01*
X259295471Y-70030473D01*
X259196365Y-69973254D01*
X259155425Y-69927785D01*
X259149029Y-69866935D01*
X259179622Y-69813947D01*
X259235518Y-69789060D01*
X259245866Y-69788518D01*
X259576958Y-69788518D01*
X259635149Y-69807425D01*
X259655500Y-69827251D01*
X259658679Y-69831394D01*
X259658681Y-69831396D01*
X259658683Y-69831399D01*
X259751869Y-69924585D01*
X259751871Y-69924586D01*
X259751873Y-69924588D01*
X259865993Y-69990475D01*
X259865991Y-69990475D01*
X259865995Y-69990476D01*
X259865997Y-69990477D01*
X259993291Y-70024585D01*
X259993293Y-70024585D01*
X260125073Y-70024585D01*
X260125075Y-70024585D01*
X260252369Y-69990477D01*
X260252371Y-69990475D01*
X260252373Y-69990475D01*
X260366492Y-69924588D01*
X260366492Y-69924587D01*
X260366497Y-69924585D01*
X260459683Y-69831399D01*
X260459686Y-69831394D01*
X260525573Y-69717275D01*
X260525573Y-69717273D01*
X260525575Y-69717271D01*
X260559683Y-69589977D01*
X260559683Y-69586518D01*
X260560448Y-69584161D01*
X260560530Y-69583543D01*
X260560644Y-69583558D01*
X260578590Y-69528327D01*
X260628090Y-69492363D01*
X260658683Y-69487518D01*
X260695166Y-69487518D01*
X260695168Y-69487518D01*
X260822462Y-69453410D01*
X260822464Y-69453408D01*
X260822466Y-69453408D01*
X260936585Y-69387521D01*
X260936585Y-69387520D01*
X260936590Y-69387518D01*
X261029776Y-69294332D01*
X261062578Y-69237518D01*
X261095666Y-69180208D01*
X261095666Y-69180206D01*
X261095668Y-69180204D01*
X261129776Y-69052910D01*
X261129776Y-68921126D01*
X261095668Y-68793832D01*
X261095666Y-68793829D01*
X261095666Y-68793827D01*
X261029779Y-68679708D01*
X261029777Y-68679706D01*
X261029776Y-68679704D01*
X260936590Y-68586518D01*
X260936587Y-68586516D01*
X260936585Y-68586514D01*
X260822465Y-68520627D01*
X260822467Y-68520627D01*
X260773075Y-68507393D01*
X260695168Y-68486518D01*
X260563384Y-68486518D01*
X260485476Y-68507393D01*
X260436085Y-68520627D01*
X260321966Y-68586514D01*
X260321965Y-68586515D01*
X260321962Y-68586517D01*
X260321962Y-68586518D01*
X260228776Y-68679704D01*
X260228774Y-68679706D01*
X260225959Y-68682522D01*
X260171442Y-68710299D01*
X260155955Y-68711518D01*
X255927920Y-68711518D01*
X255869729Y-68692611D01*
X255833765Y-68643111D01*
X255833765Y-68581925D01*
X255865554Y-68535632D01*
X255876732Y-68526564D01*
X255915334Y-68510575D01*
X255992833Y-68433076D01*
X255992832Y-68433076D01*
X257629395Y-66796514D01*
X257683912Y-66768737D01*
X257699399Y-66767518D01*
X257835166Y-66767518D01*
X257835168Y-66767518D01*
X257962462Y-66733410D01*
X257962464Y-66733408D01*
X257962466Y-66733408D01*
X258076585Y-66667521D01*
X258076585Y-66667520D01*
X258076590Y-66667518D01*
X258169776Y-66574332D01*
X258235668Y-66460204D01*
X258269776Y-66332910D01*
X258269776Y-66201126D01*
X258235668Y-66073832D01*
X258235666Y-66073829D01*
X258235666Y-66073827D01*
X258169779Y-65959708D01*
X258169777Y-65959706D01*
X258169776Y-65959704D01*
X258076590Y-65866518D01*
X258076587Y-65866516D01*
X258076585Y-65866514D01*
X257962465Y-65800627D01*
X257962467Y-65800627D01*
X257913075Y-65787393D01*
X257835168Y-65766518D01*
X257703384Y-65766518D01*
X257625476Y-65787393D01*
X257576085Y-65800627D01*
X257456342Y-65869762D01*
X257454966Y-65867379D01*
X257408152Y-65883914D01*
X257349500Y-65866489D01*
X257335642Y-65854954D01*
X257326864Y-65846176D01*
X257326861Y-65846174D01*
X257326859Y-65846172D01*
X257212739Y-65780285D01*
X257212741Y-65780285D01*
X257153959Y-65764535D01*
X257085442Y-65746176D01*
X256953658Y-65746176D01*
X256885141Y-65764535D01*
X256826359Y-65780285D01*
X256712240Y-65846172D01*
X256619046Y-65939366D01*
X256553159Y-66053485D01*
X256519050Y-66180785D01*
X256519050Y-66296619D01*
X256500143Y-66354810D01*
X256490054Y-66366623D01*
X255454157Y-67402522D01*
X255399640Y-67430299D01*
X255384153Y-67431518D01*
X253298384Y-67431518D01*
X253240193Y-67412611D01*
X253204229Y-67363111D01*
X253199384Y-67332340D01*
X253199557Y-67236043D01*
X253201857Y-65958610D01*
X253202127Y-65808107D01*
X253221139Y-65749953D01*
X253231111Y-65738297D01*
X254449395Y-64520014D01*
X254503912Y-64492237D01*
X254519399Y-64491018D01*
X254655166Y-64491018D01*
X254655168Y-64491018D01*
X254782462Y-64456910D01*
X254782464Y-64456908D01*
X254782466Y-64456908D01*
X254896585Y-64391021D01*
X254896585Y-64391020D01*
X254896590Y-64391018D01*
X254989776Y-64297832D01*
X254989958Y-64297517D01*
X255055666Y-64183708D01*
X255055666Y-64183706D01*
X255055668Y-64183704D01*
X255089776Y-64056410D01*
X255089776Y-63924626D01*
X255055668Y-63797332D01*
X255055666Y-63797329D01*
X255055666Y-63797327D01*
X254989779Y-63683208D01*
X254989777Y-63683206D01*
X254989776Y-63683204D01*
X254896590Y-63590018D01*
X254896587Y-63590016D01*
X254896585Y-63590014D01*
X254782465Y-63524127D01*
X254782467Y-63524127D01*
X254733075Y-63510893D01*
X254655168Y-63490018D01*
X254523384Y-63490018D01*
X254445476Y-63510893D01*
X254396085Y-63524127D01*
X254281966Y-63590014D01*
X254188772Y-63683208D01*
X254122885Y-63797327D01*
X254088776Y-63924627D01*
X254088776Y-64060393D01*
X254069869Y-64118584D01*
X254059780Y-64130397D01*
X253373041Y-64817135D01*
X253318524Y-64844912D01*
X253258092Y-64835341D01*
X253214827Y-64792076D01*
X253204038Y-64746957D01*
X253210798Y-60991293D01*
X257135443Y-60991293D01*
X257135443Y-61123077D01*
X257162262Y-61223166D01*
X257169552Y-61250375D01*
X257235439Y-61364494D01*
X257235441Y-61364496D01*
X257235443Y-61364499D01*
X257328629Y-61457685D01*
X257328631Y-61457686D01*
X257328633Y-61457688D01*
X257442753Y-61523575D01*
X257442754Y-61523575D01*
X257442757Y-61523577D01*
X257460103Y-61528224D01*
X257511417Y-61561547D01*
X257533344Y-61618668D01*
X257517509Y-61677769D01*
X257469960Y-61716275D01*
X257460106Y-61719477D01*
X257442754Y-61724126D01*
X257442753Y-61724127D01*
X257328633Y-61790014D01*
X257235439Y-61883208D01*
X257169552Y-61997327D01*
X257169551Y-61997332D01*
X257135443Y-62124626D01*
X257135443Y-62256410D01*
X257145470Y-62293832D01*
X257169552Y-62383708D01*
X257235439Y-62497827D01*
X257235441Y-62497829D01*
X257235443Y-62497832D01*
X257328629Y-62591018D01*
X257328631Y-62591019D01*
X257328633Y-62591021D01*
X257442753Y-62656908D01*
X257442754Y-62656908D01*
X257442757Y-62656910D01*
X257460103Y-62661557D01*
X257511417Y-62694880D01*
X257533344Y-62752001D01*
X257517509Y-62811102D01*
X257469960Y-62849608D01*
X257460106Y-62852810D01*
X257442754Y-62857459D01*
X257442753Y-62857460D01*
X257328633Y-62923347D01*
X257235439Y-63016541D01*
X257169552Y-63130660D01*
X257169551Y-63130665D01*
X257135443Y-63257959D01*
X257135443Y-63389743D01*
X257149521Y-63442283D01*
X257169552Y-63517041D01*
X257235439Y-63631160D01*
X257235441Y-63631162D01*
X257235443Y-63631165D01*
X257328629Y-63724351D01*
X257328631Y-63724352D01*
X257328633Y-63724354D01*
X257442753Y-63790241D01*
X257442751Y-63790241D01*
X257442755Y-63790242D01*
X257442757Y-63790243D01*
X257570051Y-63824351D01*
X257570053Y-63824351D01*
X257701833Y-63824351D01*
X257701835Y-63824351D01*
X257829129Y-63790243D01*
X257829131Y-63790241D01*
X257829133Y-63790241D01*
X257943252Y-63724354D01*
X257943252Y-63724353D01*
X257943257Y-63724351D01*
X258036443Y-63631165D01*
X258102335Y-63517037D01*
X258106982Y-63499690D01*
X258140304Y-63448377D01*
X258197425Y-63426449D01*
X258256526Y-63442283D01*
X258295033Y-63489832D01*
X258298235Y-63499688D01*
X258302884Y-63517038D01*
X258302885Y-63517040D01*
X258368772Y-63631160D01*
X258368774Y-63631162D01*
X258368776Y-63631165D01*
X258461962Y-63724351D01*
X258461964Y-63724352D01*
X258461966Y-63724354D01*
X258576086Y-63790241D01*
X258576084Y-63790241D01*
X258576088Y-63790242D01*
X258576090Y-63790243D01*
X258703384Y-63824351D01*
X258703386Y-63824351D01*
X258835166Y-63824351D01*
X258835168Y-63824351D01*
X258962462Y-63790243D01*
X258962464Y-63790241D01*
X258962466Y-63790241D01*
X259076585Y-63724354D01*
X259076585Y-63724353D01*
X259076590Y-63724351D01*
X259169776Y-63631165D01*
X259235668Y-63517037D01*
X259240315Y-63499690D01*
X259273637Y-63448377D01*
X259330758Y-63426449D01*
X259389859Y-63442283D01*
X259428366Y-63489832D01*
X259431568Y-63499688D01*
X259436217Y-63517038D01*
X259436218Y-63517040D01*
X259502105Y-63631160D01*
X259502107Y-63631162D01*
X259502109Y-63631165D01*
X259595295Y-63724351D01*
X259595297Y-63724352D01*
X259595299Y-63724354D01*
X259709419Y-63790241D01*
X259709417Y-63790241D01*
X259709421Y-63790242D01*
X259709423Y-63790243D01*
X259836717Y-63824351D01*
X259836719Y-63824351D01*
X259968499Y-63824351D01*
X259968501Y-63824351D01*
X260095795Y-63790243D01*
X260095797Y-63790241D01*
X260095799Y-63790241D01*
X260209918Y-63724354D01*
X260209918Y-63724353D01*
X260209923Y-63724351D01*
X260303109Y-63631165D01*
X260303112Y-63631160D01*
X260368999Y-63517041D01*
X260369000Y-63517038D01*
X260369001Y-63517037D01*
X260403109Y-63389743D01*
X260403109Y-63257959D01*
X260369001Y-63130665D01*
X260368999Y-63130662D01*
X260368999Y-63130660D01*
X260303112Y-63016541D01*
X260303110Y-63016539D01*
X260303109Y-63016537D01*
X260209923Y-62923351D01*
X260209920Y-62923349D01*
X260209918Y-62923347D01*
X260095798Y-62857460D01*
X260095796Y-62857459D01*
X260078446Y-62852810D01*
X260027133Y-62819486D01*
X260005207Y-62762364D01*
X260021043Y-62703263D01*
X260068594Y-62664759D01*
X260078440Y-62661560D01*
X260095795Y-62656910D01*
X260209923Y-62591018D01*
X260303109Y-62497832D01*
X260332757Y-62446480D01*
X260368999Y-62383708D01*
X260369000Y-62383705D01*
X260369001Y-62383704D01*
X260403109Y-62256410D01*
X260403109Y-62124626D01*
X260369001Y-61997332D01*
X260368999Y-61997329D01*
X260368999Y-61997327D01*
X260303112Y-61883208D01*
X260303110Y-61883206D01*
X260303109Y-61883204D01*
X260209923Y-61790018D01*
X260209920Y-61790016D01*
X260209918Y-61790014D01*
X260095798Y-61724127D01*
X260095796Y-61724126D01*
X260078446Y-61719477D01*
X260027133Y-61686153D01*
X260005207Y-61629031D01*
X260021043Y-61569930D01*
X260068594Y-61531426D01*
X260078440Y-61528227D01*
X260095795Y-61523577D01*
X260209923Y-61457685D01*
X260303109Y-61364499D01*
X260369001Y-61250371D01*
X260403109Y-61123077D01*
X260403109Y-60991293D01*
X260369001Y-60863999D01*
X260368999Y-60863996D01*
X260368999Y-60863994D01*
X260303112Y-60749875D01*
X260303110Y-60749873D01*
X260303109Y-60749871D01*
X260209923Y-60656685D01*
X260209920Y-60656683D01*
X260209918Y-60656681D01*
X260095798Y-60590794D01*
X260095800Y-60590794D01*
X260046408Y-60577560D01*
X259968501Y-60556685D01*
X259836717Y-60556685D01*
X259758809Y-60577560D01*
X259709418Y-60590794D01*
X259595299Y-60656681D01*
X259502105Y-60749875D01*
X259436218Y-60863995D01*
X259436217Y-60863996D01*
X259431568Y-60881348D01*
X259398243Y-60932661D01*
X259341121Y-60954586D01*
X259282021Y-60938749D01*
X259243517Y-60891198D01*
X259240318Y-60881353D01*
X259235668Y-60863999D01*
X259206171Y-60812908D01*
X259169779Y-60749875D01*
X259169777Y-60749873D01*
X259169776Y-60749871D01*
X259076590Y-60656685D01*
X259076587Y-60656683D01*
X259076585Y-60656681D01*
X258962465Y-60590794D01*
X258962467Y-60590794D01*
X258913075Y-60577560D01*
X258835168Y-60556685D01*
X258703384Y-60556685D01*
X258625476Y-60577560D01*
X258576085Y-60590794D01*
X258461966Y-60656681D01*
X258368772Y-60749875D01*
X258302885Y-60863995D01*
X258302884Y-60863996D01*
X258298235Y-60881348D01*
X258264910Y-60932661D01*
X258207788Y-60954586D01*
X258148688Y-60938749D01*
X258110184Y-60891198D01*
X258106985Y-60881353D01*
X258102335Y-60863999D01*
X258072838Y-60812908D01*
X258036446Y-60749875D01*
X258036444Y-60749873D01*
X258036443Y-60749871D01*
X257943257Y-60656685D01*
X257943254Y-60656683D01*
X257943252Y-60656681D01*
X257829132Y-60590794D01*
X257829134Y-60590794D01*
X257779742Y-60577560D01*
X257701835Y-60556685D01*
X257570051Y-60556685D01*
X257492143Y-60577560D01*
X257442752Y-60590794D01*
X257328633Y-60656681D01*
X257235439Y-60749875D01*
X257169552Y-60863994D01*
X257165928Y-60877521D01*
X257135443Y-60991293D01*
X253210798Y-60991293D01*
X253212984Y-59777071D01*
X253213146Y-59687340D01*
X253217991Y-59672519D01*
X253217991Y-59656925D01*
X253227259Y-59644168D01*
X253232158Y-59629183D01*
X253244789Y-59620040D01*
X253253955Y-59607425D01*
X253268950Y-59602552D01*
X253281723Y-59593308D01*
X253312146Y-59588518D01*
X253420153Y-59588518D01*
X253478344Y-59607425D01*
X253490156Y-59617513D01*
X254209780Y-60337138D01*
X254237557Y-60391654D01*
X254238776Y-60407141D01*
X254238776Y-60411126D01*
X254238776Y-60542910D01*
X254262413Y-60631126D01*
X254272885Y-60670208D01*
X254338772Y-60784327D01*
X254338774Y-60784329D01*
X254338776Y-60784332D01*
X254431962Y-60877518D01*
X254431964Y-60877519D01*
X254431966Y-60877521D01*
X254546086Y-60943408D01*
X254546084Y-60943408D01*
X254546088Y-60943409D01*
X254546090Y-60943410D01*
X254673384Y-60977518D01*
X254673386Y-60977518D01*
X254805166Y-60977518D01*
X254805168Y-60977518D01*
X254932462Y-60943410D01*
X254932464Y-60943408D01*
X254932466Y-60943408D01*
X255009266Y-60899068D01*
X255046585Y-60877521D01*
X255046585Y-60877520D01*
X255046590Y-60877518D01*
X255139776Y-60784332D01*
X255199362Y-60681126D01*
X255205666Y-60670208D01*
X255205666Y-60670206D01*
X255205668Y-60670204D01*
X255239776Y-60542910D01*
X255239776Y-60411126D01*
X255205668Y-60283832D01*
X255205666Y-60283829D01*
X255205666Y-60283827D01*
X255139779Y-60169708D01*
X255139777Y-60169706D01*
X255139776Y-60169704D01*
X255046590Y-60076518D01*
X255046587Y-60076516D01*
X255046585Y-60076514D01*
X254932465Y-60010627D01*
X254932467Y-60010627D01*
X254883075Y-59997393D01*
X254805168Y-59976518D01*
X254673384Y-59976518D01*
X254669400Y-59976518D01*
X254611209Y-59957611D01*
X254599397Y-59947522D01*
X253731337Y-59079464D01*
X253731334Y-59079461D01*
X253630076Y-59037518D01*
X253313494Y-59037518D01*
X253255303Y-59018611D01*
X253219339Y-58969111D01*
X253214494Y-58938340D01*
X253214975Y-58671121D01*
X253215469Y-58661430D01*
X253232140Y-58495140D01*
X253233556Y-58481012D01*
X253237368Y-58462013D01*
X253288863Y-58293249D01*
X253296314Y-58275343D01*
X253373154Y-58132110D01*
X253379721Y-58119868D01*
X253390513Y-58103767D01*
X253502646Y-57967524D01*
X253516369Y-57953838D01*
X253652910Y-57842077D01*
X253669032Y-57831334D01*
X253824747Y-57748339D01*
X253842680Y-57740937D01*
X253845901Y-57739964D01*
X253846634Y-57739743D01*
X253875247Y-57735518D01*
X260987153Y-57735518D01*
X261045344Y-57754425D01*
X261057157Y-57764514D01*
X262349780Y-59057137D01*
X262377557Y-59111654D01*
X262378776Y-59127141D01*
X262378776Y-59131126D01*
X262378776Y-59262910D01*
X262395179Y-59324126D01*
X262412885Y-59390208D01*
X262478772Y-59504327D01*
X262478774Y-59504329D01*
X262478776Y-59504332D01*
X262571962Y-59597518D01*
X262571964Y-59597519D01*
X262571966Y-59597521D01*
X262686086Y-59663408D01*
X262686084Y-59663408D01*
X262686088Y-59663409D01*
X262686090Y-59663410D01*
X262813384Y-59697518D01*
X262813386Y-59697518D01*
X262945167Y-59697518D01*
X262945168Y-59697518D01*
X263005153Y-59681445D01*
X263066254Y-59684646D01*
X263113804Y-59723151D01*
X263129776Y-59777071D01*
X263129776Y-60012394D01*
X263127307Y-60019991D01*
X263128557Y-60027881D01*
X263118032Y-60048536D01*
X263110869Y-60070585D01*
X263100780Y-60082397D01*
X262965654Y-60217522D01*
X262911139Y-60245299D01*
X262895652Y-60246518D01*
X262891668Y-60246518D01*
X262759884Y-60246518D01*
X262681976Y-60267393D01*
X262632585Y-60280627D01*
X262518466Y-60346514D01*
X262425272Y-60439708D01*
X262359385Y-60553827D01*
X262349480Y-60590793D01*
X262325276Y-60681126D01*
X262325276Y-60812910D01*
X262343613Y-60881344D01*
X262359385Y-60940208D01*
X262425272Y-61054327D01*
X262425274Y-61054329D01*
X262425276Y-61054332D01*
X262518462Y-61147518D01*
X262518464Y-61147519D01*
X262518466Y-61147521D01*
X262632586Y-61213408D01*
X262632584Y-61213408D01*
X262632588Y-61213409D01*
X262632590Y-61213410D01*
X262759884Y-61247518D01*
X262759886Y-61247518D01*
X262891666Y-61247518D01*
X262891668Y-61247518D01*
X263018962Y-61213410D01*
X263018964Y-61213408D01*
X263018966Y-61213408D01*
X263133085Y-61147521D01*
X263133085Y-61147520D01*
X263133090Y-61147518D01*
X263226276Y-61054332D01*
X263292168Y-60940204D01*
X263326276Y-60812910D01*
X263326276Y-60681126D01*
X263326276Y-60677140D01*
X263345183Y-60618949D01*
X263355273Y-60607136D01*
X263458577Y-60503832D01*
X263638834Y-60323576D01*
X263652320Y-60291018D01*
X263680776Y-60222319D01*
X263680776Y-58181878D01*
X263679892Y-58179746D01*
X263679885Y-58179727D01*
X263638834Y-58080620D01*
X263421857Y-57863642D01*
X263418638Y-57857324D01*
X263412829Y-57853262D01*
X263404991Y-57830541D01*
X263394080Y-57809126D01*
X263395189Y-57802123D01*
X263392877Y-57795421D01*
X263399891Y-57772434D01*
X263403651Y-57748694D01*
X263408665Y-57743679D01*
X263410734Y-57736900D01*
X263429918Y-57722426D01*
X263446916Y-57705429D01*
X263453918Y-57704320D01*
X263459578Y-57700050D01*
X263483610Y-57699617D01*
X263507348Y-57695858D01*
X263520749Y-57698948D01*
G37*
G04 #@! TD.AperFunction*
G04 #@! TD*
G04 #@! TA.AperFunction,Conductor*
G04 #@! TO.N,GND*
G36*
X126909492Y-89506703D02*
G01*
X126955247Y-89559507D01*
X126966453Y-89611018D01*
X126966453Y-90567872D01*
X126946768Y-90634911D01*
X126930134Y-90655553D01*
X126473274Y-91112413D01*
X126411951Y-91145898D01*
X126397174Y-91148190D01*
X126384575Y-91149371D01*
X126384574Y-91149371D01*
X126256395Y-91194224D01*
X126256393Y-91194225D01*
X126147126Y-91274868D01*
X126066483Y-91384135D01*
X126066482Y-91384137D01*
X126021629Y-91512316D01*
X126021629Y-91512318D01*
X126018776Y-91542748D01*
X126018776Y-91588494D01*
X126005261Y-91644789D01*
X125921380Y-91809411D01*
X125921379Y-91809414D01*
X125853261Y-92019065D01*
X125818775Y-92236797D01*
X125818775Y-92457238D01*
X125853261Y-92674970D01*
X125921379Y-92884621D01*
X125921382Y-92884629D01*
X126005260Y-93049244D01*
X126018776Y-93105540D01*
X126018776Y-93151287D01*
X126021629Y-93181717D01*
X126021629Y-93181719D01*
X126066482Y-93309898D01*
X126066483Y-93309900D01*
X126147126Y-93419168D01*
X126256394Y-93499811D01*
X126299121Y-93514762D01*
X126384575Y-93544664D01*
X126415006Y-93547518D01*
X126415010Y-93547518D01*
X126460753Y-93547518D01*
X126517048Y-93561033D01*
X126681669Y-93644913D01*
X126681672Y-93644914D01*
X126858094Y-93702236D01*
X126915769Y-93741673D01*
X126942968Y-93806031D01*
X126943776Y-93820167D01*
X126943776Y-98845527D01*
X126924091Y-98912566D01*
X126907457Y-98933208D01*
X126195541Y-99645125D01*
X126118043Y-99722622D01*
X126076099Y-99823881D01*
X126076099Y-100463342D01*
X126056414Y-100530381D01*
X126039780Y-100551023D01*
X125951101Y-100639701D01*
X125951099Y-100639704D01*
X125885207Y-100753830D01*
X125851099Y-100881126D01*
X125851099Y-101012909D01*
X125885207Y-101140205D01*
X125918153Y-101197268D01*
X125951099Y-101254332D01*
X126044285Y-101347518D01*
X126158413Y-101413410D01*
X126285707Y-101447518D01*
X126285709Y-101447518D01*
X126417489Y-101447518D01*
X126417491Y-101447518D01*
X126544785Y-101413410D01*
X126658913Y-101347518D01*
X126752099Y-101254332D01*
X126817991Y-101140204D01*
X126852099Y-101012910D01*
X126852099Y-100881126D01*
X126817991Y-100753832D01*
X126752099Y-100639704D01*
X126663418Y-100551023D01*
X126629933Y-100489700D01*
X126627099Y-100463342D01*
X126627099Y-100044159D01*
X126646784Y-99977120D01*
X126663418Y-99956478D01*
X126974771Y-99645125D01*
X127452834Y-99167063D01*
X127452834Y-99167061D01*
X127452836Y-99167060D01*
X127473805Y-99116434D01*
X127494776Y-99065805D01*
X127494776Y-98956205D01*
X127494776Y-93820167D01*
X127514461Y-93753128D01*
X127567265Y-93707373D01*
X127580458Y-93702236D01*
X127756879Y-93644914D01*
X127756882Y-93644913D01*
X127921504Y-93561033D01*
X127977799Y-93547518D01*
X128023546Y-93547518D01*
X128053975Y-93544664D01*
X128053977Y-93544664D01*
X128118066Y-93522237D01*
X128182158Y-93499811D01*
X128291426Y-93419168D01*
X128372069Y-93309900D01*
X128416922Y-93181717D01*
X128418103Y-93169123D01*
X128443958Y-93104216D01*
X128453871Y-93093028D01*
X129435195Y-92111706D01*
X129564768Y-91933363D01*
X129664848Y-91736947D01*
X129732968Y-91527292D01*
X129767453Y-91309563D01*
X129767453Y-91089120D01*
X129767453Y-89611018D01*
X129787138Y-89543979D01*
X129839942Y-89498224D01*
X129891453Y-89487018D01*
X135924848Y-89487018D01*
X135933694Y-89487334D01*
X136205066Y-89506742D01*
X136222567Y-89509259D01*
X136484079Y-89566147D01*
X136501038Y-89571126D01*
X136750248Y-89664077D01*
X136751800Y-89664656D01*
X136767892Y-89672005D01*
X137002777Y-89800262D01*
X137017651Y-89809820D01*
X137231900Y-89970206D01*
X137245270Y-89981792D01*
X137434501Y-90171023D01*
X137446087Y-90184393D01*
X137604406Y-90395882D01*
X137606469Y-90398637D01*
X137616034Y-90413521D01*
X137744287Y-90648400D01*
X137751637Y-90664493D01*
X137845164Y-90915247D01*
X137850148Y-90932223D01*
X137907033Y-91193720D01*
X137909551Y-91211232D01*
X137928960Y-91482599D01*
X137929276Y-91491445D01*
X137929276Y-113762518D01*
X137909591Y-113829557D01*
X137856787Y-113875312D01*
X137805276Y-113886518D01*
X136387952Y-113886518D01*
X136320913Y-113866833D01*
X136300271Y-113850199D01*
X136236592Y-113786520D01*
X136236590Y-113786518D01*
X136179526Y-113753572D01*
X136122463Y-113720626D01*
X136058815Y-113703572D01*
X135995168Y-113686518D01*
X135863384Y-113686518D01*
X135736088Y-113720626D01*
X135621962Y-113786518D01*
X135621959Y-113786520D01*
X135528778Y-113879701D01*
X135528776Y-113879704D01*
X135462884Y-113993830D01*
X135428776Y-114121126D01*
X135428776Y-114252909D01*
X135462884Y-114380205D01*
X135490178Y-114427478D01*
X135528776Y-114494332D01*
X135528778Y-114494334D01*
X135533781Y-114499337D01*
X135567266Y-114560660D01*
X135562282Y-114630352D01*
X135533781Y-114674699D01*
X135528778Y-114679701D01*
X135528776Y-114679704D01*
X135462884Y-114793830D01*
X135428776Y-114921126D01*
X135428776Y-115052909D01*
X135462884Y-115180205D01*
X135490178Y-115227478D01*
X135528776Y-115294332D01*
X135621962Y-115387518D01*
X135736090Y-115453410D01*
X135863384Y-115487518D01*
X135863386Y-115487518D01*
X135995166Y-115487518D01*
X135995168Y-115487518D01*
X136122462Y-115453410D01*
X136236590Y-115387518D01*
X136300271Y-115323837D01*
X136361594Y-115290352D01*
X136387952Y-115287518D01*
X137805276Y-115287518D01*
X137872315Y-115307203D01*
X137918070Y-115360007D01*
X137929276Y-115411518D01*
X137929276Y-118935677D01*
X137909591Y-119002716D01*
X137856787Y-119048471D01*
X137787629Y-119058415D01*
X137724073Y-119029390D01*
X137697889Y-118997678D01*
X137662092Y-118935677D01*
X137629776Y-118879704D01*
X137536590Y-118786518D01*
X137475054Y-118750990D01*
X137422463Y-118720626D01*
X137358815Y-118703572D01*
X137295168Y-118686518D01*
X135763384Y-118686518D01*
X135636088Y-118720626D01*
X135521962Y-118786518D01*
X135521959Y-118786520D01*
X135428778Y-118879701D01*
X135428776Y-118879704D01*
X135362884Y-118993830D01*
X135328776Y-119121126D01*
X135328776Y-119252909D01*
X135362884Y-119380205D01*
X135373044Y-119397802D01*
X135428776Y-119494332D01*
X135521962Y-119587518D01*
X135636090Y-119653410D01*
X135763384Y-119687518D01*
X135763386Y-119687518D01*
X137295166Y-119687518D01*
X137295168Y-119687518D01*
X137422462Y-119653410D01*
X137536590Y-119587518D01*
X137629776Y-119494332D01*
X137685508Y-119397802D01*
X137697889Y-119376358D01*
X137748456Y-119328142D01*
X137817063Y-119314920D01*
X137881928Y-119340888D01*
X137922456Y-119397802D01*
X137929276Y-119438358D01*
X137929276Y-126082590D01*
X137928960Y-126091436D01*
X137909551Y-126362803D01*
X137907033Y-126380315D01*
X137850148Y-126641812D01*
X137845164Y-126658788D01*
X137751637Y-126909542D01*
X137744287Y-126925635D01*
X137616034Y-127160514D01*
X137606469Y-127175398D01*
X137446087Y-127389642D01*
X137434501Y-127403012D01*
X137245270Y-127592243D01*
X137231900Y-127603829D01*
X137017656Y-127764211D01*
X137002772Y-127773776D01*
X136767893Y-127902029D01*
X136751800Y-127909379D01*
X136501046Y-128002906D01*
X136484070Y-128007890D01*
X136222573Y-128064775D01*
X136205061Y-128067293D01*
X135933694Y-128086702D01*
X135924848Y-128087018D01*
X121838900Y-128087018D01*
X121830039Y-128086701D01*
X121558229Y-128067228D01*
X121540689Y-128064702D01*
X121278772Y-128007628D01*
X121261771Y-128002627D01*
X121010671Y-127908804D01*
X120994556Y-127901431D01*
X120759390Y-127772769D01*
X120744491Y-127763174D01*
X120530072Y-127602306D01*
X120516694Y-127590686D01*
X120327387Y-127400889D01*
X120315805Y-127387485D01*
X120155490Y-127172644D01*
X120145934Y-127157721D01*
X120017880Y-126922220D01*
X120010549Y-126906086D01*
X119917376Y-126654745D01*
X119912419Y-126637731D01*
X119857024Y-126380315D01*
X119856024Y-126375668D01*
X119853544Y-126358124D01*
X119834775Y-126086248D01*
X119834482Y-126077401D01*
X119846788Y-121327518D01*
X119849493Y-120283397D01*
X120178776Y-120283397D01*
X120178776Y-120470638D01*
X120215301Y-120654261D01*
X120215303Y-120654269D01*
X120286952Y-120827246D01*
X120286957Y-120827255D01*
X120390973Y-120982925D01*
X120390976Y-120982929D01*
X120523364Y-121115317D01*
X120523368Y-121115320D01*
X120679038Y-121219336D01*
X120679044Y-121219339D01*
X120679045Y-121219340D01*
X120852025Y-121290991D01*
X121035655Y-121327517D01*
X121035659Y-121327518D01*
X121035660Y-121327518D01*
X121222893Y-121327518D01*
X121222894Y-121327517D01*
X121406527Y-121290991D01*
X121579507Y-121219340D01*
X121735184Y-121115320D01*
X121867578Y-120982926D01*
X121971598Y-120827249D01*
X122043249Y-120654269D01*
X122079776Y-120470634D01*
X122079776Y-120283402D01*
X122043249Y-120099767D01*
X121971598Y-119926787D01*
X121971597Y-119926786D01*
X121971594Y-119926780D01*
X121867578Y-119771110D01*
X121867575Y-119771106D01*
X121735187Y-119638718D01*
X121735183Y-119638715D01*
X121579513Y-119534699D01*
X121579504Y-119534694D01*
X121406527Y-119463045D01*
X121406519Y-119463043D01*
X121222896Y-119426518D01*
X121222892Y-119426518D01*
X121035660Y-119426518D01*
X121035655Y-119426518D01*
X120852032Y-119463043D01*
X120852024Y-119463045D01*
X120679047Y-119534694D01*
X120679038Y-119534699D01*
X120523368Y-119638715D01*
X120523364Y-119638718D01*
X120390976Y-119771106D01*
X120390973Y-119771110D01*
X120286957Y-119926780D01*
X120286952Y-119926789D01*
X120215303Y-120099766D01*
X120215301Y-120099774D01*
X120178776Y-120283397D01*
X119849493Y-120283397D01*
X119856073Y-117743397D01*
X120178776Y-117743397D01*
X120178776Y-117930638D01*
X120215301Y-118114261D01*
X120215303Y-118114269D01*
X120286952Y-118287246D01*
X120286957Y-118287255D01*
X120390973Y-118442925D01*
X120390976Y-118442929D01*
X120523364Y-118575317D01*
X120523368Y-118575320D01*
X120679038Y-118679336D01*
X120679044Y-118679339D01*
X120679045Y-118679340D01*
X120852025Y-118750991D01*
X121030633Y-118786518D01*
X121035655Y-118787517D01*
X121035659Y-118787518D01*
X121035660Y-118787518D01*
X121222893Y-118787518D01*
X121222894Y-118787517D01*
X121406527Y-118750991D01*
X121579507Y-118679340D01*
X121735184Y-118575320D01*
X121867578Y-118442926D01*
X121971598Y-118287249D01*
X122043249Y-118114269D01*
X122079776Y-117930634D01*
X122079776Y-117743402D01*
X122043249Y-117559767D01*
X121971598Y-117386787D01*
X121971597Y-117386786D01*
X121971594Y-117386780D01*
X121867578Y-117231110D01*
X121867575Y-117231106D01*
X121735187Y-117098718D01*
X121735183Y-117098715D01*
X121579513Y-116994699D01*
X121579504Y-116994694D01*
X121406527Y-116923045D01*
X121406519Y-116923043D01*
X121222896Y-116886518D01*
X121222892Y-116886518D01*
X121035660Y-116886518D01*
X121035655Y-116886518D01*
X120852032Y-116923043D01*
X120852024Y-116923045D01*
X120679047Y-116994694D01*
X120679038Y-116994699D01*
X120523368Y-117098715D01*
X120523364Y-117098718D01*
X120390976Y-117231106D01*
X120390973Y-117231110D01*
X120286957Y-117386780D01*
X120286952Y-117386789D01*
X120215303Y-117559766D01*
X120215301Y-117559774D01*
X120178776Y-117743397D01*
X119856073Y-117743397D01*
X119884469Y-106781863D01*
X120648628Y-106781863D01*
X120777574Y-106835275D01*
X120777578Y-106835276D01*
X120932124Y-106866017D01*
X120932128Y-106866018D01*
X121089716Y-106866018D01*
X121089719Y-106866017D01*
X121244265Y-106835276D01*
X121244269Y-106835275D01*
X121373215Y-106781863D01*
X121848628Y-106781863D01*
X121977574Y-106835275D01*
X121977578Y-106835276D01*
X122132124Y-106866017D01*
X122132128Y-106866018D01*
X122289716Y-106866018D01*
X122289719Y-106866017D01*
X122444265Y-106835276D01*
X122444269Y-106835275D01*
X122573215Y-106781863D01*
X122210923Y-106419571D01*
X122210922Y-106419571D01*
X121848628Y-106781863D01*
X121373215Y-106781863D01*
X121010923Y-106419571D01*
X121010922Y-106419571D01*
X120648628Y-106781863D01*
X119884469Y-106781863D01*
X119886528Y-105987220D01*
X120210922Y-105987220D01*
X120210922Y-106144815D01*
X120241663Y-106299361D01*
X120241665Y-106299369D01*
X120295075Y-106428311D01*
X120657368Y-106066019D01*
X120657368Y-106066017D01*
X120627532Y-106036181D01*
X120860922Y-106036181D01*
X120860922Y-106095855D01*
X120883758Y-106150986D01*
X120925954Y-106193182D01*
X120981085Y-106216018D01*
X121040759Y-106216018D01*
X121095890Y-106193182D01*
X121138086Y-106150986D01*
X121160922Y-106095855D01*
X121160922Y-106066017D01*
X121364475Y-106066017D01*
X121610922Y-106312464D01*
X121857368Y-106066019D01*
X121857368Y-106066018D01*
X121827531Y-106036181D01*
X122060922Y-106036181D01*
X122060922Y-106095855D01*
X122083758Y-106150986D01*
X122125954Y-106193182D01*
X122181085Y-106216018D01*
X122240759Y-106216018D01*
X122295890Y-106193182D01*
X122338086Y-106150986D01*
X122360922Y-106095855D01*
X122360922Y-106066017D01*
X122564475Y-106066017D01*
X122564475Y-106066019D01*
X122926767Y-106428311D01*
X122980179Y-106299365D01*
X122980180Y-106299361D01*
X123010921Y-106144815D01*
X123010922Y-106144812D01*
X123010922Y-105987224D01*
X123010921Y-105987220D01*
X122980180Y-105832674D01*
X122980179Y-105832670D01*
X122926767Y-105703724D01*
X122564475Y-106066017D01*
X122360922Y-106066017D01*
X122360922Y-106036181D01*
X122338086Y-105981050D01*
X122295890Y-105938854D01*
X122240759Y-105916018D01*
X122181085Y-105916018D01*
X122125954Y-105938854D01*
X122083758Y-105981050D01*
X122060922Y-106036181D01*
X121827531Y-106036181D01*
X121610922Y-105819571D01*
X121364475Y-106066017D01*
X121160922Y-106066017D01*
X121160922Y-106036181D01*
X121138086Y-105981050D01*
X121095890Y-105938854D01*
X121040759Y-105916018D01*
X120981085Y-105916018D01*
X120925954Y-105938854D01*
X120883758Y-105981050D01*
X120860922Y-106036181D01*
X120627532Y-106036181D01*
X120295075Y-105703723D01*
X120241665Y-105832666D01*
X120241663Y-105832674D01*
X120210922Y-105987220D01*
X119886528Y-105987220D01*
X119887878Y-105466017D01*
X120764475Y-105466017D01*
X121010922Y-105712464D01*
X121257368Y-105466019D01*
X121257368Y-105466018D01*
X121257367Y-105466017D01*
X121964475Y-105466017D01*
X122210922Y-105712464D01*
X122457368Y-105466019D01*
X122457368Y-105466018D01*
X122210922Y-105219571D01*
X121964475Y-105466017D01*
X121257367Y-105466017D01*
X121010922Y-105219571D01*
X120764475Y-105466017D01*
X119887878Y-105466017D01*
X119889637Y-104787220D01*
X120210922Y-104787220D01*
X120210922Y-104944815D01*
X120241663Y-105099361D01*
X120241665Y-105099369D01*
X120295075Y-105228311D01*
X120657368Y-104866019D01*
X120657368Y-104866017D01*
X120627532Y-104836181D01*
X120860922Y-104836181D01*
X120860922Y-104895855D01*
X120883758Y-104950986D01*
X120925954Y-104993182D01*
X120981085Y-105016018D01*
X121040759Y-105016018D01*
X121095890Y-104993182D01*
X121138086Y-104950986D01*
X121160922Y-104895855D01*
X121160922Y-104866017D01*
X121364475Y-104866017D01*
X121610922Y-105112464D01*
X121857368Y-104866019D01*
X121857368Y-104866018D01*
X121827531Y-104836181D01*
X122060922Y-104836181D01*
X122060922Y-104895855D01*
X122083758Y-104950986D01*
X122125954Y-104993182D01*
X122181085Y-105016018D01*
X122240759Y-105016018D01*
X122295890Y-104993182D01*
X122338086Y-104950986D01*
X122360922Y-104895855D01*
X122360922Y-104866017D01*
X122564475Y-104866017D01*
X122564475Y-104866019D01*
X122926767Y-105228311D01*
X122980179Y-105099365D01*
X122980180Y-105099361D01*
X123010921Y-104944815D01*
X123010922Y-104944812D01*
X123010922Y-104787224D01*
X123010921Y-104787220D01*
X122980180Y-104632674D01*
X122980179Y-104632670D01*
X122926767Y-104503724D01*
X122564475Y-104866017D01*
X122360922Y-104866017D01*
X122360922Y-104836181D01*
X122338086Y-104781050D01*
X122295890Y-104738854D01*
X122240759Y-104716018D01*
X122181085Y-104716018D01*
X122125954Y-104738854D01*
X122083758Y-104781050D01*
X122060922Y-104836181D01*
X121827531Y-104836181D01*
X121610922Y-104619571D01*
X121364475Y-104866017D01*
X121160922Y-104866017D01*
X121160922Y-104836181D01*
X121138086Y-104781050D01*
X121095890Y-104738854D01*
X121040759Y-104716018D01*
X120981085Y-104716018D01*
X120925954Y-104738854D01*
X120883758Y-104781050D01*
X120860922Y-104836181D01*
X120627532Y-104836181D01*
X120295075Y-104503723D01*
X120241665Y-104632666D01*
X120241663Y-104632674D01*
X120210922Y-104787220D01*
X119889637Y-104787220D01*
X119891117Y-104216018D01*
X120714475Y-104216018D01*
X121010922Y-104512464D01*
X121010923Y-104512464D01*
X121307368Y-104216019D01*
X121307368Y-104216018D01*
X121914475Y-104216018D01*
X122210922Y-104512464D01*
X122210923Y-104512464D01*
X122507368Y-104216019D01*
X122507368Y-104216017D01*
X122210923Y-103919571D01*
X122210922Y-103919571D01*
X121914475Y-104216018D01*
X121307368Y-104216018D01*
X121307368Y-104216017D01*
X121010923Y-103919571D01*
X121010922Y-103919571D01*
X120714475Y-104216018D01*
X119891117Y-104216018D01*
X119893005Y-103487220D01*
X120210922Y-103487220D01*
X120210922Y-103644815D01*
X120241663Y-103799361D01*
X120241665Y-103799369D01*
X120295075Y-103928311D01*
X120657368Y-103566019D01*
X120657368Y-103566017D01*
X120627532Y-103536181D01*
X120860922Y-103536181D01*
X120860922Y-103595855D01*
X120883758Y-103650986D01*
X120925954Y-103693182D01*
X120981085Y-103716018D01*
X121040759Y-103716018D01*
X121095890Y-103693182D01*
X121138086Y-103650986D01*
X121160922Y-103595855D01*
X121160922Y-103566017D01*
X121364475Y-103566017D01*
X121610922Y-103812464D01*
X121857368Y-103566019D01*
X121857368Y-103566018D01*
X121827531Y-103536181D01*
X122060922Y-103536181D01*
X122060922Y-103595855D01*
X122083758Y-103650986D01*
X122125954Y-103693182D01*
X122181085Y-103716018D01*
X122240759Y-103716018D01*
X122295890Y-103693182D01*
X122338086Y-103650986D01*
X122360922Y-103595855D01*
X122360922Y-103566017D01*
X122564475Y-103566017D01*
X122564475Y-103566019D01*
X122926767Y-103928311D01*
X122980179Y-103799365D01*
X122980180Y-103799361D01*
X123010921Y-103644815D01*
X123010922Y-103644812D01*
X123010922Y-103487224D01*
X123010921Y-103487220D01*
X122980180Y-103332674D01*
X122980179Y-103332670D01*
X122926767Y-103203724D01*
X122564475Y-103566017D01*
X122360922Y-103566017D01*
X122360922Y-103536181D01*
X122338086Y-103481050D01*
X122295890Y-103438854D01*
X122240759Y-103416018D01*
X122181085Y-103416018D01*
X122125954Y-103438854D01*
X122083758Y-103481050D01*
X122060922Y-103536181D01*
X121827531Y-103536181D01*
X121610922Y-103319571D01*
X121364475Y-103566017D01*
X121160922Y-103566017D01*
X121160922Y-103536181D01*
X121138086Y-103481050D01*
X121095890Y-103438854D01*
X121040759Y-103416018D01*
X120981085Y-103416018D01*
X120925954Y-103438854D01*
X120883758Y-103481050D01*
X120860922Y-103536181D01*
X120627532Y-103536181D01*
X120295075Y-103203723D01*
X120241665Y-103332666D01*
X120241663Y-103332674D01*
X120210922Y-103487220D01*
X119893005Y-103487220D01*
X119894226Y-103016017D01*
X120814475Y-103016017D01*
X121010922Y-103212464D01*
X121207368Y-103016019D01*
X121207368Y-103016018D01*
X121207367Y-103016017D01*
X122014475Y-103016017D01*
X122210922Y-103212464D01*
X122407368Y-103016019D01*
X122407368Y-103016018D01*
X122210922Y-102819571D01*
X122014475Y-103016017D01*
X121207367Y-103016017D01*
X121010922Y-102819571D01*
X120814475Y-103016017D01*
X119894226Y-103016017D01*
X119895855Y-102387220D01*
X120210922Y-102387220D01*
X120210922Y-102544815D01*
X120241663Y-102699361D01*
X120241665Y-102699369D01*
X120295075Y-102828311D01*
X120657368Y-102466019D01*
X120657368Y-102466017D01*
X120627532Y-102436181D01*
X120860922Y-102436181D01*
X120860922Y-102495855D01*
X120883758Y-102550986D01*
X120925954Y-102593182D01*
X120981085Y-102616018D01*
X121040759Y-102616018D01*
X121095890Y-102593182D01*
X121138086Y-102550986D01*
X121160922Y-102495855D01*
X121160922Y-102466017D01*
X121364475Y-102466017D01*
X121610922Y-102712464D01*
X121857368Y-102466019D01*
X121857368Y-102466018D01*
X121827531Y-102436181D01*
X122060922Y-102436181D01*
X122060922Y-102495855D01*
X122083758Y-102550986D01*
X122125954Y-102593182D01*
X122181085Y-102616018D01*
X122240759Y-102616018D01*
X122295890Y-102593182D01*
X122338086Y-102550986D01*
X122360922Y-102495855D01*
X122360922Y-102466017D01*
X122564475Y-102466017D01*
X122564475Y-102466019D01*
X122926767Y-102828311D01*
X122980179Y-102699365D01*
X122980180Y-102699361D01*
X123010921Y-102544815D01*
X123010922Y-102544812D01*
X123010922Y-102387224D01*
X123010921Y-102387220D01*
X122980180Y-102232674D01*
X122980179Y-102232670D01*
X122926767Y-102103724D01*
X122564475Y-102466017D01*
X122360922Y-102466017D01*
X122360922Y-102436181D01*
X122338086Y-102381050D01*
X122295890Y-102338854D01*
X122240759Y-102316018D01*
X122181085Y-102316018D01*
X122125954Y-102338854D01*
X122083758Y-102381050D01*
X122060922Y-102436181D01*
X121827531Y-102436181D01*
X121610922Y-102219571D01*
X121364475Y-102466017D01*
X121160922Y-102466017D01*
X121160922Y-102436181D01*
X121138086Y-102381050D01*
X121095890Y-102338854D01*
X121040759Y-102316018D01*
X120981085Y-102316018D01*
X120925954Y-102338854D01*
X120883758Y-102381050D01*
X120860922Y-102436181D01*
X120627532Y-102436181D01*
X120295075Y-102103723D01*
X120241665Y-102232666D01*
X120241663Y-102232674D01*
X120210922Y-102387220D01*
X119895855Y-102387220D01*
X119897505Y-101750171D01*
X120648627Y-101750171D01*
X121010922Y-102112464D01*
X121010923Y-102112464D01*
X121373215Y-101750171D01*
X121848627Y-101750171D01*
X122210922Y-102112464D01*
X122210923Y-102112464D01*
X122573215Y-101750171D01*
X122444273Y-101696761D01*
X122444265Y-101696759D01*
X122289719Y-101666018D01*
X122132124Y-101666018D01*
X121977578Y-101696759D01*
X121977570Y-101696761D01*
X121848627Y-101750171D01*
X121373215Y-101750171D01*
X121244273Y-101696761D01*
X121244265Y-101696759D01*
X121089719Y-101666018D01*
X120932124Y-101666018D01*
X120777578Y-101696759D01*
X120777570Y-101696761D01*
X120648627Y-101750171D01*
X119897505Y-101750171D01*
X119922172Y-92228965D01*
X120719276Y-92228965D01*
X120719276Y-92465070D01*
X120756210Y-92698265D01*
X120829173Y-92922820D01*
X120936363Y-93133192D01*
X120996614Y-93216122D01*
X120996616Y-93216123D01*
X121736313Y-92476426D01*
X121753351Y-92540011D01*
X121819177Y-92654025D01*
X121912269Y-92747117D01*
X122026283Y-92812943D01*
X122089866Y-92829980D01*
X121350169Y-93569676D01*
X121433104Y-93629932D01*
X121643473Y-93737120D01*
X121868028Y-93810083D01*
X121868027Y-93810083D01*
X122101224Y-93847018D01*
X122337328Y-93847018D01*
X122570523Y-93810083D01*
X122795078Y-93737120D01*
X123005439Y-93629936D01*
X123005445Y-93629932D01*
X123088380Y-93569676D01*
X123088381Y-93569676D01*
X122348684Y-92829980D01*
X122412269Y-92812943D01*
X122526283Y-92747117D01*
X122619375Y-92654025D01*
X122685201Y-92540011D01*
X122702238Y-92476427D01*
X123441934Y-93216123D01*
X123441934Y-93216122D01*
X123502190Y-93133187D01*
X123502194Y-93133181D01*
X123609378Y-92922820D01*
X123682341Y-92698265D01*
X123719276Y-92465070D01*
X123719276Y-92228965D01*
X123682341Y-91995770D01*
X123609378Y-91771215D01*
X123502190Y-91560846D01*
X123441934Y-91477912D01*
X123441934Y-91477911D01*
X122702238Y-92217608D01*
X122685201Y-92154025D01*
X122619375Y-92040011D01*
X122526283Y-91946919D01*
X122412269Y-91881093D01*
X122348685Y-91864055D01*
X123088381Y-91124358D01*
X123088380Y-91124356D01*
X123005450Y-91064105D01*
X122795078Y-90956915D01*
X122570523Y-90883952D01*
X122570524Y-90883952D01*
X122337328Y-90847018D01*
X122101224Y-90847018D01*
X121868028Y-90883952D01*
X121643473Y-90956915D01*
X121433106Y-91064102D01*
X121350170Y-91124358D01*
X122089867Y-91864055D01*
X122026283Y-91881093D01*
X121912269Y-91946919D01*
X121819177Y-92040011D01*
X121753351Y-92154025D01*
X121736313Y-92217609D01*
X120996616Y-91477912D01*
X120936360Y-91560848D01*
X120829173Y-91771215D01*
X120756210Y-91995770D01*
X120719276Y-92228965D01*
X119922172Y-92228965D01*
X119924096Y-91486239D01*
X119924433Y-91477440D01*
X119944481Y-91206545D01*
X119947033Y-91189090D01*
X120004413Y-90928128D01*
X120009421Y-90911204D01*
X120103299Y-90661040D01*
X120110658Y-90645006D01*
X120239125Y-90410721D01*
X120248697Y-90395882D01*
X120409143Y-90182233D01*
X120420713Y-90168918D01*
X120609896Y-89980226D01*
X120623247Y-89968685D01*
X120837315Y-89808788D01*
X120852177Y-89799256D01*
X121086789Y-89671399D01*
X121102847Y-89664080D01*
X121353252Y-89570852D01*
X121370185Y-89565889D01*
X121631292Y-89509185D01*
X121648756Y-89506678D01*
X121919689Y-89487332D01*
X121928520Y-89487018D01*
X126842453Y-89487018D01*
X126909492Y-89506703D01*
G37*
G04 #@! TD.AperFunction*
G04 #@! TD*
G04 #@! TA.AperFunction,Conductor*
G04 #@! TO.N,+3.3V*
G36*
X188745329Y-56036113D02*
G01*
X188755002Y-56036597D01*
X188935446Y-56054523D01*
X188954456Y-56058319D01*
X189094090Y-56100789D01*
X189123263Y-56109662D01*
X189141177Y-56117097D01*
X189296724Y-56200362D01*
X189312839Y-56211143D01*
X189437655Y-56313682D01*
X189449170Y-56323142D01*
X189462879Y-56336863D01*
X189574755Y-56473294D01*
X189585525Y-56489425D01*
X189668650Y-56645045D01*
X189676069Y-56662967D01*
X189727255Y-56831811D01*
X189731037Y-56850834D01*
X189748800Y-57031281D01*
X189749276Y-57040980D01*
X189749276Y-57176269D01*
X189730369Y-57234460D01*
X189699780Y-57262003D01*
X189691966Y-57266514D01*
X189598772Y-57359708D01*
X189532885Y-57473827D01*
X189532884Y-57473832D01*
X189498776Y-57601126D01*
X189498776Y-57732910D01*
X189513994Y-57789704D01*
X189532885Y-57860208D01*
X189598772Y-57974327D01*
X189598774Y-57974329D01*
X189598776Y-57974332D01*
X189691962Y-58067518D01*
X189699774Y-58072028D01*
X189740716Y-58117495D01*
X189749276Y-58157765D01*
X189749276Y-62987518D01*
X189730369Y-63045709D01*
X189680869Y-63081673D01*
X189650276Y-63086518D01*
X187822995Y-63086518D01*
X187764804Y-63067611D01*
X187728840Y-63018111D01*
X187727368Y-62961895D01*
X187729776Y-62952910D01*
X187729776Y-62821126D01*
X187695668Y-62693832D01*
X187695666Y-62693829D01*
X187695666Y-62693827D01*
X187629779Y-62579708D01*
X187629777Y-62579706D01*
X187629776Y-62579704D01*
X187536590Y-62486518D01*
X187536587Y-62486516D01*
X187536585Y-62486514D01*
X187422465Y-62420627D01*
X187422467Y-62420627D01*
X187373075Y-62407393D01*
X187295168Y-62386518D01*
X187163384Y-62386518D01*
X187085476Y-62407393D01*
X187036085Y-62420627D01*
X186921966Y-62486514D01*
X186828772Y-62579708D01*
X186762885Y-62693827D01*
X186762884Y-62693832D01*
X186728776Y-62821126D01*
X186728776Y-62952910D01*
X186748805Y-63027660D01*
X186762884Y-63080205D01*
X186795974Y-63137519D01*
X186808695Y-63197367D01*
X186795974Y-63236517D01*
X186762884Y-63293830D01*
X186755278Y-63322218D01*
X186728776Y-63421126D01*
X186728776Y-63552910D01*
X186747913Y-63624332D01*
X186762885Y-63680208D01*
X186828772Y-63794327D01*
X186828774Y-63794329D01*
X186828776Y-63794332D01*
X186921962Y-63887518D01*
X186921964Y-63887519D01*
X186921966Y-63887521D01*
X187036086Y-63953408D01*
X187036084Y-63953408D01*
X187036088Y-63953409D01*
X187036090Y-63953410D01*
X187163384Y-63987518D01*
X187163386Y-63987518D01*
X187295166Y-63987518D01*
X187295168Y-63987518D01*
X187422462Y-63953410D01*
X187513617Y-63900781D01*
X187563116Y-63887518D01*
X189650276Y-63887518D01*
X189708467Y-63906425D01*
X189744431Y-63955925D01*
X189749276Y-63986518D01*
X189749276Y-65248196D01*
X189730369Y-65306387D01*
X189720280Y-65318199D01*
X189658776Y-65379703D01*
X189658772Y-65379708D01*
X189592885Y-65493827D01*
X189592884Y-65493832D01*
X189558776Y-65621126D01*
X189558776Y-65752910D01*
X189585712Y-65853436D01*
X189592885Y-65880208D01*
X189658772Y-65994327D01*
X189658774Y-65994329D01*
X189658776Y-65994332D01*
X189720281Y-66055837D01*
X189723906Y-66062952D01*
X189730369Y-66067648D01*
X189737532Y-66089696D01*
X189748057Y-66110352D01*
X189749276Y-66125839D01*
X189749276Y-66131558D01*
X189748799Y-66141266D01*
X189731003Y-66321879D01*
X189727214Y-66340920D01*
X189675930Y-66509913D01*
X189668497Y-66527849D01*
X189585222Y-66683575D01*
X189574433Y-66699714D01*
X189462361Y-66836203D01*
X189448628Y-66849928D01*
X189312080Y-66961913D01*
X189295934Y-66972693D01*
X189140153Y-67055878D01*
X189122213Y-67063300D01*
X188953193Y-67114483D01*
X188934149Y-67118261D01*
X188753521Y-67135950D01*
X188743813Y-67136421D01*
X188386001Y-67136208D01*
X186881885Y-67135315D01*
X182466648Y-67132693D01*
X182451765Y-67132685D01*
X182451764Y-67132685D01*
X182451762Y-67132685D01*
X182270790Y-67149088D01*
X182095772Y-67197970D01*
X182095771Y-67197970D01*
X182095769Y-67197971D01*
X181932498Y-67277712D01*
X181932485Y-67277719D01*
X177219137Y-70137160D01*
X177167788Y-70151518D01*
X176712597Y-70151518D01*
X176654406Y-70132611D01*
X176642593Y-70122522D01*
X176639777Y-70119706D01*
X176639776Y-70119704D01*
X176546590Y-70026518D01*
X176546587Y-70026516D01*
X176546585Y-70026514D01*
X176432465Y-69960627D01*
X176432467Y-69960627D01*
X176383075Y-69947393D01*
X176305168Y-69926518D01*
X176173384Y-69926518D01*
X176095476Y-69947393D01*
X176046085Y-69960627D01*
X175931966Y-70026514D01*
X175838772Y-70119708D01*
X175772885Y-70233827D01*
X175772884Y-70233832D01*
X175738776Y-70361126D01*
X175738776Y-70492910D01*
X175746851Y-70523045D01*
X175772885Y-70620208D01*
X175838772Y-70734327D01*
X175838774Y-70734329D01*
X175838776Y-70734332D01*
X175899101Y-70794657D01*
X175926877Y-70849172D01*
X175917306Y-70909604D01*
X175880445Y-70949301D01*
X170600976Y-74152188D01*
X170593160Y-74156461D01*
X170443723Y-74229626D01*
X170427098Y-74235984D01*
X170271278Y-74279993D01*
X170253784Y-74283271D01*
X170088156Y-74299093D01*
X170079259Y-74299541D01*
X168030319Y-74310239D01*
X168020558Y-74309807D01*
X167848926Y-74293710D01*
X167829769Y-74289982D01*
X167669324Y-74241935D01*
X167651270Y-74234520D01*
X167503373Y-74155930D01*
X167487125Y-74145118D01*
X167357517Y-74039040D01*
X167343706Y-74025250D01*
X167237431Y-73895811D01*
X167226593Y-73879580D01*
X167147773Y-73731803D01*
X167140330Y-73713760D01*
X167092034Y-73553391D01*
X167088276Y-73534240D01*
X167088132Y-73532737D01*
X167072378Y-73367508D01*
X167072449Y-73348004D01*
X167089571Y-73181388D01*
X167093467Y-73162279D01*
X167142943Y-73002258D01*
X167150513Y-72984282D01*
X167230421Y-72837077D01*
X167241368Y-72820939D01*
X167351755Y-72688486D01*
X167358351Y-72681322D01*
X173291455Y-66843741D01*
X173734587Y-66407742D01*
X173789321Y-66380411D01*
X173849673Y-66390473D01*
X173859015Y-66395999D01*
X173977622Y-66475249D01*
X173981678Y-66477959D01*
X174172856Y-66557148D01*
X174375811Y-66597518D01*
X174375812Y-66597518D01*
X174582740Y-66597518D01*
X174582741Y-66597518D01*
X174785696Y-66557148D01*
X174976874Y-66477959D01*
X175148931Y-66362995D01*
X175295253Y-66216673D01*
X175410217Y-66044616D01*
X175489406Y-65853438D01*
X175529776Y-65650483D01*
X175529776Y-65443553D01*
X175489406Y-65240598D01*
X175410217Y-65049420D01*
X175338685Y-64942364D01*
X175322077Y-64883476D01*
X175343255Y-64826072D01*
X175351559Y-64816803D01*
X178341375Y-61875123D01*
X178467850Y-61723294D01*
X178562001Y-61549560D01*
X178620150Y-61360704D01*
X178640028Y-61164101D01*
X178641425Y-60387793D01*
X182562110Y-60387793D01*
X182562110Y-60519577D01*
X182576188Y-60572117D01*
X182596219Y-60646875D01*
X182662106Y-60760994D01*
X182662108Y-60760996D01*
X182662110Y-60760999D01*
X182755296Y-60854185D01*
X182755298Y-60854186D01*
X182755300Y-60854188D01*
X182869420Y-60920075D01*
X182869421Y-60920075D01*
X182869424Y-60920077D01*
X182886770Y-60924724D01*
X182938084Y-60958047D01*
X182960011Y-61015168D01*
X182944176Y-61074269D01*
X182896627Y-61112775D01*
X182886773Y-61115977D01*
X182869421Y-61120626D01*
X182869420Y-61120627D01*
X182755300Y-61186514D01*
X182662106Y-61279708D01*
X182596219Y-61393827D01*
X182596218Y-61393832D01*
X182562110Y-61521126D01*
X182562110Y-61652910D01*
X182576188Y-61705450D01*
X182596219Y-61780208D01*
X182662106Y-61894327D01*
X182662108Y-61894329D01*
X182662110Y-61894332D01*
X182755296Y-61987518D01*
X182755298Y-61987519D01*
X182755300Y-61987521D01*
X182869420Y-62053408D01*
X182869421Y-62053408D01*
X182869424Y-62053410D01*
X182886770Y-62058057D01*
X182938084Y-62091380D01*
X182960011Y-62148501D01*
X182944176Y-62207602D01*
X182896627Y-62246108D01*
X182886773Y-62249310D01*
X182869421Y-62253959D01*
X182869420Y-62253960D01*
X182755300Y-62319847D01*
X182662106Y-62413041D01*
X182596219Y-62527160D01*
X182596218Y-62527165D01*
X182562110Y-62654459D01*
X182562110Y-62786243D01*
X182576188Y-62838783D01*
X182596219Y-62913541D01*
X182662106Y-63027660D01*
X182662108Y-63027662D01*
X182662110Y-63027665D01*
X182755296Y-63120851D01*
X182755298Y-63120852D01*
X182755300Y-63120854D01*
X182869420Y-63186741D01*
X182869418Y-63186741D01*
X182869422Y-63186742D01*
X182869424Y-63186743D01*
X182996718Y-63220851D01*
X182996720Y-63220851D01*
X183128500Y-63220851D01*
X183128502Y-63220851D01*
X183255796Y-63186743D01*
X183255798Y-63186741D01*
X183255800Y-63186741D01*
X183369919Y-63120854D01*
X183369919Y-63120853D01*
X183369924Y-63120851D01*
X183463110Y-63027665D01*
X183529002Y-62913537D01*
X183533649Y-62896190D01*
X183566971Y-62844877D01*
X183624092Y-62822949D01*
X183683193Y-62838783D01*
X183721700Y-62886332D01*
X183724902Y-62896188D01*
X183729551Y-62913538D01*
X183729552Y-62913540D01*
X183795439Y-63027660D01*
X183795441Y-63027662D01*
X183795443Y-63027665D01*
X183888629Y-63120851D01*
X183888631Y-63120852D01*
X183888633Y-63120854D01*
X184002753Y-63186741D01*
X184002751Y-63186741D01*
X184002755Y-63186742D01*
X184002757Y-63186743D01*
X184130051Y-63220851D01*
X184130053Y-63220851D01*
X184261833Y-63220851D01*
X184261835Y-63220851D01*
X184389129Y-63186743D01*
X184389131Y-63186741D01*
X184389133Y-63186741D01*
X184503252Y-63120854D01*
X184503252Y-63120853D01*
X184503257Y-63120851D01*
X184596443Y-63027665D01*
X184662335Y-62913537D01*
X184666982Y-62896190D01*
X184700304Y-62844877D01*
X184757425Y-62822949D01*
X184816526Y-62838783D01*
X184855033Y-62886332D01*
X184858235Y-62896188D01*
X184862884Y-62913538D01*
X184862885Y-62913540D01*
X184928772Y-63027660D01*
X184928774Y-63027662D01*
X184928776Y-63027665D01*
X185021962Y-63120851D01*
X185021964Y-63120852D01*
X185021966Y-63120854D01*
X185136086Y-63186741D01*
X185136084Y-63186741D01*
X185136088Y-63186742D01*
X185136090Y-63186743D01*
X185263384Y-63220851D01*
X185263386Y-63220851D01*
X185395166Y-63220851D01*
X185395168Y-63220851D01*
X185522462Y-63186743D01*
X185522464Y-63186741D01*
X185522466Y-63186741D01*
X185636585Y-63120854D01*
X185636585Y-63120853D01*
X185636590Y-63120851D01*
X185729776Y-63027665D01*
X185766630Y-62963832D01*
X185795666Y-62913541D01*
X185795667Y-62913538D01*
X185795668Y-62913537D01*
X185829776Y-62786243D01*
X185829776Y-62654459D01*
X185795668Y-62527165D01*
X185795666Y-62527162D01*
X185795666Y-62527160D01*
X185729779Y-62413041D01*
X185729777Y-62413039D01*
X185729776Y-62413037D01*
X185636590Y-62319851D01*
X185636587Y-62319849D01*
X185636585Y-62319847D01*
X185522465Y-62253960D01*
X185522463Y-62253959D01*
X185505113Y-62249310D01*
X185453800Y-62215986D01*
X185431874Y-62158864D01*
X185447710Y-62099763D01*
X185495261Y-62061259D01*
X185505107Y-62058060D01*
X185522462Y-62053410D01*
X185636590Y-61987518D01*
X185729776Y-61894332D01*
X185795668Y-61780204D01*
X185829776Y-61652910D01*
X185829776Y-61521126D01*
X185795668Y-61393832D01*
X185795666Y-61393829D01*
X185795666Y-61393827D01*
X185729779Y-61279708D01*
X185729777Y-61279706D01*
X185729776Y-61279704D01*
X185636590Y-61186518D01*
X185636587Y-61186516D01*
X185636585Y-61186514D01*
X185522465Y-61120627D01*
X185522463Y-61120626D01*
X185505113Y-61115977D01*
X185453800Y-61082653D01*
X185431874Y-61025531D01*
X185447710Y-60966430D01*
X185495261Y-60927926D01*
X185505107Y-60924727D01*
X185522462Y-60920077D01*
X185636590Y-60854185D01*
X185729776Y-60760999D01*
X185795668Y-60646871D01*
X185829776Y-60519577D01*
X185829776Y-60387793D01*
X185795668Y-60260499D01*
X185795666Y-60260496D01*
X185795666Y-60260494D01*
X185729779Y-60146375D01*
X185729777Y-60146373D01*
X185729776Y-60146371D01*
X185636590Y-60053185D01*
X185636587Y-60053183D01*
X185636585Y-60053181D01*
X185522465Y-59987294D01*
X185522467Y-59987294D01*
X185473075Y-59974060D01*
X185395168Y-59953185D01*
X185263384Y-59953185D01*
X185185476Y-59974060D01*
X185136085Y-59987294D01*
X185021966Y-60053181D01*
X184928772Y-60146375D01*
X184862885Y-60260495D01*
X184862884Y-60260496D01*
X184858235Y-60277848D01*
X184824910Y-60329161D01*
X184767788Y-60351086D01*
X184708688Y-60335249D01*
X184670184Y-60287698D01*
X184666985Y-60277853D01*
X184662335Y-60260499D01*
X184658242Y-60253410D01*
X184596446Y-60146375D01*
X184596444Y-60146373D01*
X184596443Y-60146371D01*
X184503257Y-60053185D01*
X184503254Y-60053183D01*
X184503252Y-60053181D01*
X184389132Y-59987294D01*
X184389134Y-59987294D01*
X184339742Y-59974060D01*
X184261835Y-59953185D01*
X184130051Y-59953185D01*
X184052143Y-59974060D01*
X184002752Y-59987294D01*
X183888633Y-60053181D01*
X183795439Y-60146375D01*
X183729552Y-60260495D01*
X183729551Y-60260496D01*
X183724902Y-60277848D01*
X183691577Y-60329161D01*
X183634455Y-60351086D01*
X183575355Y-60335249D01*
X183536851Y-60287698D01*
X183533652Y-60277853D01*
X183529002Y-60260499D01*
X183524909Y-60253410D01*
X183463113Y-60146375D01*
X183463111Y-60146373D01*
X183463110Y-60146371D01*
X183369924Y-60053185D01*
X183369921Y-60053183D01*
X183369919Y-60053181D01*
X183255799Y-59987294D01*
X183255801Y-59987294D01*
X183206409Y-59974060D01*
X183128502Y-59953185D01*
X182996718Y-59953185D01*
X182918810Y-59974060D01*
X182869419Y-59987294D01*
X182755300Y-60053181D01*
X182662106Y-60146375D01*
X182596219Y-60260494D01*
X182596218Y-60260499D01*
X182562110Y-60387793D01*
X178641425Y-60387793D01*
X178647468Y-57030969D01*
X178647962Y-57021278D01*
X178666049Y-56840860D01*
X178669861Y-56821861D01*
X178721356Y-56653097D01*
X178728807Y-56635191D01*
X178811618Y-56480828D01*
X178812214Y-56479716D01*
X178823006Y-56463615D01*
X178935139Y-56327372D01*
X178948862Y-56313686D01*
X179085403Y-56201925D01*
X179101525Y-56191182D01*
X179257240Y-56108187D01*
X179275147Y-56100793D01*
X179444052Y-56049753D01*
X179463074Y-56045989D01*
X179643551Y-56028388D01*
X179653233Y-56027922D01*
X188745329Y-56036113D01*
G37*
G04 #@! TD.AperFunction*
G04 #@! TD*
M02*
