M48
; DRILL file KiCad 10.0.4 date 2026-07-06T15:31:59
; FORMAT={-:-/ absolute / metric / decimal}
; #@! TF.CreationDate,2026-07-06T15:31:59-10:00
; #@! TF.GenerationSoftware,Kicad,Pcbnew,10.0.4
; #@! TF.FileFunction,NonPlated,1,4,NPTH
FMAT,2
METRIC
; #@! TA.AperFunction,NonPlated,NPTH,ComponentDrill
T1C0.600
; #@! TA.AperFunction,NonPlated,NPTH,ComponentDrill
T2C0.650
; #@! TA.AperFunction,NonPlated,NPTH,ComponentDrill
T3C1.016
; #@! TA.AperFunction,NonPlated,NPTH,ComponentDrill
T4C1.850
; #@! TA.AperFunction,NonPlated,NPTH,ComponentDrill
T5C2.200
; #@! TA.AperFunction,NonPlated,NPTH,ComponentDrill
T6C3.250
; #@! TA.AperFunction,NonPlated,NPTH,ComponentDrill
T7C3.556
; #@! TA.AperFunction,NonPlated,NPTH,ComponentDrill
T8C3.700
; #@! TA.AperFunction,NonPlated,NPTH,ComponentDrill
T9C4.000
; #@! TA.AperFunction,NonPlated,NPTH,ComponentDrill
T10C5.000
%
G90
G05
T1
X308.929Y-57.387
X308.929Y-58.287
X308.929Y-59.187
X308.929Y-60.087
X308.929Y-60.987
X308.929Y-72.587
X308.929Y-73.487
X308.929Y-74.387
X308.929Y-75.287
X308.929Y-76.187
X308.929Y-88.187
X308.929Y-89.087
X308.929Y-89.987
X308.929Y-90.887
X308.929Y-91.787
X308.929Y-107.787
X308.929Y-108.687
X308.929Y-109.587
X308.929Y-110.487
X308.929Y-111.387
X308.929Y-128.787
X308.929Y-129.687
X308.929Y-130.587
X308.929Y-131.487
X308.929Y-132.387
X308.929Y-147.387
X308.929Y-148.287
X308.929Y-149.187
X308.929Y-150.087
X308.929Y-150.987
X310.729Y-57.387
X310.729Y-58.287
X310.729Y-59.187
X310.729Y-60.087
X310.729Y-60.987
X310.729Y-72.587
X310.729Y-73.487
X310.729Y-74.387
X310.729Y-75.287
X310.729Y-76.187
X310.729Y-88.187
X310.729Y-89.087
X310.729Y-89.987
X310.729Y-90.887
X310.729Y-91.787
X310.729Y-107.787
X310.729Y-108.687
X310.729Y-109.587
X310.729Y-110.487
X310.729Y-111.387
X310.729Y-128.787
X310.729Y-129.687
X310.729Y-130.587
X310.729Y-131.487
X310.729Y-132.387
X310.729Y-147.387
X310.729Y-148.287
X310.729Y-149.187
X310.729Y-150.087
X310.729Y-150.987
X314.729Y-115.687
X314.729Y-117.487
X315.629Y-115.687
X315.629Y-117.487
X316.529Y-115.687
X316.529Y-117.487
X317.429Y-115.687
X317.429Y-117.487
X318.329Y-115.687
X318.329Y-117.487
X330.929Y-115.687
X330.929Y-117.487
X331.829Y-115.687
X331.829Y-117.487
X332.729Y-115.687
X332.729Y-117.487
X333.629Y-115.687
X333.629Y-117.487
X334.529Y-115.687
X334.529Y-117.487
X347.329Y-115.687
X347.329Y-117.487
X348.229Y-115.687
X348.229Y-117.487
X349.129Y-115.687
X349.129Y-117.487
X350.029Y-115.687
X350.029Y-117.487
X350.929Y-115.687
X350.929Y-117.487
T2
X303.674Y-48.677
X303.674Y-54.457
X303.679Y-63.777
X303.679Y-69.557
X303.779Y-78.897
X303.779Y-84.677
T3
X152.53Y-144.987
X156.029Y-140.387
X156.029Y-144.987
X159.529Y-140.387
X165.029Y-144.987
X168.529Y-144.987
X174.029Y-144.987
X177.529Y-140.387
X177.529Y-144.987
X181.029Y-140.387
X181.029Y-144.987
X188.328Y-144.987
X191.828Y-140.387
X191.828Y-144.987
X197.327Y-144.987
X206.327Y-140.387
X206.327Y-144.987
X209.827Y-144.987
T4
X321.804Y-122.217
X326.654Y-122.217
T5
X321.504Y-119.187
X326.954Y-119.187
T6
X103.399Y-152.702
X131.849Y-152.702
X304.844Y-95.567
X304.844Y-124.017
T7
X145.329Y-149.987
X217.338Y-149.987
T8
X57.729Y-47.387
X281.8Y-46.687
T9
X55.129Y-65.987
X55.129Y-99.007
T10
X56.129Y-146.887
X302.129Y-146.887
M30
